<?xml version="1.0" standalone="no"?>
<!DOCTYPE svg PUBLIC "-//W3C//DTD SVG 1.1//EN" "http://www.w3.org/Graphics/SVG/1.1/DTD/svg11.dtd" >
<svg>
<metadata>
Created by FontForge 20120731 at Sat Apr  2 12:12:17 2016
 By ,,,
Copyright (c) 1981, 1982, 1983, 1989 and 1993, Linotype Library GmbH or its affiliated Linotype-Hell companies. All rights reserved.

The digitally encoded machine readable software for producing the Typefaces licensed to you is now the property of Heidelberger Druckmaschinen AG and its licensors, and may not be reproduced, used, displayed, modified, disclosed or transferred without the express written approval of Heidelberger Druckmaschinen AG.

Copyright (c) 1988, 1990, 1993 Adobe Systems Incorporated. All Rights Reserved.
</metadata>
<defs>
<font id="HelveticaNeue-LightItalic" horiz-adv-x="574" >
  <font-face 
    font-family="Helvetica Neue"
    font-weight="300"
    font-style="italic"
    font-stretch="normal"
    units-per-em="1000"
    panose-1="2 0 4 3 0 0 0 9 0 4"
    ascent="800"
    descent="-200"
    x-height="516"
    cap-height="714"
    bbox="-523 -334 1411 1143"
    underline-thickness="50"
    underline-position="-75"
    slope="-12"
    unicode-range="U+0008-FE48"
  />
<missing-glyph horiz-adv-x="500" 
d="M442 8v496h-384v-496h384zM50 512h400v-512h-400v512z" />
    <glyph glyph-name="fi" unicode="fi" horiz-adv-x="444" 
d="M284 463h-101l-102 -463h-63l102 463h-90l12 53h89l16 75q13 60 45 91.5t93 31.5q44 0 65 -7l-11 -52q-26 6 -39 6q-43 0 -62.5 -16.5t-28.5 -56.5l-15 -72h102zM402 714h63l-22 -101h-63zM359 516h63l-111 -516h-63z" />
    <glyph glyph-name="fl" unicode="fl" horiz-adv-x="444" 
d="M402 714h63l-154 -714h-63zM284 463h-101l-102 -463h-63l102 463h-90l12 53h89l16 75q13 60 45 91.5t93 31.5q44 0 65 -7l-11 -52q-26 6 -39 6q-43 0 -62.5 -16.5t-28.5 -56.5l-15 -72h102z" />
    <glyph glyph-name=".notdef" horiz-adv-x="500" 
d="M442 8v496h-384v-496h384zM50 512h400v-512h-400v512z" />
    <glyph glyph-name=".null" horiz-adv-x="0" 
 />
    <glyph glyph-name="nonmarkingreturn" horiz-adv-x="333" 
 />
    <glyph glyph-name="controlBS" horiz-adv-x="0" 
 />
    <glyph glyph-name="controlHT" unicode="&#x9;" horiz-adv-x="278" 
 />
    <glyph glyph-name="controlCR" unicode="&#xd;" horiz-adv-x="278" 
 />
    <glyph glyph-name="controlGS" horiz-adv-x="0" 
 />
    <glyph glyph-name="space" unicode=" " horiz-adv-x="278" 
 />
    <glyph glyph-name="exclam" unicode="!" horiz-adv-x="278" 
d="M84 178l53 314l48 222h67l-48 -223l-82 -313h-38zM23 0l23 106h85l-24 -106h-84z" />
    <glyph glyph-name="quotedbl" unicode="&#x22;" horiz-adv-x="370" 
d="M262 714h58v-243h-58v243zM137 714h58v-243h-58v243z" />
    <glyph glyph-name="numbersign" unicode="#" horiz-adv-x="556" 
d="M223 424l-22 -156h141l22 156h-141zM487 223h-101l-31 -223h-50l31 223h-141l-31 -223h-50l31 223h-110l10 45h106l22 156h-110l10 45h106l31 222h50l-31 -222h141l31 222h50l-31 -222h105l-10 -45h-101l-22 -156h105z" />
    <glyph glyph-name="dollar" unicode="$" horiz-adv-x="556" 
d="M505 506q-1 78 -34.5 115t-102.5 46l-58 -274l20 -6q46 -13 73.5 -24.5t58.5 -32t45.5 -51.5t14.5 -74q0 -25 -6 -51t-24.5 -57t-47.5 -55t-80.5 -40t-117.5 -16h-12q-9 0 -11 1l-18 -86h-45l20 91q-99 15 -153.5 75.5t-48.5 167.5h67q-7 -165 147 -186l63 296l-48 14
q-141 40 -141 166q0 105 78.5 154.5t191.5 49.5l11 52h45l-12 -56q94 -13 146.5 -66t46.5 -153h-68zM236 44q2 -1 15 -1q79 0 141 39.5t62 113.5q0 27 -10 48t-22.5 33.5t-38 24.5t-40.5 16.5t-46 13.5zM324 671q-79 0 -134.5 -34.5t-55.5 -108.5q0 -51 31 -75.5t89 -42.5
l14 -4z" />
    <glyph glyph-name="percent" unicode="%" horiz-adv-x="833" 
d="M581 30q43 0 74.5 32.5t44 74.5t12.5 85q0 97 -84 97q-42 0 -73 -34t-44 -77t-13 -84q0 -39 21.5 -66.5t61.5 -27.5zM581 -14q-65 0 -100 38t-35 102q0 58 19.5 111t63.5 90t103 37q62 0 98 -38.5t36 -100.5q0 -59 -19 -112t-62.5 -90t-103.5 -37zM203 372
q43 0 74.5 32.5t44 74.5t12.5 85q0 97 -84 97q-42 0 -73 -34t-44 -77t-13 -84q0 -39 21.5 -66.5t61.5 -27.5zM202 327q-65 0 -100 38.5t-35 102.5q0 58 19.5 111t63.5 90t103 37q62 0 98 -38.5t36 -100.5q0 -59 -19 -112t-62.5 -90.5t-103.5 -37.5zM674 723h55l-571 -754
h-54z" />
    <glyph glyph-name="ampersand" unicode="&#x26;" horiz-adv-x="611" 
d="M552 315q-23 -104 -85 -187l83 -128h-71l-54 84q-78 -98 -207 -98q-91 0 -146 47t-55 135q0 30 8 56.5t25 48t33.5 37.5t45 33t47.5 27t51 25q-2 3 -10.5 16t-10.5 16t-9 14.5t-9 16t-7.5 15t-7.5 16.5l-5.5 16.5t-5 18t-2.5 17.5t-1 20q0 68 49.5 110.5t122.5 42.5
q64 0 110.5 -35t46.5 -95q0 -30 -12.5 -58t-27 -46t-45 -40.5t-46 -32t-51.5 -29.5l128 -199q33 42 55 136h63zM255 351q-38 -18 -61.5 -31.5t-53.5 -37t-45 -53.5t-15 -65q0 -52 39 -89t94 -37q110 0 183 92zM278 420q3 2 19.5 11t22.5 12.5t21 13t22 15.5t19 16t18 18.5
t12.5 19t9.5 22.5t3 24q0 43 -27 66t-69 23q-44 0 -75.5 -29t-31.5 -73q0 -23 11 -51.5t18.5 -42t26.5 -45.5z" />
    <glyph glyph-name="quotesingle" unicode="'" horiz-adv-x="278" 
d="M153 714h58v-243h-58v243z" />
    <glyph glyph-name="parenleft" unicode="(" horiz-adv-x="259" 
d="M113 -190q-73 207 -64 378q15 296 244 541h52q-121 -148 -179.5 -295.5t-58.5 -332.5q0 -123 49 -291h-43z" />
    <glyph glyph-name="parenright" unicode=")" horiz-adv-x="259" 
d="M130 729q73 -207 64 -379q-15 -288 -243 -540h-52q120 145 178.5 293.5t58.5 333.5q0 124 -49 292h43z" />
    <glyph glyph-name="asterisk" unicode="*" horiz-adv-x="352" 
d="M72 616l21 35l102 -57l26 120h39l-25 -124l116 24l5 -38l-115 -25l60 -102l-38 -19l-59 106l-86 -92l-28 27l83 90z" />
    <glyph glyph-name="plus" unicode="+" horiz-adv-x="600" 
d="M274 503h53v-225h225v-53h-225v-225h-53v225h-225v53h225v225z" />
    <glyph glyph-name="comma" unicode="," horiz-adv-x="278" 
d="M-3 -96q21 6 35.5 23t20 31.5t12.5 41.5h-42l24 106h84l-33 -139q-12 -46 -36 -68.5t-73 -34.5z" />
    <glyph glyph-name="hyphen" unicode="-" horiz-adv-x="370" 
d="M50 304h251l-12 -58h-251z" />
    <glyph glyph-name="period" unicode="." horiz-adv-x="278" 
d="M23 0l23 106h85l-24 -106h-84z" />
    <glyph glyph-name="slash" unicode="/" horiz-adv-x="333" 
d="M-19 -14h-59l410 743h59z" />
    <glyph glyph-name="zero" unicode="0" horiz-adv-x="556" 
d="M468 468q0 185 -142 185q-60 0 -108.5 -47.5t-75 -118t-40.5 -139.5t-14 -124q0 -186 143 -186q61 0 109.5 47.5t74.5 118t39.5 139.5t13.5 125zM216 -14q-54 0 -92.5 21.5t-59 59.5t-30 81.5t-9.5 95.5q0 55 11 115.5t35.5 123t59 112t87.5 80.5t115 31q105 0 151.5 -68
t46.5 -177q0 -76 -17.5 -155t-53 -152.5t-99 -120.5t-145.5 -47z" />
    <glyph glyph-name="one" unicode="1" horiz-adv-x="556" 
d="M147 575q159 26 222 125h48l-150 -700h-63l124 581q-68 -36 -194 -56z" />
    <glyph glyph-name="two" unicode="2" horiz-adv-x="556" 
d="M80 466q4 105 71 172.5t171 67.5q86 0 143.5 -48t57.5 -132t-52.5 -141t-149.5 -110q-15 -9 -52 -29.5t-54.5 -31t-47 -31t-46 -37t-33.5 -40t-26 -48.5h391l-11 -58h-452q3 61 31 110.5t69.5 83t91 63t98.5 56.5t89.5 56t65.5 69.5t25 89.5q0 61 -41.5 93t-102.5 32
q-78 0 -123.5 -53.5t-49.5 -133.5h-63z" />
    <glyph glyph-name="three" unicode="3" horiz-adv-x="556" 
d="M72 222q-4 -84 35.5 -134t118.5 -50t134 49t55 125q0 67 -43.5 98t-112.5 31h-34l11 53h41q181 0 181 137q0 57 -39.5 89.5t-96.5 32.5q-76 0 -119.5 -43.5t-55.5 -122.5h-63q19 104 78.5 161.5t161.5 57.5q83 0 140 -45.5t57 -127.5q0 -65 -41 -110.5t-106 -57.5v-2
q50 -12 77 -51.5t27 -95.5q0 -106 -72.5 -168t-174.5 -62q-118 0 -172 63t-50 173h63z" />
    <glyph glyph-name="four" unicode="4" horiz-adv-x="556" 
d="M439 700h56l-102 -473h106l-12 -53h-105l-38 -174h-63l38 174h-319l10 59zM72 227h258l79 363l-2 2z" />
    <glyph glyph-name="five" unicode="5" horiz-adv-x="556" 
d="M175 691h357l-14 -58h-306l-75 -224h2q55 55 154 55q88 0 141 -58.5t53 -147.5q0 -121 -74 -196.5t-193 -75.5q-99 0 -155 57t-50 155h63q-7 -75 33 -117.5t116 -42.5q87 0 142 61.5t55 147.5q0 75 -38.5 119.5t-114.5 44.5q-110 0 -155 -81l-56 5z" />
    <glyph glyph-name="six" unicode="6" horiz-adv-x="556" 
d="M483 523q-4 130 -135 130q-43 0 -79.5 -20.5t-60 -49.5t-44 -73t-30.5 -77t-21 -76h2q29 47 77.5 73t106.5 26q90 0 145 -60.5t55 -151.5q0 -114 -70.5 -186t-184.5 -72q-103 0 -155.5 64t-52.5 171q0 170 70 313q89 172 246 172q92 0 143 -46t51 -137h-63zM436 252
q0 69 -44.5 110t-114.5 41q-78 0 -128 -60.5t-50 -139.5q0 -71 41.5 -118t111.5 -47q86 0 135 63t49 151z" />
    <glyph glyph-name="seven" unicode="7" horiz-adv-x="556" 
d="M124 691h447l-13 -54q-145 -144 -248 -321q-92 -162 -139 -316h-70q51 168 158 339q99 159 232 294h-381z" />
    <glyph glyph-name="eight" unicode="8" horiz-adv-x="556" 
d="M317 653q-62 0 -106.5 -36.5t-44.5 -97.5q0 -60 40.5 -90.5t101.5 -30.5q65 0 108 35.5t43 99.5q0 60 -39.5 90t-102.5 30zM490 202q0 -100 -74.5 -158t-175.5 -58q-96 0 -159 50.5t-63 147.5q0 82 52.5 134.5t132.5 61.5v2q-47 15 -73.5 53t-26.5 87q0 84 62 134t148 50
q89 0 149 -41.5t60 -127.5q0 -65 -41.5 -111.5t-106.5 -56.5v-1q56 -17 86 -61.5t30 -104.5zM81 183q0 -72 46 -108.5t119 -36.5q78 0 129.5 45.5t51.5 121.5q0 73 -47 106.5t-125 33.5q-74 0 -124 -44.5t-50 -117.5z" />
    <glyph glyph-name="nine" unicode="9" horiz-adv-x="556" 
d="M71 168q4 -130 135 -130q43 0 79.5 20.5t60 49.5t44 73t30.5 77t21 76h-2q-29 -47 -77.5 -73t-106.5 -26q-90 0 -145 60.5t-55 151.5q0 114 70.5 186.5t184.5 72.5q102 0 155 -65t53 -171q0 -170 -70 -313q-88 -171 -246 -171q-92 0 -143 45.5t-51 136.5h63zM302 653
q-86 0 -135 -63t-49 -151q0 -69 44.5 -110t114.5 -41q78 0 128 60.5t50 139.5q0 71 -41.5 118t-111.5 47z" />
    <glyph glyph-name="colon" unicode=":" horiz-adv-x="278" 
d="M113 394l23 106h85l-24 -106h-84zM23 0l23 106h85l-24 -106h-84z" />
    <glyph glyph-name="semicolon" unicode=";" horiz-adv-x="278" 
d="M113 394l23 106h85l-24 -106h-84zM-3 -96q21 6 35.5 23t20 31.5t12.5 41.5h-42l24 106h84l-33 -139q-12 -46 -36 -68.5t-73 -34.5z" />
    <glyph glyph-name="less" unicode="&#x3c;" horiz-adv-x="600" 
d="M554 -7l-508 233v54l508 234v-55l-446 -206l446 -206v-54z" />
    <glyph glyph-name="equal" unicode="=" horiz-adv-x="600" 
d="M552 128h-503v53h503v-53zM552 325h-503v53h503v-53z" />
    <glyph glyph-name="greater" unicode="&#x3e;" horiz-adv-x="600" 
d="M492 253l-446 206v55l508 -234v-54l-508 -233v54z" />
    <glyph glyph-name="question" unicode="?" horiz-adv-x="537" 
d="M170 106h85l-24 -106h-84zM195 182q6 43 16 72t32.5 54.5t39.5 39.5t60 45q114 75 114 159q0 60 -36.5 92t-97.5 32q-76 0 -121.5 -51t-51.5 -132h-63q4 109 68 172.5t171 63.5q81 0 137.5 -44t56.5 -124q0 -39 -12.5 -72t-38 -60.5t-48.5 -46t-61 -43.5
q-49 -31 -69 -63.5t-33 -93.5h-63z" />
    <glyph glyph-name="at" unicode="@" horiz-adv-x="800" 
d="M614 544l-96 -288q-25 -83 13 -83q65 0 117 80.5t52 167.5q0 120 -82 191.5t-202 71.5q-138 0 -227 -95.5t-89 -235.5q0 -136 91 -229.5t227 -93.5q74 0 144.5 36t113.5 97h51q-46 -82 -130 -129.5t-179 -47.5q-161 0 -266 107t-105 267q0 156 106.5 262.5t260.5 106.5
q146 0 242.5 -87t96.5 -224q0 -117 -72.5 -203.5t-159.5 -86.5q-27 0 -45.5 17.5t-21.5 49.5h-2q-64 -66 -127 -66q-60 0 -96 42t-36 103q0 110 67.5 199.5t169.5 89.5q74 0 106 -84l25 65h53zM426 510q-71 0 -120.5 -76.5t-49.5 -154.5q0 -44 23 -70.5t60 -26.5
q64 0 115 81t51 154q0 35 -25 64t-54 29z" />
    <glyph glyph-name="A" unicode="A" horiz-adv-x="630" 
d="M167 280h282l-61 376h-2zM362 714h74l130 -714h-71l-36 222h-326l-132 -222h-75z" />
    <glyph glyph-name="B" unicode="B" horiz-adv-x="667" 
d="M161 401h225q76 2 127.5 38t51.5 105q0 58 -35.5 85t-93.5 27h-220zM160 714h277q88 0 142 -39t54 -124q0 -71 -42 -118.5t-113 -59.5v-2q56 -7 89 -48t33 -99q0 -61 -23.5 -105.5t-64.5 -69.5t-90.5 -37t-108.5 -12h-308zM86 58h242q83 0 143.5 40t60.5 118
q0 127 -169 127h-215z" />
    <glyph glyph-name="C" unicode="C" horiz-adv-x="704" 
d="M620 488q-2 89 -54.5 136t-144.5 47q-78 0 -140 -33t-100.5 -88.5t-58.5 -124t-20 -142.5q0 -110 63 -175t173 -65q85 0 150.5 54t91.5 147h68q-25 -117 -107 -187.5t-214 -70.5q-138 0 -215.5 82.5t-77.5 220.5q0 116 45 215t135 162t208 63q117 0 190.5 -62.5
t75.5 -178.5h-68z" />
    <glyph glyph-name="D" unicode="D" horiz-adv-x="685" 
d="M160 714h230q146 0 209 -74t63 -212q0 -115 -43 -210.5t-134 -156.5t-214 -61h-266zM86 58h172q86 -1 152 30.5t105.5 86.5t59 122.5t19.5 143.5q0 215 -215 215h-163z" />
    <glyph glyph-name="E" unicode="E" 
d="M157 714h479l-13 -58h-410l-55 -258h383l-13 -58h-382l-60 -282h420l-13 -58h-488z" />
    <glyph glyph-name="F" unicode="F" horiz-adv-x="537" 
d="M158 714h457l-12 -58h-389l-55 -258h345l-11 -58h-347l-73 -340h-68z" />
    <glyph glyph-name="G" unicode="G" horiz-adv-x="741" 
d="M638 494q-4 88 -62 132.5t-159 44.5q-91 0 -164.5 -56t-112 -143t-38.5 -184q0 -113 59.5 -179t171.5 -66q114 0 190 73t95 189h-246l14 58h305l-75 -363h-46l12 120h-2q-84 -134 -259 -134q-137 0 -212 79.5t-75 218.5q0 118 43 217.5t133.5 163.5t212.5 64
q135 0 207 -61t76 -174h-68z" />
    <glyph glyph-name="H" unicode="H" horiz-adv-x="704" 
d="M157 714h68l-66 -310h413l66 310h68l-152 -714h-68l74 346h-413l-74 -346h-68z" />
    <glyph glyph-name="I" unicode="I" horiz-adv-x="222" 
d="M156 714h68l-151 -714h-68z" />
    <glyph glyph-name="J" unicode="J" horiz-adv-x="500" 
d="M57 229q-9 -52 -9 -88q0 -51 34.5 -74.5t89.5 -23.5q71 0 103.5 42.5t49.5 119.5l109 509h68l-114 -534q-21 -98 -72 -146t-149 -48q-86 0 -136 39t-50 123q0 42 9 81h67z" />
    <glyph glyph-name="K" unicode="K" horiz-adv-x="648" 
d="M157 714h68l-82 -381l2 -2l461 383h95l-366 -298l255 -416h-78l-227 374l-159 -127l-53 -247h-68z" />
    <glyph glyph-name="L" unicode="L" horiz-adv-x="537" 
d="M159 714h68l-141 -656h395l-14 -58h-462z" />
    <glyph glyph-name="M" unicode="M" horiz-adv-x="852" 
d="M157 714h99l111 -641l392 641h99l-153 -714h-67l147 646h-2l-395 -646h-68l-115 656h-2l-135 -656h-66z" />
    <glyph glyph-name="N" unicode="N" horiz-adv-x="704" 
d="M154 714h77l285 -638h2l132 638h66l-156 -714h-75l-285 638h-2l-133 -638h-65z" />
    <glyph glyph-name="O" unicode="O" horiz-adv-x="741" 
d="M327 -14q-138 0 -215.5 82.5t-77.5 220.5q0 116 45 215t135 162t208 63q136 0 216 -81.5t80 -217.5q0 -88 -26 -167.5t-74.5 -141.5t-123.5 -98.5t-167 -36.5zM650 413q0 116 -58 187t-171 71q-78 0 -140 -33t-100.5 -88.5t-58.5 -124t-20 -142.5q0 -110 63 -175t173 -65
q93 0 166 56t109.5 139.5t36.5 174.5z" />
    <glyph glyph-name="P" unicode="P" horiz-adv-x="630" 
d="M152 364h241q77 0 126.5 44t49.5 120q0 128 -145 128h-209zM159 714h288q83 0 136.5 -47.5t53.5 -128.5q0 -109 -68 -170.5t-178 -61.5h-252l-66 -306h-68z" />
    <glyph glyph-name="Q" unicode="Q" horiz-adv-x="741" 
d="M421 190l90 -84q66 52 102.5 134.5t36.5 172.5q0 116 -58 187t-171 71q-78 0 -140 -33t-100.5 -88.5t-58.5 -124t-20 -142.5q0 -110 63 -175t173 -65q66 0 124 32l-80 74zM649 -22l-40 -41l-100 93q-77 -44 -182 -44q-138 0 -215.5 82.5t-77.5 220.5q0 116 45 215
t135 162t208 63q136 0 216 -81.5t80 -217.5q0 -113 -41.5 -209.5t-118.5 -158.5z" />
    <glyph glyph-name="R" unicode="R" horiz-adv-x="648" 
d="M153 375h241q82 0 134 40t52 116q0 64 -28.5 94.5t-93.5 30.5h-245zM157 714h304q91 0 139 -45.5t48 -132.5q0 -79 -51 -134t-130 -61v-2q91 -20 91 -128q0 -26 -5 -75.5t-5 -73.5q0 -46 12 -62h-70q-10 6 -10 73q0 21 5 64t5 64q0 116 -98 116h-252l-67 -317h-68z" />
    <glyph glyph-name="S" unicode="S" horiz-adv-x="630" 
d="M539 506q0 90 -46.5 127.5t-142.5 37.5q-74 0 -128 -36.5t-54 -106.5q0 -51 31 -75.5t89 -42.5l76 -23q46 -13 73.5 -24.5t58.5 -32t45.5 -51.5t14.5 -74q0 -25 -6 -51t-24.5 -57t-47.5 -55t-80.5 -40t-117.5 -16q-127 0 -201 62.5t-68 186.5h68q-6 -100 49 -146t157 -46
q79 0 141 39.5t62 113.5q0 18 -5 34t-11 27t-20 22t-22.5 17t-28.5 13.5t-28.5 10.5t-31.5 9.5t-30 8.5l-70 21q-141 40 -141 166q0 101 74 152.5t179 51.5q119 0 189.5 -53.5t64.5 -169.5h-68z" />
    <glyph glyph-name="T" unicode="T" horiz-adv-x="556" 
d="M81 714h558l-12 -58h-245l-143 -656h-68l143 656h-245z" />
    <glyph glyph-name="U" unicode="U" horiz-adv-x="704" 
d="M150 714h68l-95 -454q-7 -25 -7 -62q-4 -75 50 -115t145 -40q192 0 231 188l101 483h68l-102 -488q-50 -240 -307 -240q-67 0 -122 19t-93.5 66.5t-38.5 118.5q0 24 6 58z" />
    <glyph glyph-name="V" unicode="V" horiz-adv-x="593" 
d="M64 714h70l91 -656h2l366 656h74l-412 -714h-79z" />
    <glyph glyph-name="W" unicode="W" horiz-adv-x="907" 
d="M71 714h68l37 -635h2l304 635h82l49 -629h2l292 629h71l-344 -714h-74l-47 649h-2l-312 -649h-75z" />
    <glyph glyph-name="X" unicode="X" 
d="M260 372l-176 342h75l148 -300l259 300h81l-310 -353l186 -361h-72l-159 318l-280 -318h-79z" />
    <glyph glyph-name="Y" unicode="Y" 
d="M598 714h83l-358 -426l-63 -288h-69l65 295l-190 419h72l161 -362z" />
    <glyph glyph-name="Z" unicode="Z" 
d="M111 714h515l-12 -57l-571 -599h476l-13 -58h-555l13 60l568 596h-434z" />
    <glyph glyph-name="bracketleft" unicode="[" horiz-adv-x="241" 
d="M-27 -190l194 919h163l-11 -53h-98l-175 -813h97l-10 -53h-160z" />
    <glyph glyph-name="backslash" unicode="\" horiz-adv-x="333" 
d="M-57 729h58l411 -743h-59z" />
    <glyph glyph-name="bracketright" unicode="]" horiz-adv-x="241" 
d="M284 729l-195 -919h-162l11 53h97l175 813h-97l10 53h161z" />
    <glyph glyph-name="asciicircum" unicode="^" horiz-adv-x="600" 
d="M44 238l230 453h52l230 -453h-57l-200 390l-197 -390h-58z" />
    <glyph glyph-name="underscore" unicode="_" horiz-adv-x="500" 
d="M0 -124v50h500v-50h-500z" />
    <glyph glyph-name="grave" unicode="`" horiz-adv-x="185" 
d="M141 729l82 -144h-50l-106 144h74z" />
    <glyph glyph-name="a" unicode="a" horiz-adv-x="519" 
d="M62 362q11 84 71 126.5t147 42.5q41 0 78.5 -8.5t69 -36t31.5 -70.5q0 -40 -32 -174q-7 -35 -15 -70t-11.5 -49.5t-5.5 -29t-2 -25.5q0 -21 33 -21q7 0 25 2l-9 -49q-28 -5 -52 -5q-54 0 -55 55q0 10 2 28l-2 2q-26 -44 -75 -69t-104 -25q-75 0 -119.5 35t-44.5 107
q0 75 48 110.5t130 49.5q33 5 88 7t76 8q33 9 47.5 30.5t14.5 70.5q0 74 -109 74q-144 0 -162 -116h-63zM374 276l-2 2q-5 -6 -14 -10.5t-17.5 -7.5t-22 -5t-20.5 -2.5t-22 -2t-18 -1.5q-27 -2 -36.5 -2.5t-37 -4t-40 -8t-33.5 -13.5t-31 -20.5t-18 -29.5t-8 -40
q0 -47 33 -70t82 -23q74 0 122 40t63 111z" />
    <glyph glyph-name="b" unicode="b" 
d="M141 714h63l-61 -289h2q60 106 178 106q96 0 146 -59.5t50 -155.5q0 -81 -30.5 -155t-94.5 -124.5t-148 -50.5q-67 0 -113.5 34.5t-59.5 97.5h-2l-25 -118h-56zM238 38q68 0 119 44.5t75 107t24 128.5q0 75 -36.5 117.5t-111.5 42.5q-50 0 -91.5 -27.5t-66.5 -70.5
t-39 -91.5t-14 -93.5q0 -69 36 -113t105 -44z" />
    <glyph glyph-name="c" unicode="c" horiz-adv-x="519" 
d="M424 355q4 56 -31.5 89.5t-92.5 33.5q-72 0 -124 -43t-75.5 -105t-23.5 -132q0 -72 36.5 -116t107.5 -44q61 0 105 35t65 94h63q-59 -181 -241 -181q-95 0 -147 57t-52 155q0 83 32.5 158t98 125t149.5 50q89 0 142 -44.5t51 -131.5h-63z" />
    <glyph glyph-name="d" unicode="d" 
d="M438 0h-61l23 93h-2q-35 -54 -79 -80.5t-109 -26.5q-97 0 -146.5 56t-49.5 154q0 81 33.5 156.5t99.5 127t149 51.5q136 0 168 -112h2l62 295h63zM216 38q68 0 121 47t78.5 112t25.5 132q0 70 -38 109.5t-106 39.5q-52 0 -95 -27t-69.5 -69.5t-41 -92t-14.5 -97.5
q0 -69 35 -111.5t104 -42.5z" />
    <glyph glyph-name="e" unicode="e" horiz-adv-x="519" 
d="M425 294q0 8 0.5 21t0.5 19q0 66 -37.5 105t-103.5 39q-74 0 -127 -54t-70 -130h337zM80 241q-3 -18 -3 -40q0 -73 38 -118t112 -45q62 0 106.5 35t62.5 93h63q-54 -180 -235 -180q-102 0 -156 57.5t-54 160.5q0 84 32 157.5t97 121.5t150 48q92 0 144 -55t52 -146
q0 -50 -5 -89h-404z" />
    <glyph glyph-name="f" unicode="f" horiz-adv-x="259" 
d="M284 463h-101l-102 -463h-63l102 463h-90l12 53h89l16 75q13 60 45 91.5t93 31.5q44 0 65 -7l-11 -52q-26 6 -39 6q-43 0 -62.5 -16.5t-28.5 -56.5l-15 -72h102z" />
    <glyph glyph-name="g" unicode="g" horiz-adv-x="556" 
d="M438 54q-29 -139 -86 -199t-173 -60q-87 0 -141.5 40t-56.5 127h62q0 -61 41 -87.5t104 -26.5q33 0 60 9t46.5 27.5t33 36.5t24 46.5t16 47t12.5 49t10 40.5l-2 2q-26 -45 -74.5 -70t-101.5 -25q-90 0 -140.5 59t-50.5 151q0 78 31 147.5t92.5 116t140.5 46.5
q62 0 111 -31.5t58 -89.5h2l22 106h58zM84 226q0 -70 35.5 -116t103.5 -46q90 0 148 80.5t58 175.5q0 73 -34 115.5t-107 42.5q-91 0 -147.5 -78.5t-56.5 -173.5z" />
    <glyph glyph-name="h" unicode="h" horiz-adv-x="537" 
d="M143 714h63l-63 -292h2q28 48 76.5 78.5t104.5 30.5q72 0 114 -34t42 -105q0 -18 -8 -61l-71 -331h-63l72 333q7 28 7 52q0 48 -30.5 70.5t-77.5 22.5q-69 0 -125.5 -58t-76.5 -155l-57 -265h-62z" />
    <glyph glyph-name="i" unicode="i" horiz-adv-x="185" 
d="M143 714h63l-22 -101h-63zM100 516h63l-111 -516h-62z" />
    <glyph glyph-name="j" unicode="j" horiz-adv-x="185" 
d="M142 714h64l-22 -101h-63zM100 516h63l-129 -603q-13 -53 -41 -78t-85 -25q-8 0 -23 2.5t-21 2.5l12 52q4 0 16.5 -2t19.5 -2q46 0 61 52z" />
    <glyph glyph-name="k" unicode="k" horiz-adv-x="463" 
d="M141 714h63l-96 -448l2 -2l302 252h84l-244 -199l156 -317h-69l-137 279l-110 -92l-40 -187h-62z" />
    <glyph glyph-name="l" unicode="l" horiz-adv-x="185" 
d="M143 714h63l-154 -714h-62z" />
    <glyph glyph-name="m" unicode="m" horiz-adv-x="833" 
d="M100 516h58l-20 -90l2 -2q29 47 77.5 77t104.5 30q114 0 125 -110h2q31 50 78 80t103 30q72 0 107.5 -36.5t35.5 -99.5q0 -22 -7 -59l-72 -336h-63l73 338q6 27 6 52q0 40 -24.5 64t-73.5 24q-76 0 -119.5 -64t-68.5 -176l-51 -238h-63l72 336q6 26 6 50q0 41 -21.5 66.5
t-65.5 25.5q-67 0 -119.5 -61.5t-73.5 -154.5l-56 -262h-62z" />
    <glyph glyph-name="n" unicode="n" horiz-adv-x="537" 
d="M100 516h58l-18 -94h2q31 48 80 78.5t104 30.5q72 0 114 -34t42 -105q0 -18 -8 -61l-71 -331h-63l72 333q7 28 7 52q0 48 -30.5 70.5t-77.5 22.5q-69 0 -125.5 -58t-76.5 -155l-57 -265h-62z" />
    <glyph glyph-name="o" unicode="o" horiz-adv-x="556" 
d="M232 38q66 0 115.5 45.5t72.5 107.5t23 125q0 74 -39 118t-113 44q-66 0 -116.5 -43.5t-74 -104.5t-23.5 -124q0 -78 39.5 -123t115.5 -45zM302 531q92 0 148 -54t56 -148q0 -90 -30.5 -166t-97.5 -126.5t-158 -50.5q-99 0 -152.5 57t-53.5 157q0 86 33 160.5t100 122.5
t155 48z" />
    <glyph glyph-name="p" unicode="p" 
d="M106 516h57l-20 -93h2q35 54 79 81t109 27q96 0 146 -57t50 -154q0 -81 -33.5 -156.5t-99.5 -126.5t-149 -51q-66 0 -111 28.5t-54 88.5h-2l-63 -293h-62zM327 478q-68 0 -121 -47t-78.5 -112t-25.5 -132q0 -70 38 -109.5t106 -39.5q52 0 95 27t69.5 69.5t41 92
t14.5 97.5q0 69 -35 111.5t-104 42.5z" />
    <glyph glyph-name="q" unicode="q" 
d="M402 -190h-63l61 281h-2q-64 -105 -180 -105q-96 0 -146 58.5t-50 155.5q0 81 30.5 155.5t94.5 125t148 50.5q66 0 113.5 -32t63.5 -86h2l22 103h58zM303 478q-68 0 -119 -44.5t-75 -107t-24 -128.5q0 -75 36.5 -117.5t111.5 -42.5q50 0 91.5 27.5t66.5 70.5t39 91.5
t14 93.5q0 69 -36 113t-105 44z" />
    <glyph glyph-name="r" unicode="r" horiz-adv-x="315" 
d="M100 516h57l-26 -119h2q67 126 187 126h17h9q5 0 8 -1l-14 -63q-6 0 -18 0.5t-18 0.5q-78 -2 -127 -55.5t-67 -134.5l-58 -270h-62z" />
    <glyph glyph-name="s" unicode="s" horiz-adv-x="481" 
d="M62 168q0 -70 41.5 -100t104.5 -30q49 0 89.5 24.5t40.5 70.5q-1 37 -29.5 61t-69 38.5t-81 31t-68.5 48t-29 78.5q0 69 59 105t132 36q86 0 136 -40t48 -126h-63q4 56 -30.5 84.5t-90.5 28.5q-51 0 -89.5 -20t-38.5 -68q0 -33 26.5 -52.5t82.5 -42.5q6 -3 27 -11
t30 -11.5t27 -12.5t27 -16t22 -18.5t19 -22.5t11 -26.5t5 -33.5q0 -81 -61.5 -119t-146.5 -38q-84 0 -140 45t-53 137h62z" />
    <glyph glyph-name="t" unicode="t" horiz-adv-x="296" 
d="M43 516h93l33 156h63l-33 -156h103l-10 -53h-105l-71 -331q-7 -34 -7 -49q0 -36 33 -36q36 0 74 6l-11 -54q-28 -4 -64 -4q-95 0 -95 73q0 21 7 53l71 342h-93z" />
    <glyph glyph-name="u" unicode="u" horiz-adv-x="537" 
d="M402 0h-58l18 94h-2q-31 -48 -79.5 -78t-104.5 -30q-156 0 -156 138q0 18 8 61l71 331h63l-72 -333q-7 -28 -7 -52q0 -48 30.5 -70.5t77.5 -22.5q70 0 125 58t77 155l57 265h63z" />
    <glyph glyph-name="v" unicode="v" horiz-adv-x="463" 
d="M35 516h66l61 -445h2l242 445h69l-291 -516h-68z" />
    <glyph glyph-name="w" unicode="w" horiz-adv-x="741" 
d="M30 516h66l41 -440h2l213 440h74l35 -436h2l219 436h67l-271 -516h-68l-37 433h-2l-212 -433h-69z" />
    <glyph glyph-name="x" unicode="x" horiz-adv-x="463" 
d="M188 272l-121 244h72l94 -203l178 203h76l-227 -250l137 -266h-72l-110 225l-198 -225h-74z" />
    <glyph glyph-name="y" unicode="y" horiz-adv-x="463" 
d="M-42 -134q27 -3 53 -3q48 0 81 56l47 81l-95 516h66l74 -438h2l238 438h68l-367 -637q-41 -69 -125 -69q-9 0 -27.5 2.5t-26.5 2.5z" />
    <glyph glyph-name="z" unicode="z" horiz-adv-x="426" 
d="M55 516h388l-11 -50l-401 -413h331l-11 -53h-408l11 51l398 412h-308z" />
    <glyph glyph-name="braceleft" unicode="{" horiz-adv-x="333" 
d="M138 -190q-31 0 -54 22.5t-23 62.5q0 12 5 40l31 147q11 52 11 84q0 76 -50 76l11 53q74 0 106 160l31 149q11 57 41.5 91t72.5 34h50l-11 -53h-23q-26 0 -42.5 -19.5t-29.5 -83.5l-29 -141q-7 -38 -22.5 -69.5t-33.5 -50.5t-29.5 -28t-20.5 -14v-2q6 -4 14.5 -14t18 -35
t9.5 -56q0 -20 -7 -57l-27 -128q-13 -65 -13 -71q0 -44 39 -44h26l-11 -53h-40z" />
    <glyph glyph-name="bar" unicode="|" horiz-adv-x="222" 
d="M85 786h53v-999h-53v999z" />
    <glyph glyph-name="braceright" unicode="}" horiz-adv-x="333" 
d="M171 729q31 0 54 -22.5t23 -62.5q0 -12 -5 -40l-31 -148q-11 -52 -11 -84q0 -76 50 -76l-11 -53q-74 0 -106 -160l-31 -148q-11 -58 -41 -91.5t-72 -33.5h-50l11 53h23q25 0 41.5 19.5t29.5 83.5l29 140q7 38 22.5 69.5t33.5 50.5t29.5 28t20.5 14v2q-6 4 -14.5 14
t-18 35t-9.5 56q0 20 7 57l27 129q13 65 13 71q0 44 -39 44h-26l11 53h40z" />
    <glyph glyph-name="asciitilde" unicode="~" horiz-adv-x="600" 
d="M531 279q-27 -41 -55 -63.5t-70 -22.5t-110 33q-70 32 -107 32q-52 0 -84 -69l-36 36q42 86 125 86q41 0 115 -32q76 -33 98 -33q27 0 46.5 18t41.5 51z" />
    <glyph glyph-name="uni007F.controlDEL" horiz-adv-x="0" 
 />
    <glyph glyph-name="nbspace" unicode="&#xa0;" horiz-adv-x="278" 
 />
    <glyph glyph-name="exclamdown" unicode="&#xa1;" horiz-adv-x="278" 
d="M165 345l-54 -313l-46 -222h-66l45 224l84 311h37zM119 410l23 106h85l-24 -106h-84z" />
    <glyph glyph-name="cent" unicode="&#xa2;" horiz-adv-x="556" 
d="M211 -116h-39l23 106q-76 10 -117.5 65.5t-41.5 142.5q0 82 31.5 156.5t96 125t148.5 51.5l19 87h38l-19 -89q75 -9 118 -52.5t41 -121.5h-63q4 52 -26 85t-81 38l-94 -440q61 1 104 35.5t64 93.5h63q-59 -181 -241 -181h-2zM300 478q-65 -6 -112 -50t-68 -104t-21 -126
q0 -62 27 -103.5t80 -52.5z" />
    <glyph glyph-name="sterling" unicode="&#xa3;" horiz-adv-x="556" 
d="M43 362h70q-26 75 -26 130q0 110 68.5 173.5t170.5 63.5q103 0 162.5 -64.5t51.5 -166.5h-63q6 78 -33 128t-114 50q-78 0 -129 -45.5t-51 -133.5q0 -68 26 -135h158l-6 -34h-143q12 -43 12 -78q0 -30 -10 -56.5t-34.5 -54t-37.5 -40t-47 -41.5l2 -2q51 23 105 23
q29 0 80 -20q55 -21 85 -21q36 0 63 14t59 45l24 -50q-36 -34 -72.5 -47.5t-89.5 -13.5q-26 0 -87 20t-94 20q-51 0 -123 -38l-23 54q41 34 66 59t48 67t23 85q0 22 -11 75h-87z" />
    <glyph glyph-name="currency" unicode="&#xa4;" horiz-adv-x="556" 
d="M93 346q0 -76 54.5 -130.5t130.5 -54.5t130.5 54.5t54.5 130.5t-54.5 130.5t-130.5 54.5t-130.5 -54.5t-54.5 -130.5zM86 192q-56 65 -56 154q0 87 55 155l-55 55l38 38l55 -55q68 55 155 55t155 -55l55 55l38 -38l-55 -55q55 -68 55 -155t-55 -155l55 -55l-38 -38
l-56 56q-67 -56 -154 -56q-91 0 -155 55l-55 -55l-38 38z" />
    <glyph glyph-name="yen" unicode="&#xa5;" horiz-adv-x="556" 
d="M633 714l-281 -365h111l-10 -45h-136l-12 -16l-15 -67h146l-10 -45h-146l-38 -176h-63l39 176h-132l10 45h132l16 74l-3 9h-128l10 45h100l-139 365h64l136 -365l274 365h75z" />
    <glyph glyph-name="brokenbar" unicode="&#xa6;" horiz-adv-x="222" 
d="M85 661h53v-250h-53v250zM85 161h53v-249h-53v249z" />
    <glyph glyph-name="section" unicode="&#xa7;" horiz-adv-x="556" 
d="M446 554q0 56 -26.5 89t-82.5 33q-44 0 -77.5 -23t-33.5 -73q0 -30 26 -65t63.5 -68.5t75 -68.5t63.5 -76.5t26 -81.5q0 -65 -39 -106.5t-104 -49.5q32 -42 32 -85q0 -71 -54.5 -109.5t-128.5 -38.5q-81 0 -131.5 52t-44.5 130h63q-6 -57 28.5 -93t93.5 -36q43 0 77 23.5
t34 63.5q0 12 -3 24t-7 21.5t-13.5 23t-15 21t-20.5 22.5l-21.5 21.5t-25 24.5t-24.5 24q-33 32 -49 49t-39 45.5t-33 55t-10 53.5q0 60 41.5 100.5t102.5 49.5q-26 40 -26 77q0 66 49.5 106t122.5 40q84 0 130 -43t44 -132h-63zM417 209q0 57 -80 137q-21 21 -66.5 63
t-57.5 56q-37 0 -71 -32t-34 -77q0 -51 91 -142q102 -102 111 -112q45 6 76 34.5t31 72.5z" />
    <glyph glyph-name="dieresis" unicode="&#xa8;" horiz-adv-x="185" 
d="M56 703h64l-20 -102h-63zM215 703h64l-20 -102h-63z" />
    <glyph glyph-name="copyright" unicode="&#xa9;" horiz-adv-x="800" 
d="M543 435q-9 46 -44.5 75.5t-88.5 30.5q-78 0 -121.5 -51.5t-43.5 -132.5t43.5 -132.5t121.5 -51.5q53 0 88.5 29.5t44.5 76.5h51q-9 -71 -60.5 -111t-124.5 -40q-100 0 -158.5 64t-58.5 165t58.5 165t158.5 64q73 0 124.5 -40t60.5 -111h-51zM714 357q0 134 -90 226.5
t-224 92.5q-135 0 -224.5 -92t-89.5 -227t89.5 -227t224.5 -92q134 0 224 92.5t90 226.5zM772 357q0 -158 -107 -264.5t-265 -106.5t-265 106.5t-107 264.5q0 157 107 264.5t265 107.5t265 -107.5t107 -264.5z" />
    <glyph glyph-name="ordfeminine" unicode="&#xaa;" horiz-adv-x="311" 
d="M70 599q16 107 148 107q44 0 80 -17t36 -57q0 -41 -15 -86q-27 -106 -27 -117q0 -13 21 -13h8q6 0 8 1l-6 -37q-15 -3 -33 -3q-37 0 -37 35q0 6 3 17h-3q-17 -29 -48.5 -45t-67.5 -16q-113 0 -113 91q0 48 31 70t86 32q15 1 39.5 2.5t37 2.5t28.5 4.5t23.5 9.5t13 17
t4.5 27q0 43 -66 43q-96 0 -108 -68h-43zM277 546l-1 -1l-2 2q-5 -7 -16 -10.5t-34 -5.5l-22 -2q-4 0 -17.5 -1.5t-19.5 -2t-19 -2.5t-19.5 -4.5t-17 -6t-16 -8t-11.5 -11t-8.5 -15.5t-2.5 -19q0 -25 21.5 -38.5t51.5 -13.5q99 0 120 90z" />
    <glyph glyph-name="guillemotleft" unicode="&#xab;" horiz-adv-x="426" 
d="M210 257l15 64l159 113l-15 -68l-116 -84l75 -102l-12 -63zM50 257l15 64l159 113l-15 -68l-116 -84l75 -102l-12 -63z" />
    <glyph glyph-name="logicalnot" unicode="&#xac;" horiz-adv-x="600" 
d="M499 325h-450v53h503v-267h-53v214z" />
    <glyph glyph-name="uni00AD" unicode="&#xad;" horiz-adv-x="370" 
d="M50 304h251l-12 -58h-251z" />
    <glyph glyph-name="registered" unicode="&#xae;" horiz-adv-x="800" 
d="M388 378q25 0 39 0.5t33.5 4.5t30 12t18.5 22.5t8 35.5q0 74 -102 74h-97v-149h70zM318 142h-53v430h165q140 0 140 -119q0 -100 -108 -120l128 -191h-62l-121 191h-89v-191zM400 676q-135 0 -224.5 -92t-89.5 -227t89.5 -227t224.5 -92q134 0 224 92.5t90 226.5
t-90 226.5t-224 92.5zM400 729q158 0 265 -107.5t107 -264.5q0 -158 -107 -264.5t-265 -106.5t-265 106.5t-107 264.5q0 157 107 264.5t265 107.5z" />
    <glyph glyph-name="overscore" unicode="&#xaf;" horiz-adv-x="185" 
d="M28 627l8 45h256l-8 -45h-256z" />
    <glyph glyph-name="degree" unicode="&#xb0;" horiz-adv-x="400" 
d="M156 562q0 -45 30 -75t75 -30q44 0 74.5 30.5t30.5 74.5t-30.5 74.5t-74.5 30.5t-74.5 -30.5t-30.5 -74.5zM117 562q0 60 42 102t102 42q59 0 101.5 -42.5t42.5 -101.5q0 -60 -42 -102t-102 -42q-61 0 -102.5 41.5t-41.5 102.5z" />
    <glyph glyph-name="plusminus" unicode="&#xb1;" horiz-adv-x="600" 
d="M49 53h503v-53h-503v53zM274 503h53v-180h225v-53h-225v-180h-53v180h-224v53h224v180z" />
    <glyph glyph-name="twosuperior" unicode="&#xb2;" horiz-adv-x="333" 
d="M66 557q2 66 47 107.5t113 41.5q57 0 94.5 -29t41.5 -84q0 -54 -34.5 -89.5t-97.5 -66.5q-14 -8 -41.5 -22t-44 -23t-36 -22.5t-30 -27.5t-12.5 -29h246l-7 -39h-294q2 33 15 60t37.5 48.5t46.5 35t57 30.5q5 3 22 12t22.5 12t20 11t20 12.5t17 13t16 14t12 14.5
t10.5 17.5t5.5 18.5t2.5 21q0 35 -26.5 54t-65.5 19q-48 0 -78 -32t-32 -78h-47z" />
    <glyph glyph-name="threesuperior" unicode="&#xb3;" horiz-adv-x="333" 
d="M73 570q26 136 155 136q58 0 95.5 -27.5t37.5 -81.5q0 -39 -26.5 -67t-68.5 -34v-2q67 -17 67 -87q0 -66 -49.5 -104t-122.5 -38q-76 0 -107.5 38t-29.5 110h41q-6 -109 98 -109q51 0 87 28.5t36 72.5q0 37 -28.5 54.5t-72.5 17.5h-22l7 39h26q118 0 118 80
q0 34 -25.5 52.5t-62.5 18.5q-94 0 -112 -97h-41z" />
    <glyph glyph-name="acute" unicode="&#xb4;" horiz-adv-x="185" 
d="M200 729h81l-144 -144h-53z" />
    <glyph glyph-name="mu" unicode="&#xb5;" horiz-adv-x="537" 
d="M402 0h-58l18 94h-2q-31 -48 -79.5 -78t-104.5 -30q-82 0 -121 40l-45 -216h-60l149 706h63l-72 -333q-7 -28 -7 -52q0 -48 30.5 -70.5t77.5 -22.5q70 0 125 58t77 155l57 265h63z" />
    <glyph glyph-name="paragraph" unicode="&#xb6;" horiz-adv-x="600" 
d="M241 328q-87 0 -135 55.5t-32 134.5q20 95 88.5 145.5t174.5 50.5h217l-185 -890h-53l176 846h-127l-176 -846h-53z" />
    <glyph glyph-name="middot" unicode="&#xb7;" horiz-adv-x="278" 
d="M71 312q0 23 16.5 39.5t39.5 16.5t39.5 -16.5t16.5 -39.5q0 -21 -16.5 -38.5t-38.5 -17.5q-23 0 -40 16.5t-17 39.5z" />
    <glyph glyph-name="cedilla" unicode="&#xb8;" horiz-adv-x="185" 
d="M-70 -152q44 -17 77 -17q56 0 56 41q0 20 -15.5 30.5t-38.5 10.5q-20 0 -38 -9l-16 18l72 84h37l-58 -61l2 -2q12 4 36 4q32 0 53 -17.5t21 -51.5q0 -39 -33 -60t-74 -21q-50 0 -95 22z" />
    <glyph glyph-name="onesuperior" unicode="&#xb9;" horiz-adv-x="333" 
d="M117 622q101 13 143 75h38l-97 -423h-48l79 343q-44 -26 -124 -34z" />
    <glyph glyph-name="ordmasculine" unicode="&#xba;" horiz-adv-x="334" 
d="M220 667q-61 0 -99 -51.5t-38 -109.5q0 -47 24.5 -73t74.5 -26q61 0 98 53t37 112q0 43 -25 69t-72 26zM174 368q-68 0 -103 35t-35 99q0 85 51.5 144.5t140.5 59.5q64 0 100 -33t36 -93q0 -89 -49.5 -150.5t-140.5 -61.5z" />
    <glyph glyph-name="guillemotright" unicode="&#xbb;" horiz-adv-x="426" 
d="M189 294l-15 -64l-159 -113l15 68l116 84l-75 102l12 63zM349 294l-15 -64l-159 -113l15 68l116 84l-75 102l12 63z" />
    <glyph glyph-name="onequarter" unicode="&#xbc;" horiz-adv-x="834" 
d="M502 138h157l49 210l-2 2zM727 420h45l-65 -282h63l-7 -39h-65l-23 -99h-47l23 99h-206l7 43zM117 622q101 13 143 75h38l-97 -423h-48l79 343q-44 -26 -124 -34zM598 725h53l-444 -758h-53z" />
    <glyph glyph-name="onehalf" unicode="&#xbd;" horiz-adv-x="834" 
d="M503 283q2 66 47 107.5t113 41.5q57 0 94.5 -29t41.5 -84q0 -54 -34.5 -89.5t-97.5 -66.5q-14 -8 -41.5 -22t-44 -23t-36 -22.5t-30 -27.5t-12.5 -29h246l-7 -39h-294q2 33 15 60t37.5 48.5t46.5 35t57 30.5q5 3 22 12t22.5 12t20 11t20 12.5t17 13t16 14t12 14.5
t10.5 17.5t5.5 18.5t2.5 21q0 35 -26.5 54t-65.5 19q-48 0 -78 -32t-32 -78h-47zM92 622q101 13 143 75h38l-97 -423h-48l79 343q-44 -26 -124 -34zM574 725h53l-444 -758h-53z" />
    <glyph glyph-name="threequarters" unicode="&#xbe;" horiz-adv-x="834" 
d="M502 138h157l49 210l-2 2zM727 420h45l-65 -282h63l-7 -39h-65l-23 -99h-47l23 99h-206l7 43zM633 725h53l-444 -758h-53zM73 570q26 136 155 136q58 0 95.5 -27.5t37.5 -81.5q0 -39 -26.5 -67t-68.5 -34v-2q67 -17 67 -87q0 -66 -49.5 -104t-122.5 -38q-76 0 -107.5 38
t-29.5 110h41q-6 -109 98 -109q51 0 87 28.5t36 72.5q0 37 -28.5 54.5t-72.5 17.5h-22l7 39h26q118 0 118 80q0 34 -25.5 52.5t-62.5 18.5q-94 0 -112 -97h-41z" />
    <glyph glyph-name="questiondown" unicode="&#xbf;" horiz-adv-x="537" 
d="M269 516h85l-24 -106h-84zM306 341q-6 -43 -16 -72t-32.5 -54.5t-39.5 -39.5t-60 -45q-114 -75 -114 -158q0 -60 36.5 -92t97.5 -32q76 0 121.5 51.5t51.5 130.5h63q-4 -107 -68 -171t-171 -64q-81 0 -137 44t-56 124q0 39 12 71.5t37.5 60t48 45t61.5 44.5
q49 31 69 63.5t33 93.5h63z" />
    <glyph glyph-name="Agrave" unicode="&#xc0;" horiz-adv-x="630" 
d="M364 907l82 -144h-50l-106 144h74zM167 280h282l-61 376h-2zM362 714h74l130 -714h-71l-36 222h-326l-132 -222h-75z" />
    <glyph glyph-name="Aacute" unicode="&#xc1;" horiz-adv-x="630" 
d="M441 907h81l-144 -144h-53zM167 280h282l-61 376h-2zM362 714h74l130 -714h-71l-36 222h-326l-132 -222h-75z" />
    <glyph glyph-name="Acircumflex" unicode="&#xc2;" horiz-adv-x="630" 
d="M299 763h-61l136 144h63l86 -144h-57l-66 106zM167 280h282l-61 376h-2zM362 714h74l130 -714h-71l-36 222h-326l-132 -222h-75z" />
    <glyph glyph-name="Atilde" unicode="&#xc3;" horiz-adv-x="630" 
d="M555 879q-9 -42 -29 -67q-25 -34 -60 -34q-26 0 -76 27q-46 29 -64 29q-17 0 -30.5 -18t-17.5 -38h-41q27 101 93 101q24 0 70 -26q46 -30 70 -30q14 0 26.5 18.5t18.5 37.5h40zM167 280h282l-61 376h-2zM362 714h74l130 -714h-71l-36 222h-326l-132 -222h-75z" />
    <glyph glyph-name="Adieresis" unicode="&#xc4;" horiz-adv-x="630" 
d="M297 881h64l-20 -102h-63zM456 881h64l-20 -102h-63zM167 280h282l-61 376h-2zM362 714h74l130 -714h-71l-36 222h-326l-132 -222h-75z" />
    <glyph glyph-name="Aring" unicode="&#xc5;" horiz-adv-x="630" 
d="M400 752q-40 0 -69.5 30t-29.5 70t29.5 69.5t69.5 29.5t70 -29.5t30 -69.5q0 -42 -29 -71t-71 -29zM400 786q26 0 46 20t20 46t-20 45.5t-46 19.5t-45.5 -19.5t-19.5 -45.5t19.5 -46t45.5 -20zM167 280h282l-61 376h-2zM362 714h74l130 -714h-71l-36 222h-326l-132 -222
h-75z" />
    <glyph glyph-name="AE" unicode="&#xc6;" horiz-adv-x="889" 
d="M208 284h224l81 372h-30zM453 714h498l-13 -58h-357l-56 -258h335l-13 -58h-334l-61 -282h369l-13 -58h-437l49 226h-255l-165 -226h-80z" />
    <glyph glyph-name="Ccedilla" unicode="&#xc7;" horiz-adv-x="704" 
d="M648 244q-25 -117 -107 -187.5t-214 -70.5h-12q-8 0 -11 1l-39 -42l2 -2q12 4 36 4q32 0 53 -17.5t21 -51.5q0 -39 -33 -60t-74 -21q-51 0 -96 22l14 29q44 -17 78 -17q56 0 56 41q0 20 -15.5 30.5t-38.5 10.5q-21 0 -39 -9l-16 18l60 70q-113 14 -176 94.5t-63 202.5
q0 116 45 215t135 162t208 63q117 0 190.5 -62.5t75.5 -178.5h-68q-2 89 -54.5 136t-144.5 47q-78 0 -140 -33t-100.5 -88.5t-58.5 -124t-20 -142.5q0 -110 63 -175t173 -65q85 0 150.5 54t91.5 147h68z" />
    <glyph glyph-name="Egrave" unicode="&#xc8;" 
d="M381 907l82 -144h-50l-106 144h74zM157 714h479l-13 -58h-410l-55 -258h383l-13 -58h-382l-60 -282h420l-13 -58h-488z" />
    <glyph glyph-name="Eacute" unicode="&#xc9;" 
d="M440 907h81l-144 -144h-53zM157 714h479l-13 -58h-410l-55 -258h383l-13 -58h-382l-60 -282h420l-13 -58h-488z" />
    <glyph glyph-name="Ecircumflex" unicode="&#xca;" 
d="M298 763h-61l136 144h63l86 -144h-57l-66 106zM157 714h479l-13 -58h-410l-55 -258h383l-13 -58h-382l-60 -282h420l-13 -58h-488z" />
    <glyph glyph-name="Edieresis" unicode="&#xcb;" 
d="M296 881h64l-20 -102h-63zM455 881h64l-20 -102h-63zM157 714h479l-13 -58h-410l-55 -258h383l-13 -58h-382l-60 -282h420l-13 -58h-488z" />
    <glyph glyph-name="Igrave" unicode="&#xcc;" horiz-adv-x="222" 
d="M178 907l82 -144h-50l-106 144h74zM156 714h68l-151 -714h-68z" />
    <glyph glyph-name="Iacute" unicode="&#xcd;" horiz-adv-x="222" 
d="M237 907h81l-144 -144h-53zM156 714h68l-151 -714h-68z" />
    <glyph glyph-name="Icircumflex" unicode="&#xce;" horiz-adv-x="222" 
d="M95 763h-61l136 144h63l86 -144h-57l-66 106zM156 714h68l-151 -714h-68z" />
    <glyph glyph-name="Idieresis" unicode="&#xcf;" horiz-adv-x="222" 
d="M93 881h64l-20 -102h-63zM252 881h64l-20 -102h-63zM156 714h68l-151 -714h-68z" />
    <glyph glyph-name="Eth" unicode="&#xd0;" horiz-adv-x="685" 
d="M159 393h213l-10 -45h-213l-63 -290h172q86 -1 152 30.5t105.5 86.5t59 122.5t19.5 143.5q0 215 -215 215h-163zM12 393h79l69 321h230q146 0 209 -74t63 -212q0 -115 -43 -210.5t-134 -156.5t-214 -61h-266l76 348h-79z" />
    <glyph glyph-name="Ntilde" unicode="&#xd1;" horiz-adv-x="704" 
d="M610 879q-9 -42 -29 -67q-25 -34 -60 -34q-26 0 -76 27q-46 29 -64 29q-17 0 -30.5 -18t-17.5 -38h-41q27 101 93 101q24 0 70 -26q46 -30 70 -30q14 0 26.5 18.5t18.5 37.5h40zM154 714h77l285 -638h2l132 638h66l-156 -714h-75l-285 638h-2l-133 -638h-65z" />
    <glyph glyph-name="Ograve" unicode="&#xd2;" horiz-adv-x="741" 
d="M419 907l82 -144h-50l-106 144h74zM327 -14q-138 0 -215.5 82.5t-77.5 220.5q0 116 45 215t135 162t208 63q136 0 216 -81.5t80 -217.5q0 -88 -26 -167.5t-74.5 -141.5t-123.5 -98.5t-167 -36.5zM650 413q0 116 -58 187t-171 71q-78 0 -140 -33t-100.5 -88.5t-58.5 -124
t-20 -142.5q0 -110 63 -175t173 -65q93 0 166 56t109.5 139.5t36.5 174.5z" />
    <glyph glyph-name="Oacute" unicode="&#xd3;" horiz-adv-x="741" 
d="M478 907h81l-144 -144h-53zM327 -14q-138 0 -215.5 82.5t-77.5 220.5q0 116 45 215t135 162t208 63q136 0 216 -81.5t80 -217.5q0 -88 -26 -167.5t-74.5 -141.5t-123.5 -98.5t-167 -36.5zM650 413q0 116 -58 187t-171 71q-78 0 -140 -33t-100.5 -88.5t-58.5 -124
t-20 -142.5q0 -110 63 -175t173 -65q93 0 166 56t109.5 139.5t36.5 174.5z" />
    <glyph glyph-name="Ocircumflex" unicode="&#xd4;" horiz-adv-x="741" 
d="M336 763h-61l136 144h63l86 -144h-57l-66 106zM327 -14q-138 0 -215.5 82.5t-77.5 220.5q0 116 45 215t135 162t208 63q136 0 216 -81.5t80 -217.5q0 -88 -26 -167.5t-74.5 -141.5t-123.5 -98.5t-167 -36.5zM650 413q0 116 -58 187t-171 71q-78 0 -140 -33t-100.5 -88.5
t-58.5 -124t-20 -142.5q0 -110 63 -175t173 -65q93 0 166 56t109.5 139.5t36.5 174.5z" />
    <glyph glyph-name="Otilde" unicode="&#xd5;" horiz-adv-x="741" 
d="M592 879q-9 -42 -29 -67q-25 -34 -60 -34q-26 0 -76 27q-46 29 -64 29q-17 0 -30.5 -18t-17.5 -38h-41q27 101 93 101q24 0 70 -26q46 -30 70 -30q14 0 26.5 18.5t18.5 37.5h40zM327 -14q-138 0 -215.5 82.5t-77.5 220.5q0 116 45 215t135 162t208 63q136 0 216 -81.5
t80 -217.5q0 -88 -26 -167.5t-74.5 -141.5t-123.5 -98.5t-167 -36.5zM650 413q0 116 -58 187t-171 71q-78 0 -140 -33t-100.5 -88.5t-58.5 -124t-20 -142.5q0 -110 63 -175t173 -65q93 0 166 56t109.5 139.5t36.5 174.5z" />
    <glyph glyph-name="Odieresis" unicode="&#xd6;" horiz-adv-x="741" 
d="M334 881h64l-20 -102h-63zM493 881h64l-20 -102h-63zM327 -14q-138 0 -215.5 82.5t-77.5 220.5q0 116 45 215t135 162t208 63q136 0 216 -81.5t80 -217.5q0 -88 -26 -167.5t-74.5 -141.5t-123.5 -98.5t-167 -36.5zM650 413q0 116 -58 187t-171 71q-78 0 -140 -33
t-100.5 -88.5t-58.5 -124t-20 -142.5q0 -110 63 -175t173 -65q93 0 166 56t109.5 139.5t36.5 174.5z" />
    <glyph glyph-name="multiply" unicode="&#xd7;" horiz-adv-x="600" 
d="M74 440l37 37l189 -189l189 189l37 -37l-189 -189l189 -189l-37 -37l-189 188l-189 -188l-37 37l188 189z" />
    <glyph glyph-name="Oslash" unicode="&#xd8;" horiz-adv-x="741" 
d="M163 112q64 -69 175 -69q93 0 166 56t109.5 139.5t36.5 174.5q0 99 -41 163zM740 712l-83 -86q61 -80 61 -196q0 -88 -26 -167.5t-74.5 -141.5t-123.5 -98.5t-167 -36.5q-132 0 -210 78l-88 -90l-24 26l88 91q-59 77 -59 198q0 116 45 215t135 162t208 63q128 0 209 -76
l84 88zM586 606q-60 65 -165 65q-78 0 -140 -33t-100.5 -88.5t-58.5 -124t-20 -142.5q0 -87 38 -143z" />
    <glyph glyph-name="Ugrave" unicode="&#xd9;" horiz-adv-x="704" 
d="M401 907l82 -144h-50l-106 144h74zM150 714h68l-95 -454q-7 -25 -7 -62q-4 -75 50 -115t145 -40q192 0 231 188l101 483h68l-102 -488q-50 -240 -307 -240q-67 0 -122 19t-93.5 66.5t-38.5 118.5q0 24 6 58z" />
    <glyph glyph-name="Uacute" unicode="&#xda;" horiz-adv-x="704" 
d="M496 907h81l-144 -144h-53zM150 714h68l-95 -454q-7 -25 -7 -62q-4 -75 50 -115t145 -40q192 0 231 188l101 483h68l-102 -488q-50 -240 -307 -240q-67 0 -122 19t-93.5 66.5t-38.5 118.5q0 24 6 58z" />
    <glyph glyph-name="Ucircumflex" unicode="&#xdb;" horiz-adv-x="704" 
d="M354 763h-61l136 144h63l86 -144h-57l-66 106zM150 714h68l-95 -454q-7 -25 -7 -62q-4 -75 50 -115t145 -40q192 0 231 188l101 483h68l-102 -488q-50 -240 -307 -240q-67 0 -122 19t-93.5 66.5t-38.5 118.5q0 24 6 58z" />
    <glyph glyph-name="Udieresis" unicode="&#xdc;" horiz-adv-x="704" 
d="M352 881h64l-20 -102h-63zM511 881h64l-20 -102h-63zM150 714h68l-95 -454q-7 -25 -7 -62q-4 -75 50 -115t145 -40q192 0 231 188l101 483h68l-102 -488q-50 -240 -307 -240q-67 0 -122 19t-93.5 66.5t-38.5 118.5q0 24 6 58z" />
    <glyph glyph-name="Yacute" unicode="&#xdd;" 
d="M395 907h81l-144 -144h-53zM598 714h83l-358 -426l-63 -288h-69l65 295l-190 419h72l161 -362z" />
    <glyph glyph-name="Thorn" unicode="&#xde;" horiz-adv-x="630" 
d="M126 247h241q77 0 126.5 44t49.5 120q0 128 -145 128h-209zM159 714h68l-26 -117h220q83 0 136.5 -47.5t53.5 -128.5q0 -109 -68 -170.5t-178 -61.5h-252l-40 -189h-68z" />
    <glyph glyph-name="germandbls" unicode="&#xdf;" horiz-adv-x="519" 
d="M107 545q39 184 211 184q79 0 127.5 -38.5t48.5 -116.5q0 -67 -43.5 -117t-109.5 -58v-2q57 -12 87.5 -50.5t30.5 -96.5q0 -106 -72 -180.5t-177 -74.5q-43 0 -66 4l11 51q15 -3 45 -3q81 0 138.5 56t57.5 136q0 74 -45.5 101.5t-125.5 27.5l12 53q74 -3 134 35.5
t60 112.5q0 50 -30.5 78.5t-80.5 28.5q-68 0 -103.5 -37.5t-49.5 -109.5l-115 -529h-62z" />
    <glyph glyph-name="agrave" unicode="&#xe0;" horiz-adv-x="519" 
d="M278 729l82 -144h-50l-106 144h74zM62 362q11 84 71 126.5t147 42.5q41 0 78.5 -8.5t69 -36t31.5 -70.5q0 -40 -32 -174q-7 -35 -15 -70t-11.5 -49.5t-5.5 -29t-2 -25.5q0 -21 33 -21q7 0 25 2l-9 -49q-28 -5 -52 -5q-54 0 -55 55q0 10 2 28l-2 2q-26 -44 -75 -69
t-104 -25q-75 0 -119.5 35t-44.5 107q0 75 48 110.5t130 49.5q33 5 88 7t76 8q33 9 47.5 30.5t14.5 70.5q0 74 -109 74q-144 0 -162 -116h-63zM374 276l-2 2q-5 -6 -14 -10.5t-17.5 -7.5t-22 -5t-20.5 -2.5t-22 -2t-18 -1.5q-27 -2 -36.5 -2.5t-37 -4t-40 -8t-33.5 -13.5
t-31 -20.5t-18 -29.5t-8 -40q0 -47 33 -70t82 -23q74 0 122 40t63 111z" />
    <glyph glyph-name="aacute" unicode="&#xe1;" horiz-adv-x="519" 
d="M367 729h81l-144 -144h-53zM62 362q11 84 71 126.5t147 42.5q41 0 78.5 -8.5t69 -36t31.5 -70.5q0 -40 -32 -174q-7 -35 -15 -70t-11.5 -49.5t-5.5 -29t-2 -25.5q0 -21 33 -21q7 0 25 2l-9 -49q-28 -5 -52 -5q-54 0 -55 55q0 10 2 28l-2 2q-26 -44 -75 -69t-104 -25
q-75 0 -119.5 35t-44.5 107q0 75 48 110.5t130 49.5q33 5 88 7t76 8q33 9 47.5 30.5t14.5 70.5q0 74 -109 74q-144 0 -162 -116h-63zM374 276l-2 2q-5 -6 -14 -10.5t-17.5 -7.5t-22 -5t-20.5 -2.5t-22 -2t-18 -1.5q-27 -2 -36.5 -2.5t-37 -4t-40 -8t-33.5 -13.5t-31 -20.5
t-18 -29.5t-8 -40q0 -47 33 -70t82 -23q74 0 122 40t63 111z" />
    <glyph glyph-name="acircumflex" unicode="&#xe2;" horiz-adv-x="519" 
d="M225 585h-61l136 144h63l86 -144h-57l-66 106zM62 362q11 84 71 126.5t147 42.5q41 0 78.5 -8.5t69 -36t31.5 -70.5q0 -40 -32 -174q-7 -35 -15 -70t-11.5 -49.5t-5.5 -29t-2 -25.5q0 -21 33 -21q7 0 25 2l-9 -49q-28 -5 -52 -5q-54 0 -55 55q0 10 2 28l-2 2
q-26 -44 -75 -69t-104 -25q-75 0 -119.5 35t-44.5 107q0 75 48 110.5t130 49.5q33 5 88 7t76 8q33 9 47.5 30.5t14.5 70.5q0 74 -109 74q-144 0 -162 -116h-63zM374 276l-2 2q-5 -6 -14 -10.5t-17.5 -7.5t-22 -5t-20.5 -2.5t-22 -2t-18 -1.5q-27 -2 -36.5 -2.5t-37 -4
t-40 -8t-33.5 -13.5t-31 -20.5t-18 -29.5t-8 -40q0 -47 33 -70t82 -23q74 0 122 40t63 111z" />
    <glyph glyph-name="atilde" unicode="&#xe3;" horiz-adv-x="519" 
d="M481 701q-9 -42 -29 -67q-26 -34 -60 -34q-26 0 -76 27q-46 29 -64 29q-17 0 -30.5 -18t-17.5 -38h-41q27 101 93 101q24 0 70 -26q46 -30 70 -30q14 0 26.5 18.5t18.5 37.5h40zM62 362q11 84 71 126.5t147 42.5q41 0 78.5 -8.5t69 -36t31.5 -70.5q0 -40 -32 -174
q-7 -35 -15 -70t-11.5 -49.5t-5.5 -29t-2 -25.5q0 -21 33 -21q7 0 25 2l-9 -49q-28 -5 -52 -5q-54 0 -55 55q0 10 2 28l-2 2q-26 -44 -75 -69t-104 -25q-75 0 -119.5 35t-44.5 107q0 75 48 110.5t130 49.5q33 5 88 7t76 8q33 9 47.5 30.5t14.5 70.5q0 74 -109 74
q-144 0 -162 -116h-63zM374 276l-2 2q-5 -6 -14 -10.5t-17.5 -7.5t-22 -5t-20.5 -2.5t-22 -2t-18 -1.5q-27 -2 -36.5 -2.5t-37 -4t-40 -8t-33.5 -13.5t-31 -20.5t-18 -29.5t-8 -40q0 -47 33 -70t82 -23q74 0 122 40t63 111z" />
    <glyph glyph-name="adieresis" unicode="&#xe4;" horiz-adv-x="519" 
d="M223 703h64l-20 -102h-63zM382 703h64l-20 -102h-63zM62 362q11 84 71 126.5t147 42.5q41 0 78.5 -8.5t69 -36t31.5 -70.5q0 -40 -32 -174q-7 -35 -15 -70t-11.5 -49.5t-5.5 -29t-2 -25.5q0 -21 33 -21q7 0 25 2l-9 -49q-28 -5 -52 -5q-54 0 -55 55q0 10 2 28l-2 2
q-26 -44 -75 -69t-104 -25q-75 0 -119.5 35t-44.5 107q0 75 48 110.5t130 49.5q33 5 88 7t76 8q33 9 47.5 30.5t14.5 70.5q0 74 -109 74q-144 0 -162 -116h-63zM374 276l-2 2q-5 -6 -14 -10.5t-17.5 -7.5t-22 -5t-20.5 -2.5t-22 -2t-18 -1.5q-27 -2 -36.5 -2.5t-37 -4
t-40 -8t-33.5 -13.5t-31 -20.5t-18 -29.5t-8 -40q0 -47 33 -70t82 -23q74 0 122 40t63 111z" />
    <glyph glyph-name="aring" unicode="&#xe5;" horiz-adv-x="519" 
d="M326 574q-40 0 -69.5 30t-29.5 70t29.5 69.5t69.5 29.5t70 -29.5t30 -69.5q0 -42 -29 -71t-71 -29zM326 608q26 0 46 20t20 46t-20 45.5t-46 19.5t-45.5 -19.5t-19.5 -45.5t19.5 -46t45.5 -20zM62 362q11 84 71 126.5t147 42.5q41 0 78.5 -8.5t69 -36t31.5 -70.5
q0 -40 -32 -174q-7 -35 -15 -70t-11.5 -49.5t-5.5 -29t-2 -25.5q0 -21 33 -21q7 0 25 2l-9 -49q-28 -5 -52 -5q-54 0 -55 55q0 10 2 28l-2 2q-26 -44 -75 -69t-104 -25q-75 0 -119.5 35t-44.5 107q0 75 48 110.5t130 49.5q33 5 88 7t76 8q33 9 47.5 30.5t14.5 70.5
q0 74 -109 74q-144 0 -162 -116h-63zM374 276l-2 2q-5 -6 -14 -10.5t-17.5 -7.5t-22 -5t-20.5 -2.5t-22 -2t-18 -1.5q-27 -2 -36.5 -2.5t-37 -4t-40 -8t-33.5 -13.5t-31 -20.5t-18 -29.5t-8 -40q0 -47 33 -70t82 -23q74 0 122 40t63 111z" />
    <glyph glyph-name="ae" unicode="&#xe6;" horiz-adv-x="852" 
d="M374 276l-2 2q-5 -6 -14 -10.5t-17.5 -7.5t-22 -5t-20.5 -2.5t-22 -2t-18 -1.5q-27 -2 -36.5 -2.5t-37 -4t-40 -8t-33.5 -13.5t-31 -20.5t-18 -29.5t-8 -40q0 -47 33 -70t82 -23q74 0 122 40t63 111zM62 362q11 84 71 126.5t147 42.5q37 0 68.5 -8t60.5 -32.5t38 -64.5
q58 105 185 105q91 0 140 -57t49 -153q0 -41 -10 -80h-385q-8 -40 -8 -67q0 -62 39.5 -99t100.5 -37q63 0 109 34t62 94h63q-30 -92 -89.5 -136t-157.5 -44q-70 0 -118 34t-56 102h-2q-48 -136 -213 -136q-75 0 -119.5 35t-44.5 107q0 75 48 110.5t130 49.5q33 5 88 7t76 8
q33 9 47.5 30.5t14.5 70.5q0 74 -109 74q-144 0 -162 -116h-63zM756 294q2 16 2 22v22q0 62 -35 101t-97 39q-77 0 -125.5 -51.5t-65.5 -132.5h321z" />
    <glyph glyph-name="ccedilla" unicode="&#xe7;" horiz-adv-x="519" 
d="M454 167q-59 -181 -241 -181h-2l-39 -41l2 -2q12 4 36 4q32 0 53 -17.5t21 -51.5q0 -39 -33 -60t-74 -21q-51 0 -96 22l14 29q44 -17 78 -17q56 0 56 41q0 20 -15.5 30.5t-38.5 10.5q-21 0 -39 -9l-16 18l58 67q-80 11 -122 65.5t-42 143.5q0 83 32.5 158t98 125
t149.5 50q89 0 142 -44.5t51 -131.5h-63q4 56 -31.5 89.5t-92.5 33.5q-72 0 -124 -43t-75.5 -105t-23.5 -132q0 -72 36.5 -116t107.5 -44q61 0 105 35t65 94h63z" />
    <glyph glyph-name="egrave" unicode="&#xe8;" horiz-adv-x="519" 
d="M278 729l82 -144h-50l-106 144h74zM425 294q0 8 0.5 21t0.5 19q0 66 -37.5 105t-103.5 39q-74 0 -127 -54t-70 -130h337zM80 241q-3 -18 -3 -40q0 -73 38 -118t112 -45q62 0 106.5 35t62.5 93h63q-54 -180 -235 -180q-102 0 -156 57.5t-54 160.5q0 84 32 157.5t97 121.5
t150 48q92 0 144 -55t52 -146q0 -50 -5 -89h-404z" />
    <glyph glyph-name="eacute" unicode="&#xe9;" horiz-adv-x="519" 
d="M367 729h81l-144 -144h-53zM425 294q0 8 0.5 21t0.5 19q0 66 -37.5 105t-103.5 39q-74 0 -127 -54t-70 -130h337zM80 241q-3 -18 -3 -40q0 -73 38 -118t112 -45q62 0 106.5 35t62.5 93h63q-54 -180 -235 -180q-102 0 -156 57.5t-54 160.5q0 84 32 157.5t97 121.5t150 48
q92 0 144 -55t52 -146q0 -50 -5 -89h-404z" />
    <glyph glyph-name="ecircumflex" unicode="&#xea;" horiz-adv-x="519" 
d="M225 585h-61l136 144h63l86 -144h-57l-66 106zM425 294q0 8 0.5 21t0.5 19q0 66 -37.5 105t-103.5 39q-74 0 -127 -54t-70 -130h337zM80 241q-3 -18 -3 -40q0 -73 38 -118t112 -45q62 0 106.5 35t62.5 93h63q-54 -180 -235 -180q-102 0 -156 57.5t-54 160.5
q0 84 32 157.5t97 121.5t150 48q92 0 144 -55t52 -146q0 -50 -5 -89h-404z" />
    <glyph glyph-name="edieresis" unicode="&#xeb;" horiz-adv-x="519" 
d="M223 703h64l-20 -102h-63zM382 703h64l-20 -102h-63zM425 294q0 8 0.5 21t0.5 19q0 66 -37.5 105t-103.5 39q-74 0 -127 -54t-70 -130h337zM80 241q-3 -18 -3 -40q0 -73 38 -118t112 -45q62 0 106.5 35t62.5 93h63q-54 -180 -235 -180q-102 0 -156 57.5t-54 160.5
q0 84 32 157.5t97 121.5t150 48q92 0 144 -55t52 -146q0 -50 -5 -89h-404z" />
    <glyph glyph-name="igrave" unicode="&#xec;" horiz-adv-x="185" 
d="M141 729l82 -144h-50l-106 144h74zM-10 0l110 516h63l-111 -516h-62z" />
    <glyph glyph-name="iacute" unicode="&#xed;" horiz-adv-x="185" 
d="M200 729h81l-144 -144h-53zM-10 0l110 516h63l-111 -516h-62z" />
    <glyph glyph-name="icircumflex" unicode="&#xee;" horiz-adv-x="185" 
d="M58 585h-60l135 144h63l86 -144h-57l-66 106zM-10 0l110 516h63l-111 -516h-62z" />
    <glyph glyph-name="idieresis" unicode="&#xef;" horiz-adv-x="185" 
d="M56 703h64l-20 -102h-63zM215 703h64l-20 -102h-63zM-10 0l110 516h63l-111 -516h-62z" />
    <glyph glyph-name="eth" unicode="&#xf0;" horiz-adv-x="556" 
d="M326 652q-41 36 -84 55l46 35q51 -26 90 -63l117 59l26 -31l-115 -58q108 -120 103 -301q-2 -72 -19 -134.5t-50 -115t-89.5 -82.5t-130.5 -30q-99 0 -152.5 54.5t-53.5 149.5q0 128 78 222t210 94q99 0 143 -66h2q-20 112 -91 183l-108 -55l-26 31zM291 453
q-66 0 -116.5 -41.5t-74 -99t-23.5 -116.5q0 -74 39 -116t116 -42q66 0 117 43t74 101.5t23 118.5q0 69 -39.5 110.5t-115.5 41.5z" />
    <glyph glyph-name="ntilde" unicode="&#xf1;" horiz-adv-x="537" 
d="M490 701q-9 -42 -29 -67q-25 -34 -60 -34q-26 0 -76 27q-46 29 -64 29q-17 0 -30.5 -18t-17.5 -38h-41q27 101 93 101q24 0 70 -26q46 -30 70 -30q14 0 26.5 18.5t18.5 37.5h40zM100 516h58l-18 -94h2q31 48 80 78.5t104 30.5q72 0 114 -34t42 -105q0 -18 -8 -61
l-71 -331h-63l72 333q7 28 7 52q0 48 -30.5 70.5t-77.5 22.5q-69 0 -125.5 -58t-76.5 -155l-57 -265h-62z" />
    <glyph glyph-name="ograve" unicode="&#xf2;" horiz-adv-x="556" 
d="M297 729l82 -144h-50l-106 144h74zM232 38q66 0 115.5 45.5t72.5 107.5t23 125q0 74 -39 118t-113 44q-66 0 -116.5 -43.5t-74 -104.5t-23.5 -124q0 -78 39.5 -123t115.5 -45zM302 531q92 0 148 -54t56 -148q0 -90 -30.5 -166t-97.5 -126.5t-158 -50.5q-99 0 -152.5 57
t-53.5 157q0 86 33 160.5t100 122.5t155 48z" />
    <glyph glyph-name="oacute" unicode="&#xf3;" horiz-adv-x="556" 
d="M386 729h81l-144 -144h-53zM232 38q66 0 115.5 45.5t72.5 107.5t23 125q0 74 -39 118t-113 44q-66 0 -116.5 -43.5t-74 -104.5t-23.5 -124q0 -78 39.5 -123t115.5 -45zM302 531q92 0 148 -54t56 -148q0 -90 -30.5 -166t-97.5 -126.5t-158 -50.5q-99 0 -152.5 57
t-53.5 157q0 86 33 160.5t100 122.5t155 48z" />
    <glyph glyph-name="ocircumflex" unicode="&#xf4;" horiz-adv-x="556" 
d="M244 585h-61l136 144h63l86 -144h-57l-66 106zM232 38q66 0 115.5 45.5t72.5 107.5t23 125q0 74 -39 118t-113 44q-66 0 -116.5 -43.5t-74 -104.5t-23.5 -124q0 -78 39.5 -123t115.5 -45zM302 531q92 0 148 -54t56 -148q0 -90 -30.5 -166t-97.5 -126.5t-158 -50.5
q-99 0 -152.5 57t-53.5 157q0 86 33 160.5t100 122.5t155 48z" />
    <glyph glyph-name="otilde" unicode="&#xf5;" horiz-adv-x="556" 
d="M500 701q-9 -42 -29 -67q-25 -34 -60 -34q-26 0 -76 27q-46 29 -64 29q-17 0 -30.5 -18t-17.5 -38h-41q27 101 93 101q24 0 70 -26q46 -30 70 -30q14 0 26.5 18.5t18.5 37.5h40zM232 38q66 0 115.5 45.5t72.5 107.5t23 125q0 74 -39 118t-113 44q-66 0 -116.5 -43.5
t-74 -104.5t-23.5 -124q0 -78 39.5 -123t115.5 -45zM302 531q92 0 148 -54t56 -148q0 -90 -30.5 -166t-97.5 -126.5t-158 -50.5q-99 0 -152.5 57t-53.5 157q0 86 33 160.5t100 122.5t155 48z" />
    <glyph glyph-name="odieresis" unicode="&#xf6;" horiz-adv-x="556" 
d="M242 703h64l-20 -102h-63zM401 703h64l-20 -102h-63zM232 38q66 0 115.5 45.5t72.5 107.5t23 125q0 74 -39 118t-113 44q-66 0 -116.5 -43.5t-74 -104.5t-23.5 -124q0 -78 39.5 -123t115.5 -45zM302 531q92 0 148 -54t56 -148q0 -90 -30.5 -166t-97.5 -126.5t-158 -50.5
q-99 0 -152.5 57t-53.5 157q0 86 33 160.5t100 122.5t155 48z" />
    <glyph glyph-name="divide" unicode="&#xf7;" horiz-adv-x="600" 
d="M244 50q0 23 16.5 39.5t39.5 16.5t39.5 -16.5t16.5 -39.5q0 -21 -16.5 -38t-38.5 -17q-23 0 -40 16t-17 39zM244 453q0 23 16.5 39.5t39.5 16.5t39.5 -16.5t16.5 -39.5q0 -21 -17 -38.5t-38 -17.5q-23 0 -40 16.5t-17 39.5zM49 225v53h503v-53h-503z" />
    <glyph glyph-name="oslash" unicode="&#xf8;" horiz-adv-x="556" 
d="M409 427q-40 51 -118 51q-66 0 -116.5 -43.5t-74 -104.5t-23.5 -124q0 -58 20 -94zM512 530l22 -21l-60 -61q32 -50 32 -119q0 -90 -30.5 -166t-97.5 -126.5t-158 -50.5q-96 0 -150 56l-64 -63l-19 21l64 65q-37 55 -37 135q0 86 33 160.5t100 122.5t155 48q98 0 152 -59
zM114 87q40 -49 118 -49q66 0 115.5 45.5t72.5 107.5t23 125q0 44 -17 84z" />
    <glyph glyph-name="ugrave" unicode="&#xf9;" horiz-adv-x="537" 
d="M287 729l82 -144h-50l-106 144h74zM402 0h-58l18 94h-2q-31 -48 -79.5 -78t-104.5 -30q-156 0 -156 138q0 18 8 61l71 331h63l-72 -333q-7 -28 -7 -52q0 -48 30.5 -70.5t77.5 -22.5q70 0 125 58t77 155l57 265h63z" />
    <glyph glyph-name="uacute" unicode="&#xfa;" horiz-adv-x="537" 
d="M376 729h81l-144 -144h-53zM402 0h-58l18 94h-2q-31 -48 -79.5 -78t-104.5 -30q-156 0 -156 138q0 18 8 61l71 331h63l-72 -333q-7 -28 -7 -52q0 -48 30.5 -70.5t77.5 -22.5q70 0 125 58t77 155l57 265h63z" />
    <glyph glyph-name="ucircumflex" unicode="&#xfb;" horiz-adv-x="537" 
d="M224 585h-61l136 144h63l86 -144h-57l-66 106zM402 0h-58l18 94h-2q-31 -48 -79.5 -78t-104.5 -30q-156 0 -156 138q0 18 8 61l71 331h63l-72 -333q-7 -28 -7 -52q0 -48 30.5 -70.5t77.5 -22.5q70 0 125 58t77 155l57 265h63z" />
    <glyph glyph-name="udieresis" unicode="&#xfc;" horiz-adv-x="537" 
d="M222 703h64l-20 -102h-63zM381 703h64l-20 -102h-63zM402 0h-58l18 94h-2q-31 -48 -79.5 -78t-104.5 -30q-156 0 -156 138q0 18 8 61l71 331h63l-72 -333q-7 -28 -7 -52q0 -48 30.5 -70.5t77.5 -22.5q70 0 125 58t77 155l57 265h63z" />
    <glyph glyph-name="yacute" unicode="&#xfd;" horiz-adv-x="463" 
d="M339 729h81l-144 -144h-53zM-42 -134q27 -3 53 -3q48 0 81 56l47 81l-95 516h66l74 -438h2l238 438h68l-367 -637q-41 -69 -125 -69q-9 0 -27.5 2.5t-26.5 2.5z" />
    <glyph glyph-name="thorn" unicode="&#xfe;" 
d="M149 714h63l-62 -289h2q29 53 71.5 79.5t109.5 26.5q96 0 146 -57t50 -154q0 -81 -33.5 -156.5t-99.5 -126.5t-149 -51q-66 0 -111 28.5t-54 88.5h-2l-63 -293h-62zM327 478q-68 0 -121 -47t-78.5 -112t-25.5 -132q0 -70 38 -109.5t106 -39.5q52 0 95 27t69.5 69.5t41 92
t14.5 97.5q0 69 -35 111.5t-104 42.5z" />
    <glyph glyph-name="ydieresis" unicode="&#xff;" horiz-adv-x="463" 
d="M195 703h64l-20 -102h-63zM354 703h64l-20 -102h-63zM-42 -134q27 -3 53 -3q48 0 81 56l47 81l-95 516h66l74 -438h2l238 438h68l-367 -637q-41 -69 -125 -69q-9 0 -27.5 2.5t-26.5 2.5z" />
    <glyph glyph-name="Amacron" unicode="&#x100;" horiz-adv-x="630" 
d="M167 280h282l-61 376h-2zM362 714h74l130 -714h-71l-36 222h-326l-132 -222h-75zM204 764l8 45h256l-8 -45h-256z" />
    <glyph glyph-name="amacron" unicode="&#x101;" horiz-adv-x="519" 
d="M62 362q11 84 71 126.5t147 42.5q41 0 78.5 -8.5t69 -36t31.5 -70.5q0 -40 -32 -174q-7 -35 -15 -70t-11.5 -49.5t-5.5 -29t-2 -25.5q0 -21 33 -21q7 0 25 2l-9 -49q-28 -5 -52 -5q-54 0 -55 55q0 10 2 28l-2 2q-26 -44 -75 -69t-104 -25q-75 0 -119.5 35t-44.5 107
q0 75 48 110.5t130 49.5q33 5 88 7t76 8q33 9 47.5 30.5t14.5 70.5q0 74 -109 74q-144 0 -162 -116h-63zM374 276l-2 2q-5 -6 -14 -10.5t-17.5 -7.5t-22 -5t-20.5 -2.5t-22 -2t-18 -1.5q-27 -2 -36.5 -2.5t-37 -4t-40 -8t-33.5 -13.5t-31 -20.5t-18 -29.5t-8 -40
q0 -47 33 -70t82 -23q74 0 122 40t63 111zM166 586l8 45h256l-8 -45h-256z" />
    <glyph glyph-name="Abreve" unicode="&#x102;" horiz-adv-x="630" 
d="M167 280h282l-61 376h-2zM362 714h74l130 -714h-71l-36 222h-326l-132 -222h-75zM204 894h38q4 -85 90 -85q90 0 118 85h37q-10 -59 -53.5 -94.5t-104.5 -35.5q-59 0 -93 36t-32 94z" />
    <glyph glyph-name="abreve" unicode="&#x103;" horiz-adv-x="519" 
d="M62 362q11 84 71 126.5t147 42.5q41 0 78.5 -8.5t69 -36t31.5 -70.5q0 -40 -32 -174q-7 -35 -15 -70t-11.5 -49.5t-5.5 -29t-2 -25.5q0 -21 33 -21q7 0 25 2l-9 -49q-28 -5 -52 -5q-54 0 -55 55q0 10 2 28l-2 2q-26 -44 -75 -69t-104 -25q-75 0 -119.5 35t-44.5 107
q0 75 48 110.5t130 49.5q33 5 88 7t76 8q33 9 47.5 30.5t14.5 70.5q0 74 -109 74q-144 0 -162 -116h-63zM374 276l-2 2q-5 -6 -14 -10.5t-17.5 -7.5t-22 -5t-20.5 -2.5t-22 -2t-18 -1.5q-27 -2 -36.5 -2.5t-37 -4t-40 -8t-33.5 -13.5t-31 -20.5t-18 -29.5t-8 -40
q0 -47 33 -70t82 -23q74 0 122 40t63 111zM166 716h38q4 -85 90 -85q90 0 118 85h37q-10 -59 -53.5 -94.5t-104.5 -35.5q-59 0 -93 36t-32 94z" />
    <glyph glyph-name="Aogonek" unicode="&#x104;" horiz-adv-x="630" 
d="M436 714l130 -714q-114 -74 -114 -131q0 -27 25 -27q35 0 72 45l29 -25q-47 -65 -114 -65q-79 0 -79 56q0 49 39 87.5t84 59.5h-13l-36 222h-326l-132 -222h-75l436 714h74zM167 280h282l-61 376h-2z" />
    <glyph glyph-name="aogonek" unicode="&#x105;" horiz-adv-x="519" 
d="M125 362h-63q11 84 71 126.5t147 42.5q41 0 78.5 -8.5t69 -36t31.5 -70.5q0 -40 -32 -174q-7 -35 -15 -70t-11.5 -49.5t-5.5 -29t-2 -25.5q0 -21 33 -21q7 0 25 2l-9 -49q-114 -74 -114 -131q0 -27 25 -27q35 0 72 45l29 -25q-47 -65 -114 -65q-79 0 -79 56q0 69 84 126
q4 3 30 17q-38 7 -40 54q0 10 2 28l-2 2q-26 -44 -75 -69t-104 -25q-75 0 -119.5 35t-44.5 107q0 75 48 110.5t130 49.5q33 5 88 7t76 8q33 9 47.5 30.5t14.5 70.5q0 74 -109 74q-144 0 -162 -116zM374 276l-2 2q-5 -6 -14 -10.5t-17.5 -7.5t-22 -5t-20.5 -2.5t-22 -2
t-18 -1.5q-27 -2 -36.5 -2.5t-37 -4t-40 -8t-33.5 -13.5t-31 -20.5t-18 -29.5t-8 -40q0 -47 33 -70t82 -23q74 0 122 40t63 111z" />
    <glyph glyph-name="Cacute" unicode="&#x106;" horiz-adv-x="704" 
d="M688 488h-68q-2 89 -54.5 136t-144.5 47q-78 0 -140 -33t-100.5 -88.5t-58.5 -124t-20 -142.5q0 -110 63 -175t173 -65q85 0 150.5 54t91.5 147h68q-25 -117 -107 -187.5t-214 -70.5q-138 0 -215.5 82.5t-77.5 220.5q0 116 45 215t135 162t208 63q117 0 190.5 -62.5
t75.5 -178.5zM489 907h81l-144 -144h-53z" />
    <glyph glyph-name="cacute" unicode="&#x107;" horiz-adv-x="519" 
d="M487 355h-63q4 56 -31.5 89.5t-92.5 33.5q-72 0 -124 -43t-75.5 -105t-23.5 -132q0 -72 36.5 -116t107.5 -44q61 0 105 35t65 94h63q-59 -181 -241 -181q-95 0 -147 57t-52 155q0 83 32.5 158t98 125t149.5 50q89 0 142 -44.5t51 -131.5zM367 729h81l-144 -144h-53z" />
    <glyph glyph-name="Ccircumflex" unicode="&#x108;" horiz-adv-x="704" 
d="M620 488q-2 89 -54.5 136t-144.5 47q-78 0 -140 -33t-100.5 -88.5t-58.5 -124t-20 -142.5q0 -110 63 -175t173 -65q85 0 150.5 54t91.5 147h68q-25 -117 -107 -187.5t-214 -70.5q-138 0 -215.5 82.5t-77.5 220.5q0 116 45 215t135 162t208 63q117 0 190.5 -62.5
t75.5 -178.5h-68zM383 779h-60l135 144h63l86 -144h-57l-66 106z" />
    <glyph glyph-name="ccircumflex" unicode="&#x109;" horiz-adv-x="519" 
d="M424 355q4 56 -31.5 89.5t-92.5 33.5q-72 0 -124 -43t-75.5 -105t-23.5 -132q0 -72 36.5 -116t107.5 -44q61 0 105 35t65 94h63q-59 -181 -241 -181q-95 0 -147 57t-52 155q0 83 32.5 158t98 125t149.5 50q89 0 142 -44.5t51 -131.5h-63zM253 585h-60l135 144h63l86 -144
h-57l-66 106z" />
    <glyph glyph-name="Cdotaccent" unicode="&#x10a;" horiz-adv-x="704" 
d="M620 488q-2 89 -54.5 136t-144.5 47q-78 0 -140 -33t-100.5 -88.5t-58.5 -124t-20 -142.5q0 -110 63 -175t173 -65q85 0 150.5 54t91.5 147h68q-25 -117 -107 -187.5t-214 -70.5q-138 0 -215.5 82.5t-77.5 220.5q0 116 45 215t135 162t208 63q117 0 190.5 -62.5
t75.5 -178.5h-68zM437 881h64l-20 -102h-63z" />
    <glyph glyph-name="cdotaccent" unicode="&#x10b;" horiz-adv-x="519" 
d="M424 355q4 56 -31.5 89.5t-92.5 33.5q-72 0 -124 -43t-75.5 -105t-23.5 -132q0 -72 36.5 -116t107.5 -44q61 0 105 35t65 94h63q-59 -181 -241 -181q-95 0 -147 57t-52 155q0 83 32.5 158t98 125t149.5 50q89 0 142 -44.5t51 -131.5h-63zM307 688h64l-20 -102h-63z" />
    <glyph glyph-name="Ccaron" unicode="&#x10c;" horiz-adv-x="704" 
d="M620 488q-2 89 -54.5 136t-144.5 47q-78 0 -140 -33t-100.5 -88.5t-58.5 -124t-20 -142.5q0 -110 63 -175t173 -65q85 0 150.5 54t91.5 147h68q-25 -117 -107 -187.5t-214 -70.5q-138 0 -215.5 82.5t-77.5 220.5q0 116 45 215t135 162t208 63q117 0 190.5 -62.5
t75.5 -178.5h-68zM546 923h61l-136 -144h-63l-86 144h57l66 -109z" />
    <glyph glyph-name="ccaron" unicode="&#x10d;" horiz-adv-x="519" 
d="M424 355q4 56 -31.5 89.5t-92.5 33.5q-72 0 -124 -43t-75.5 -105t-23.5 -132q0 -72 36.5 -116t107.5 -44q61 0 105 35t65 94h63q-59 -181 -241 -181q-95 0 -147 57t-52 155q0 83 32.5 158t98 125t149.5 50q89 0 142 -44.5t51 -131.5h-63zM416 729h61l-136 -144h-63
l-86 144h57l66 -109z" />
    <glyph glyph-name="Dcaron" unicode="&#x10e;" horiz-adv-x="685" 
d="M160 714h230q146 0 209 -74t63 -212q0 -115 -43 -210.5t-134 -156.5t-214 -61h-266zM86 58h172q86 -1 152 30.5t105.5 86.5t59 122.5t19.5 143.5q0 215 -215 215h-163zM516 908h61l-136 -144h-63l-86 144h57l66 -109z" />
    <glyph glyph-name="dcaron" unicode="&#x10f;" horiz-adv-x="852" 
d="M438 0h-61l23 93h-2q-35 -54 -79 -80.5t-109 -26.5q-97 0 -146.5 56t-49.5 154q0 81 33.5 156.5t99.5 127t149 51.5q136 0 168 -112h2l62 295h63zM216 38q68 0 121 47t78.5 112t25.5 132q0 70 -38 109.5t-106 39.5q-52 0 -95 -27t-69.5 -69.5t-41 -92t-14.5 -97.5
q0 -69 35 -111.5t104 -42.5zM692 511q31 9 45 32t24 65h-42l24 106h84l-33 -140q-12 -47 -36 -69t-74 -34z" />
    <glyph glyph-name="Dcroat" unicode="&#x110;" horiz-adv-x="685" 
d="M159 393h213l-10 -45h-213l-63 -290h172q86 -1 152 30.5t105.5 86.5t59 122.5t19.5 143.5q0 215 -215 215h-163zM12 393h79l69 321h230q146 0 209 -74t63 -212q0 -115 -43 -210.5t-134 -156.5t-214 -61h-266l76 348h-79z" />
    <glyph glyph-name="dslash" unicode="&#x111;" 
d="M416 626h93l19 88h63l-19 -88h103l-10 -53h-104l-123 -573h-61l23 93h-2q-35 -54 -79 -80.5t-109 -26.5q-97 0 -146.5 56t-49.5 154q0 81 33.5 156.5t99.5 127t149 51.5q136 0 168 -112h2l32 154h-94zM216 38q68 0 121 47t78.5 112t25.5 132q0 70 -38 109.5t-106 39.5
q-52 0 -95 -27t-69.5 -69.5t-41 -92t-14.5 -97.5q0 -69 35 -111.5t104 -42.5z" />
    <glyph glyph-name="Emacron" unicode="&#x112;" 
d="M157 714h479l-13 -58h-410l-55 -258h383l-13 -58h-382l-60 -282h420l-13 -58h-488zM279 764l8 45h256l-8 -45h-256z" />
    <glyph glyph-name="emacron" unicode="&#x113;" horiz-adv-x="519" 
d="M425 294q0 8 0.5 21t0.5 19q0 66 -37.5 105t-103.5 39q-74 0 -127 -54t-70 -130h337zM80 241q-3 -18 -3 -40q0 -73 38 -118t112 -45q62 0 106.5 35t62.5 93h63q-54 -180 -235 -180q-102 0 -156 57.5t-54 160.5q0 84 32 157.5t97 121.5t150 48q92 0 144 -55t52 -146
q0 -50 -5 -89h-404zM192 586l8 45h256l-8 -45h-256z" />
    <glyph glyph-name="Ebreve" unicode="&#x114;" 
d="M157 714h479l-13 -58h-410l-55 -258h383l-13 -58h-382l-60 -282h420l-13 -58h-488zM279 894h38q4 -85 90 -85q90 0 118 85h37q-10 -59 -53.5 -94.5t-104.5 -35.5q-59 0 -93 36t-32 94z" />
    <glyph glyph-name="ebreve" unicode="&#x115;" horiz-adv-x="519" 
d="M425 294q0 8 0.5 21t0.5 19q0 66 -37.5 105t-103.5 39q-74 0 -127 -54t-70 -130h337zM80 241q-3 -18 -3 -40q0 -73 38 -118t112 -45q62 0 106.5 35t62.5 93h63q-54 -180 -235 -180q-102 0 -156 57.5t-54 160.5q0 84 32 157.5t97 121.5t150 48q92 0 144 -55t52 -146
q0 -50 -5 -89h-404zM192 716h38q4 -85 90 -85q90 0 118 85h37q-10 -59 -53.5 -94.5t-104.5 -35.5q-59 0 -93 36t-32 94z" />
    <glyph glyph-name="Edotaccent" unicode="&#x116;" 
d="M157 714h479l-13 -58h-410l-55 -258h383l-13 -58h-382l-60 -282h420l-13 -58h-488zM394 866h64l-20 -102h-63z" />
    <glyph glyph-name="edotaccent" unicode="&#x117;" horiz-adv-x="519" 
d="M425 294q0 8 0.5 21t0.5 19q0 66 -37.5 105t-103.5 39q-74 0 -127 -54t-70 -130h337zM80 241q-3 -18 -3 -40q0 -73 38 -118t112 -45q62 0 106.5 35t62.5 93h63q-54 -180 -235 -180q-102 0 -156 57.5t-54 160.5q0 84 32 157.5t97 121.5t150 48q92 0 144 -55t52 -146
q0 -50 -5 -89h-404zM307 688h64l-20 -102h-63z" />
    <glyph glyph-name="Eogonek" unicode="&#x118;" 
d="M157 714h479l-13 -58h-410l-55 -258h383l-13 -58h-382l-60 -282h420l-13 -58h-49q-114 -74 -114 -131q0 -27 25 -27q35 0 72 45l29 -25q-47 -65 -114 -65q-79 0 -79 56q0 49 39 87.5t84 59.5h-381z" />
    <glyph glyph-name="eogonek" unicode="&#x119;" horiz-adv-x="519" 
d="M484 241h-404q-3 -18 -3 -40q0 -73 38 -118t112 -45q62 0 106.5 35t62.5 93h63q-25 -87 -84 -134q-27 -22 -62 -33q-60 -39 -85 -72q-27 -35 -27 -58q0 -27 25 -27q35 0 72 45l29 -25q-47 -65 -114 -65q-79 0 -79 56q0 69 84 126q4 3 12 7h-6q-102 0 -156 57.5t-54 160.5
q0 84 32 157.5t97 121.5t150 48q92 0 144 -55t52 -146q0 -50 -5 -89zM88 294h337q0 8 0.5 21t0.5 19q0 66 -37.5 105t-103.5 39q-74 0 -127 -54t-70 -130z" />
    <glyph glyph-name="Ecaron" unicode="&#x11a;" 
d="M157 714h479l-13 -58h-410l-55 -258h383l-13 -58h-382l-60 -282h420l-13 -58h-488zM503 908h61l-136 -144h-63l-86 144h57l66 -109z" />
    <glyph glyph-name="ecaron" unicode="&#x11b;" horiz-adv-x="519" 
d="M425 294q0 8 0.5 21t0.5 19q0 66 -37.5 105t-103.5 39q-74 0 -127 -54t-70 -130h337zM80 241q-3 -18 -3 -40q0 -73 38 -118t112 -45q62 0 106.5 35t62.5 93h63q-54 -180 -235 -180q-102 0 -156 57.5t-54 160.5q0 84 32 157.5t97 121.5t150 48q92 0 144 -55t52 -146
q0 -50 -5 -89h-404zM416 729h61l-136 -144h-63l-86 144h57l66 -109z" />
    <glyph glyph-name="Gcircumflex" unicode="&#x11c;" horiz-adv-x="741" 
d="M638 494q-4 88 -62 132.5t-159 44.5q-91 0 -164.5 -56t-112 -143t-38.5 -184q0 -113 59.5 -179t171.5 -66q114 0 190 73t95 189h-246l14 58h305l-75 -363h-46l12 120h-2q-84 -134 -259 -134q-137 0 -212 79.5t-75 218.5q0 118 43 217.5t133.5 163.5t212.5 64
q135 0 207 -61t76 -174h-68zM392 779h-60l135 144h63l86 -144h-57l-66 106z" />
    <glyph glyph-name="gcircumflex" unicode="&#x11d;" horiz-adv-x="556" 
d="M438 54q-29 -139 -86 -199t-173 -60q-87 0 -141.5 40t-56.5 127h62q0 -61 41 -87.5t104 -26.5q33 0 60 9t46.5 27.5t33 36.5t24 46.5t16 47t12.5 49t10 40.5l-2 2q-26 -45 -74.5 -70t-101.5 -25q-90 0 -140.5 59t-50.5 151q0 78 31 147.5t92.5 116t140.5 46.5
q62 0 111 -31.5t58 -89.5h2l22 106h58zM84 226q0 -70 35.5 -116t103.5 -46q90 0 148 80.5t58 175.5q0 73 -34 115.5t-107 42.5q-91 0 -147.5 -78.5t-56.5 -173.5zM281 585h-60l135 144h63l86 -144h-57l-66 106z" />
    <glyph glyph-name="Gbreve" unicode="&#x11e;" horiz-adv-x="741" 
d="M638 494q-4 88 -62 132.5t-159 44.5q-91 0 -164.5 -56t-112 -143t-38.5 -184q0 -113 59.5 -179t171.5 -66q114 0 190 73t95 189h-246l14 58h305l-75 -363h-46l12 120h-2q-84 -134 -259 -134q-137 0 -212 79.5t-75 218.5q0 118 43 217.5t133.5 163.5t212.5 64
q135 0 207 -61t76 -174h-68zM331 909h38q4 -85 90 -85q90 0 118 85h37q-10 -59 -53.5 -94.5t-104.5 -35.5q-59 0 -93 36t-32 94z" />
    <glyph glyph-name="gbreve" unicode="&#x11f;" horiz-adv-x="556" 
d="M438 54q-29 -139 -86 -199t-173 -60q-87 0 -141.5 40t-56.5 127h62q0 -61 41 -87.5t104 -26.5q33 0 60 9t46.5 27.5t33 36.5t24 46.5t16 47t12.5 49t10 40.5l-2 2q-26 -45 -74.5 -70t-101.5 -25q-90 0 -140.5 59t-50.5 151q0 78 31 147.5t92.5 116t140.5 46.5
q62 0 111 -31.5t58 -89.5h2l22 106h58zM84 226q0 -70 35.5 -116t103.5 -46q90 0 148 80.5t58 175.5q0 73 -34 115.5t-107 42.5q-91 0 -147.5 -78.5t-56.5 -173.5zM220 716h38q4 -85 90 -85q90 0 118 85h37q-10 -59 -53.5 -94.5t-104.5 -35.5q-59 0 -93 36t-32 94z" />
    <glyph glyph-name="Gdotaccent" unicode="&#x120;" horiz-adv-x="741" 
d="M638 494q-4 88 -62 132.5t-159 44.5q-91 0 -164.5 -56t-112 -143t-38.5 -184q0 -113 59.5 -179t171.5 -66q114 0 190 73t95 189h-246l14 58h305l-75 -363h-46l12 120h-2q-84 -134 -259 -134q-137 0 -212 79.5t-75 218.5q0 118 43 217.5t133.5 163.5t212.5 64
q135 0 207 -61t76 -174h-68zM446 881h64l-20 -102h-63z" />
    <glyph glyph-name="gdotaccent" unicode="&#x121;" horiz-adv-x="556" 
d="M438 54q-29 -139 -86 -199t-173 -60q-87 0 -141.5 40t-56.5 127h62q0 -61 41 -87.5t104 -26.5q33 0 60 9t46.5 27.5t33 36.5t24 46.5t16 47t12.5 49t10 40.5l-2 2q-26 -45 -74.5 -70t-101.5 -25q-90 0 -140.5 59t-50.5 151q0 78 31 147.5t92.5 116t140.5 46.5
q62 0 111 -31.5t58 -89.5h2l22 106h58zM84 226q0 -70 35.5 -116t103.5 -46q90 0 148 80.5t58 175.5q0 73 -34 115.5t-107 42.5q-91 0 -147.5 -78.5t-56.5 -173.5zM335 688h64l-20 -102h-63z" />
    <glyph glyph-name="Gcommaaccent" unicode="&#x122;" horiz-adv-x="741" 
d="M706 494h-68q-4 88 -62 132.5t-159 44.5q-91 0 -164.5 -56t-112 -143t-38.5 -184q0 -113 59.5 -179t171.5 -66q114 0 190 73t95 189h-246l14 58h305l-75 -363h-46l12 120h-2q-84 -134 -259 -134q-137 0 -212 79.5t-75 218.5q0 118 43 217.5t133.5 163.5t212.5 64
q135 0 207 -61t76 -174zM210 -299l8 40q31 9 45 32t24 65h-42l24 106h84l-33 -140q-12 -47 -36 -69t-74 -34z" />
    <glyph glyph-name="gcommaaccent" unicode="&#x123;" horiz-adv-x="556" 
d="M536 516l-98 -462q-29 -139 -86 -199t-173 -60q-87 0 -141.5 40t-56.5 127h62q0 -61 41 -87.5t104 -26.5q33 0 60 9t46.5 27.5t33 36.5t24 46.5t16 47t12.5 49t10 40.5l-2 2q-26 -45 -74.5 -70t-101.5 -25q-90 0 -140.5 59t-50.5 151q0 78 31 147.5t92.5 116t140.5 46.5
q62 0 111 -31.5t58 -89.5h2l22 106h58zM84 226q0 -70 35.5 -116t103.5 -46q90 0 148 80.5t58 175.5q0 73 -34 115.5t-107 42.5q-91 0 -147.5 -78.5t-56.5 -173.5zM421 884l-8 -40q-22 -6 -37 -22.5t-20 -31t-12 -43.5h42l-24 -105h-84l33 139q12 46 36 68.5t74 34.5z" />
    <glyph glyph-name="Hcircumflex" unicode="&#x124;" horiz-adv-x="704" 
d="M157 714h68l-66 -310h413l66 310h68l-152 -714h-68l74 346h-413l-74 -346h-68zM375 764h-60l135 144h63l86 -144h-57l-66 106z" />
    <glyph glyph-name="hcircumflex" unicode="&#x125;" horiz-adv-x="537" 
d="M143 714h63l-63 -292h2q28 48 76.5 78.5t104.5 30.5q72 0 114 -34t42 -105q0 -18 -8 -61l-71 -331h-63l72 333q7 28 7 52q0 48 -30.5 70.5t-77.5 22.5q-69 0 -125.5 -58t-76.5 -155l-57 -265h-62zM255 764h-60l135 144h63l86 -144h-57l-66 106z" />
    <glyph glyph-name="Hbar" unicode="&#x126;" horiz-adv-x="704" 
d="M21 570h105l31 144h68l-31 -144h413l31 144h68l-31 -144h115l-10 -53h-116l-110 -517h-68l74 346h-413l-74 -346h-68l110 517h-106zM159 404h413l24 113h-413z" />
    <glyph glyph-name="hbar" unicode="&#x127;" horiz-adv-x="537" 
d="M26 626h98l19 88h63l-19 -88h98l-10 -53h-100l-32 -151h2q28 48 76.5 78.5t104.5 30.5q72 0 114 -34t42 -105q0 -18 -8 -61l-71 -331h-63l72 333q7 28 7 52q0 48 -30.5 70.5t-77.5 22.5q-69 0 -125.5 -58t-76.5 -155l-57 -265h-62l123 573h-99z" />
    <glyph glyph-name="Itilde" unicode="&#x128;" horiz-adv-x="222" 
d="M156 714h68l-151 -714h-68zM329 865h40q-9 -42 -29 -67q-26 -34 -60 -34q-26 0 -76 27q-46 29 -64 29q-17 0 -30.5 -18t-17.5 -38h-40q10 42 33 71.5t59 29.5q24 0 70 -26q46 -30 70 -30q14 0 26.5 18.5t18.5 37.5z" />
    <glyph glyph-name="itilde" unicode="&#x129;" horiz-adv-x="185" 
d="M-10 0l110 516h63l-111 -516h-62zM271 672h40q-9 -42 -29 -67q-26 -34 -60 -34q-26 0 -76 27q-46 29 -64 29q-17 0 -30.5 -18t-17.5 -38h-40q10 42 33 71.5t59 29.5q24 0 70 -26q46 -30 70 -30q14 0 26.5 18.5t18.5 37.5z" />
    <glyph glyph-name="Imacron" unicode="&#x12a;" horiz-adv-x="222" 
d="M156 714h68l-151 -714h-68zM73 764l8 45h256l-8 -45h-256z" />
    <glyph glyph-name="imacron" unicode="&#x12b;" horiz-adv-x="185" 
d="M-10 0l110 516h63l-111 -516h-62zM15 571l8 45h256l-8 -45h-256z" />
    <glyph glyph-name="Ibreve" unicode="&#x12c;" horiz-adv-x="222" 
d="M156 714h68l-151 -714h-68zM119 891q4 -85 90 -85q90 0 118 85h37q-10 -59 -53.5 -94.5t-104.5 -35.5q-59 0 -93 36t-32 94h38z" />
    <glyph glyph-name="ibreve" unicode="&#x12d;" horiz-adv-x="185" 
d="M-10 0l110 516h63l-111 -516h-62zM67 699q4 -85 90 -85q90 0 118 85h37q-10 -59 -53.5 -94.5t-104.5 -35.5q-59 0 -93 36t-32 94h38z" />
    <glyph glyph-name="Iogonek" unicode="&#x12e;" horiz-adv-x="222" 
d="M156 714h68l-151 -714h-68zM102 0h-58q-45 -21 -84 -59.5t-39 -87.5q0 -56 79 -56q67 0 114 65l-29 25q-37 -45 -72 -45q-25 0 -25 27q0 57 114 131z" />
    <glyph glyph-name="iogonek" unicode="&#x12f;" horiz-adv-x="185" 
d="M143 714h63l-22 -101h-63zM100 516h63l-111 -516h-62zM85 0h-58q-45 -21 -84 -59.5t-39 -87.5q0 -56 79 -56q67 0 114 65l-29 25q-37 -45 -72 -45q-25 0 -25 27q0 57 114 131z" />
    <glyph glyph-name="Idot" unicode="&#x130;" horiz-adv-x="222" 
d="M156 714h68l-151 -714h-68zM195 872h64l-20 -102h-63z" />
    <glyph glyph-name="dotlessi" unicode="&#x131;" horiz-adv-x="185" 
d="M-10 0l110 516h63l-111 -516h-62z" />
    <glyph glyph-name="IJ" unicode="&#x132;" horiz-adv-x="722" 
d="M156 714h68l-151 -714h-68zM279 229q-9 -52 -9 -88q0 -51 34.5 -74.5t89.5 -23.5q71 0 103.5 42.5t49.5 119.5l109 509h68l-114 -534q-21 -98 -72 -146t-149 -48q-86 0 -136 39t-50 123q0 42 9 81h67z" />
    <glyph glyph-name="ij" unicode="&#x133;" horiz-adv-x="370" 
d="M143 714h63l-22 -101h-63zM100 516h63l-111 -516h-62zM327 714h64l-22 -101h-63zM285 516h63l-129 -603q-13 -53 -41 -78t-85 -25q-8 0 -23 2.5t-21 2.5l12 52q4 0 16.5 -2t19.5 -2q46 0 61 52z" />
    <glyph glyph-name="Jcircumflex" unicode="&#x134;" horiz-adv-x="500" 
d="M57 229q-9 -52 -9 -88q0 -51 34.5 -74.5t89.5 -23.5q71 0 103.5 42.5t49.5 119.5l109 509h68l-114 -534q-21 -98 -72 -146t-149 -48q-86 0 -136 39t-50 123q0 42 9 81h67zM405 753h-60l135 144h63l86 -144h-57l-66 106z" />
    <glyph glyph-name="jcircumflex" unicode="&#x135;" horiz-adv-x="185" 
d="M100 516h63l-129 -603q-13 -53 -41 -78t-85 -25q-8 0 -23 2.5t-21 2.5l12 52q4 0 16.5 -2t19.5 -2q46 0 61 52zM58 585h-60l135 144h63l86 -144h-57l-66 106z" />
    <glyph glyph-name="Kcommaaccent" unicode="&#x136;" horiz-adv-x="648" 
d="M157 714h68l-82 -381l2 -2l461 383h95l-366 -298l255 -416h-78l-227 374l-159 -127l-53 -247h-68zM190 -299l8 40q31 9 45 32t24 65h-42l24 106h84l-33 -140q-12 -47 -36 -69t-74 -34z" />
    <glyph glyph-name="kcommaaccent" unicode="&#x137;" horiz-adv-x="463" 
d="M141 714h63l-96 -448l2 -2l302 252h84l-244 -199l156 -317h-69l-137 279l-110 -92l-40 -187h-62zM80 -299l8 40q31 9 45 32t24 65h-42l24 106h84l-33 -140q-12 -47 -36 -69t-74 -34z" />
    <glyph glyph-name="kgreenlandic" unicode="&#x138;" horiz-adv-x="463" 
d="M99 516h63l-54 -250l2 -2l302 252h84l-244 -199l156 -317h-69l-137 279l-110 -92l-40 -187h-62z" />
    <glyph glyph-name="Lacute" unicode="&#x139;" horiz-adv-x="537" 
d="M159 714h68l-141 -656h395l-14 -58h-462zM361 908h81l-144 -144h-53z" />
    <glyph glyph-name="lacute" unicode="&#x13a;" horiz-adv-x="185" 
d="M143 714h63l-154 -714h-62zM216 908h81l-144 -144h-53z" />
    <glyph glyph-name="Lcommaaccent" unicode="&#x13b;" horiz-adv-x="537" 
d="M159 714h68l-141 -656h395l-14 -58h-462zM130 -299l8 40q31 9 45 32t24 65h-42l24 106h84l-33 -140q-12 -47 -36 -69t-74 -34z" />
    <glyph glyph-name="lcommaaccent" unicode="&#x13c;" horiz-adv-x="185" 
d="M143 714h63l-154 -714h-62zM-90 -299l8 40q31 9 45 32t24 65h-42l24 106h84l-33 -140q-12 -47 -36 -69t-74 -34z" />
    <glyph glyph-name="Lcaron" unicode="&#x13d;" horiz-adv-x="537" 
d="M159 714h68l-141 -656h395l-14 -58h-462zM425 908h61l-136 -144h-63l-86 144h57l66 -109z" />
    <glyph glyph-name="lcaron" unicode="&#x13e;" horiz-adv-x="270" 
d="M225 447l62 267h51l-62 -267h-51zM143 714h63l-154 -714h-62z" />
    <glyph glyph-name="Ldot" unicode="&#x13f;" horiz-adv-x="537" 
d="M159 714h68l-141 -656h395l-14 -58h-462zM313 301l23 106h85l-24 -106h-84z" />
    <glyph glyph-name="ldot" unicode="&#x140;" horiz-adv-x="350" 
d="M143 714h63l-154 -714h-62zM213 300l23 106h85l-24 -106h-84z" />
    <glyph glyph-name="Lslash" unicode="&#x141;" horiz-adv-x="537" 
d="M159 714h68l-77 -359l252 153l-9 -54l-255 -155l-52 -241h395l-14 -58h-462l54 251l-93 -57l12 56l93 57z" />
    <glyph glyph-name="lslash" unicode="&#x142;" horiz-adv-x="185" 
d="M143 714h63l-58 -268l78 56l-11 -55l-79 -56l-84 -391h-62l72 338l-74 -53l12 55l74 53z" />
    <glyph glyph-name="Nacute" unicode="&#x143;" horiz-adv-x="704" 
d="M154 714h77l285 -638h2l132 638h66l-156 -714h-75l-285 638h-2l-133 -638h-65zM489 907h81l-144 -144h-53z" />
    <glyph glyph-name="nacute" unicode="&#x144;" horiz-adv-x="537" 
d="M100 516h58l-18 -94h2q31 48 80 78.5t104 30.5q72 0 114 -34t42 -105q0 -18 -8 -61l-71 -331h-63l72 333q7 28 7 52q0 48 -30.5 70.5t-77.5 22.5q-69 0 -125.5 -58t-76.5 -155l-57 -265h-62zM376 729h81l-144 -144h-53z" />
    <glyph glyph-name="Ncommaaccent" unicode="&#x145;" horiz-adv-x="704" 
d="M154 714h77l285 -638h2l132 638h66l-156 -714h-75l-285 638h-2l-133 -638h-65zM160 -299l8 40q31 9 45 32t24 65h-42l24 106h84l-33 -140q-12 -47 -36 -69t-74 -34z" />
    <glyph glyph-name="ncommaaccent" unicode="&#x146;" horiz-adv-x="537" 
d="M100 516h58l-18 -94h2q31 48 80 78.5t104 30.5q72 0 114 -34t42 -105q0 -18 -8 -61l-71 -331h-63l72 333q7 28 7 52q0 48 -30.5 70.5t-77.5 22.5q-69 0 -125.5 -58t-76.5 -155l-57 -265h-62zM80 -299l8 40q31 9 45 32t24 65h-42l24 106h84l-33 -140q-12 -47 -36 -69
t-74 -34z" />
    <glyph glyph-name="Ncaron" unicode="&#x147;" horiz-adv-x="704" 
d="M154 714h77l285 -638h2l132 638h66l-156 -714h-75l-285 638h-2l-133 -638h-65zM540 908h61l-136 -144h-63l-86 144h57l66 -109z" />
    <glyph glyph-name="ncaron" unicode="&#x148;" horiz-adv-x="537" 
d="M100 516h58l-18 -94h2q31 48 80 78.5t104 30.5q72 0 114 -34t42 -105q0 -18 -8 -61l-71 -331h-63l72 333q7 28 7 52q0 48 -30.5 70.5t-77.5 22.5q-69 0 -125.5 -58t-76.5 -155l-57 -265h-62zM400 729h61l-136 -144h-63l-86 144h57l66 -109z" />
    <glyph glyph-name="napostrophe" unicode="&#x149;" horiz-adv-x="676" 
d="M87 503q31 9 45 32t24 65h-42l24 106h84l-33 -140q-12 -47 -36 -69t-74 -34zM239 516h58l-18 -94h2q31 48 80 78.5t104 30.5q72 0 114 -34t42 -105q0 -18 -8 -61l-71 -331h-63l72 333q7 28 7 52q0 48 -30.5 70.5t-77.5 22.5q-69 0 -125.5 -58t-76.5 -155l-57 -265h-62z
" />
    <glyph glyph-name="Eng" unicode="&#x14a;" horiz-adv-x="704" 
d="M609 516l41 198h64l-171 -801q-13 -53 -41 -78t-85 -25q-8 0 -22 2q-9 1 -63 61l53 -6q4 0 16.5 -2t19.5 -2q46 0 61 52l3 85l-287 638l-133 -638h-65l154 714h77l285 -638z" />
    <glyph glyph-name="eng" unicode="&#x14b;" horiz-adv-x="537" 
d="M323 -85l89 418q7 28 7 52q0 48 -30.5 70.5t-77.5 22.5q-69 0 -125.5 -58t-76.5 -155l-57 -265h-62l110 516h58l-16 -94q31 48 80 78.5t104 30.5q72 0 114 -34t42 -105q0 -19 -11 -60l-87 -419q-13 -53 -41 -78t-85 -25q-8 0 -23 2.5t-21 2.5l12 52q4 0 16.5 -2t19.5 -2
q46 0 61 52z" />
    <glyph glyph-name="Omacron" unicode="&#x14c;" horiz-adv-x="741" 
d="M327 -14q-138 0 -215.5 82.5t-77.5 220.5q0 116 45 215t135 162t208 63q136 0 216 -81.5t80 -217.5q0 -88 -26 -167.5t-74.5 -141.5t-123.5 -98.5t-167 -36.5zM650 413q0 116 -58 187t-171 71q-78 0 -140 -33t-100.5 -88.5t-58.5 -124t-20 -142.5q0 -110 63 -175t173 -65
q93 0 166 56t109.5 139.5t36.5 174.5zM337 779l8 45h256l-8 -45h-256z" />
    <glyph glyph-name="omacron" unicode="&#x14d;" horiz-adv-x="556" 
d="M232 38q66 0 115.5 45.5t72.5 107.5t23 125q0 74 -39 118t-113 44q-66 0 -116.5 -43.5t-74 -104.5t-23.5 -124q0 -78 39.5 -123t115.5 -45zM302 531q92 0 148 -54t56 -148q0 -90 -30.5 -166t-97.5 -126.5t-158 -50.5q-99 0 -152.5 57t-53.5 157q0 86 33 160.5t100 122.5
t155 48zM201 586l8 45h256l-8 -45h-256z" />
    <glyph glyph-name="Obreve" unicode="&#x14e;" horiz-adv-x="741" 
d="M327 -14q-138 0 -215.5 82.5t-77.5 220.5q0 116 45 215t135 162t208 63q136 0 216 -81.5t80 -217.5q0 -88 -26 -167.5t-74.5 -141.5t-123.5 -98.5t-167 -36.5zM650 413q0 116 -58 187t-171 71q-78 0 -140 -33t-100.5 -88.5t-58.5 -124t-20 -142.5q0 -110 63 -175t173 -65
q93 0 166 56t109.5 139.5t36.5 174.5zM337 909h38q4 -85 90 -85q90 0 118 85h37q-10 -59 -53.5 -94.5t-104.5 -35.5q-59 0 -93 36t-32 94z" />
    <glyph glyph-name="obreve" unicode="&#x14f;" horiz-adv-x="556" 
d="M232 38q66 0 115.5 45.5t72.5 107.5t23 125q0 74 -39 118t-113 44q-66 0 -116.5 -43.5t-74 -104.5t-23.5 -124q0 -78 39.5 -123t115.5 -45zM302 531q92 0 148 -54t56 -148q0 -90 -30.5 -166t-97.5 -126.5t-158 -50.5q-99 0 -152.5 57t-53.5 157q0 86 33 160.5t100 122.5
t155 48zM201 716h38q4 -85 90 -85q90 0 118 85h37q-10 -59 -53.5 -94.5t-104.5 -35.5q-59 0 -93 36t-32 94z" />
    <glyph glyph-name="Ohungarumlaut" unicode="&#x150;" horiz-adv-x="741" 
d="M327 -14q-138 0 -215.5 82.5t-77.5 220.5q0 116 45 215t135 162t208 63q136 0 216 -81.5t80 -217.5q0 -88 -26 -167.5t-74.5 -141.5t-123.5 -98.5t-167 -36.5zM650 413q0 116 -58 187t-171 71q-78 0 -140 -33t-100.5 -88.5t-58.5 -124t-20 -142.5q0 -110 63 -175t173 -65
q93 0 166 56t109.5 139.5t36.5 174.5zM571 923h81l-144 -144h-53zM423 923h81l-144 -144h-53z" />
    <glyph glyph-name="ohungarumlaut" unicode="&#x151;" horiz-adv-x="556" 
d="M232 38q66 0 115.5 45.5t72.5 107.5t23 125q0 74 -39 118t-113 44q-66 0 -116.5 -43.5t-74 -104.5t-23.5 -124q0 -78 39.5 -123t115.5 -45zM302 531q92 0 148 -54t56 -148q0 -90 -30.5 -166t-97.5 -126.5t-158 -50.5q-99 0 -152.5 57t-53.5 157q0 86 33 160.5t100 122.5
t155 48zM435 729h81l-144 -144h-53zM287 729h81l-144 -144h-53z" />
    <glyph glyph-name="OE" unicode="&#x152;" horiz-adv-x="1037" 
d="M652 398h350l-13 -58h-350l-59 -282h389l-13 -58h-455l14 64l-2 2q-58 -80 -188 -80q-139 0 -209 85t-70 227q0 81 26 157.5t73 137.5t120 98.5t160 37.5q142 0 211 -103l19 88h444l-13 -58h-380zM607 513q4 17 4 28q0 61 -59.5 95.5t-132.5 34.5q-92 0 -163.5 -56.5
t-106.5 -141t-35 -177.5q0 -108 54.5 -180.5t159.5 -72.5q79 0 139 46t76 121z" />
    <glyph glyph-name="oe" unicode="&#x153;" horiz-adv-x="907" 
d="M803 294q3 24 3 44q-2 62 -36 101t-100 39q-77 0 -124.5 -51t-64.5 -133h322zM295 478q-66 0 -116 -46.5t-72 -109.5t-22 -127q0 -70 34 -113.5t102 -43.5q54 0 96 30t64.5 78.5t33.5 99t11 100.5q0 60 -35.5 96t-95.5 36zM471 241q-8 -22 -8 -68q0 -63 39 -99t103 -36
q63 0 107 34t62 94h63q-27 -86 -87 -133t-149 -47q-149 0 -182 133h-2q-28 -62 -81.5 -97.5t-121.5 -35.5q-92 0 -142 55.5t-50 151.5q0 62 19.5 122t54 108t89 78t119.5 30q66 0 112 -34t54 -97h2q31 61 87.5 96t125.5 35q92 0 138 -59t46 -150q0 -37 -11 -81h-387z" />
    <glyph glyph-name="Racute" unicode="&#x154;" horiz-adv-x="648" 
d="M153 375h241q82 0 134 40t52 116q0 64 -28.5 94.5t-93.5 30.5h-245zM157 714h304q91 0 139 -45.5t48 -132.5q0 -79 -51 -134t-130 -61v-2q91 -20 91 -128q0 -26 -5 -75.5t-5 -73.5q0 -46 12 -62h-70q-10 6 -10 73q0 21 5 64t5 64q0 116 -98 116h-252l-67 -317h-68z
M445 908h81l-144 -144h-53z" />
    <glyph glyph-name="racute" unicode="&#x155;" horiz-adv-x="315" 
d="M100 516h57l-26 -119h2q67 126 187 126h17h9q5 0 8 -1l-14 -63q-6 0 -18 0.5t-18 0.5q-78 -2 -127 -55.5t-67 -134.5l-58 -270h-62zM270 722h81l-144 -144h-53z" />
    <glyph glyph-name="Rcommaaccent" unicode="&#x156;" horiz-adv-x="648" 
d="M153 375h241q82 0 134 40t52 116q0 64 -28.5 94.5t-93.5 30.5h-245zM157 714h304q91 0 139 -45.5t48 -132.5q0 -79 -51 -134t-130 -61v-2q91 -20 91 -128q0 -26 -5 -75.5t-5 -73.5q0 -46 12 -62h-70q-10 6 -10 73q0 21 5 64t5 64q0 116 -98 116h-252l-67 -317h-68z
M160 -299l8 40q31 9 45 32t24 65h-42l24 106h84l-33 -140q-12 -47 -36 -69t-74 -34z" />
    <glyph glyph-name="rcommaaccent" unicode="&#x157;" horiz-adv-x="315" 
d="M100 516h57l-26 -119h2q67 126 187 126h17h9q5 0 8 -1l-14 -63q-6 0 -18 0.5t-18 0.5q-78 -2 -127 -55.5t-67 -134.5l-58 -270h-62zM-90 -299l8 40q31 9 45 32t24 65h-42l24 106h84l-33 -140q-12 -47 -36 -69t-74 -34z" />
    <glyph glyph-name="Rcaron" unicode="&#x158;" horiz-adv-x="648" 
d="M153 375h241q82 0 134 40t52 116q0 64 -28.5 94.5t-93.5 30.5h-245zM157 714h304q91 0 139 -45.5t48 -132.5q0 -79 -51 -134t-130 -61v-2q91 -20 91 -128q0 -26 -5 -75.5t-5 -73.5q0 -46 12 -62h-70q-10 6 -10 73q0 21 5 64t5 64q0 116 -98 116h-252l-67 -317h-68z
M509 908h61l-136 -144h-63l-86 144h57l66 -109z" />
    <glyph glyph-name="rcaron" unicode="&#x159;" horiz-adv-x="315" 
d="M100 516h57l-26 -119h2q67 126 187 126h17h9q5 0 8 -1l-14 -63q-6 0 -18 0.5t-18 0.5q-78 -2 -127 -55.5t-67 -134.5l-58 -270h-62zM334 722h61l-136 -144h-63l-86 144h57l66 -109z" />
    <glyph glyph-name="Sacute" unicode="&#x15a;" horiz-adv-x="630" 
d="M607 506h-68q0 90 -46.5 127.5t-142.5 37.5q-74 0 -128 -36.5t-54 -106.5q0 -51 31 -75.5t89 -42.5l76 -23q46 -13 73.5 -24.5t58.5 -32t45.5 -51.5t14.5 -74q0 -25 -6 -51t-24.5 -57t-47.5 -55t-80.5 -40t-117.5 -16q-127 0 -201 62.5t-68 186.5h68q-6 -100 49 -146
t157 -46q79 0 141 39.5t62 113.5q0 18 -5 34t-11 27t-20 22t-22.5 17t-28.5 13.5t-28.5 10.5t-31.5 9.5t-30 8.5l-70 21q-141 40 -141 166q0 101 74 152.5t179 51.5q119 0 189.5 -53.5t64.5 -169.5zM422 907h81l-144 -144h-53z" />
    <glyph glyph-name="sacute" unicode="&#x15b;" horiz-adv-x="481" 
d="M0 168h62q0 -70 41.5 -100t104.5 -30q49 0 89.5 24.5t40.5 70.5q-1 37 -29.5 61t-69 38.5t-81 31t-68.5 48t-29 78.5q0 69 59 105t132 36q86 0 136 -40t48 -126h-63q4 56 -30.5 84.5t-90.5 28.5q-51 0 -89.5 -20t-38.5 -68q0 -33 26.5 -52.5t82.5 -42.5q6 -3 27 -11
t30 -11.5t27 -12.5t27 -16t22 -18.5t19 -22.5t11 -26.5t5 -33.5q0 -81 -61.5 -119t-146.5 -38q-84 0 -140 45t-53 137zM338 729h81l-144 -144h-53z" />
    <glyph glyph-name="Scircumflex" unicode="&#x15c;" horiz-adv-x="630" 
d="M539 506q0 90 -46.5 127.5t-142.5 37.5q-74 0 -128 -36.5t-54 -106.5q0 -51 31 -75.5t89 -42.5l76 -23q46 -13 73.5 -24.5t58.5 -32t45.5 -51.5t14.5 -74q0 -25 -6 -51t-24.5 -57t-47.5 -55t-80.5 -40t-117.5 -16q-127 0 -201 62.5t-68 186.5h68q-6 -100 49 -146t157 -46
q79 0 141 39.5t62 113.5q0 18 -5 34t-11 27t-20 22t-22.5 17t-28.5 13.5t-28.5 10.5t-31.5 9.5t-30 8.5l-70 21q-141 40 -141 166q0 101 74 152.5t179 51.5q119 0 189.5 -53.5t64.5 -169.5h-68zM331 779h-60l135 144h63l86 -144h-57l-66 106z" />
    <glyph glyph-name="scircumflex" unicode="&#x15d;" horiz-adv-x="481" 
d="M62 168q0 -70 41.5 -100t104.5 -30q49 0 89.5 24.5t40.5 70.5q-1 37 -29.5 61t-69 38.5t-81 31t-68.5 48t-29 78.5q0 69 59 105t132 36q86 0 136 -40t48 -126h-63q4 56 -30.5 84.5t-90.5 28.5q-51 0 -89.5 -20t-38.5 -68q0 -33 26.5 -52.5t82.5 -42.5q6 -3 27 -11
t30 -11.5t27 -12.5t27 -16t22 -18.5t19 -22.5t11 -26.5t5 -33.5q0 -81 -61.5 -119t-146.5 -38q-84 0 -140 45t-53 137h62zM219 585h-60l135 144h63l86 -144h-57l-66 106z" />
    <glyph glyph-name="Scedilla" unicode="&#x15e;" horiz-adv-x="630" 
d="M539 506q0 90 -46.5 127.5t-142.5 37.5q-74 0 -128 -36.5t-54 -106.5q0 -51 31 -75.5t89 -42.5l76 -23q46 -13 73.5 -24.5t58.5 -32t45.5 -51.5t14.5 -74q0 -25 -6 -51t-24.5 -57t-47.5 -55t-80.5 -40t-117.5 -16q-127 0 -201 62.5t-68 186.5h68q-6 -100 49 -146t157 -46
q79 0 141 39.5t62 113.5q0 18 -5 34t-11 27t-20 22t-22.5 17t-28.5 13.5t-28.5 10.5t-31.5 9.5t-30 8.5l-70 21q-141 40 -141 166q0 101 74 152.5t179 51.5q119 0 189.5 -53.5t64.5 -169.5h-68zM121 -167l-14 -29q45 -22 95 -22q41 0 74 21t33 60q0 34 -21 51.5t-53 17.5
q-24 0 -36 -4l-2 2l58 61h-37l-72 -84l16 -18q18 9 38 9q23 0 38.5 -10.5t15.5 -30.5q0 -41 -56 -41q-33 0 -77 17z" />
    <glyph glyph-name="scedilla" unicode="&#x15f;" horiz-adv-x="481" 
d="M62 168q0 -70 41.5 -100t104.5 -30q49 0 89.5 24.5t40.5 70.5q-1 37 -29.5 61t-69 38.5t-81 31t-68.5 48t-29 78.5q0 69 59 105t132 36q86 0 136 -40t48 -126h-63q4 56 -30.5 84.5t-90.5 28.5q-51 0 -89.5 -20t-38.5 -68q0 -33 26.5 -52.5t82.5 -42.5q6 -3 27 -11
t30 -11.5t27 -12.5t27 -16t22 -18.5t19 -22.5t11 -26.5t5 -33.5q0 -81 -61.5 -119t-146.5 -38q-84 0 -140 45t-53 137h62zM50 -167l-14 -29q45 -22 95 -22q41 0 74 21t33 60q0 34 -21 51.5t-53 17.5q-24 0 -36 -4l-2 2l58 61h-37l-72 -84l16 -18q18 9 38 9q23 0 38.5 -10.5
t15.5 -30.5q0 -41 -56 -41q-33 0 -77 17z" />
    <glyph glyph-name="Scaron" unicode="&#x160;" horiz-adv-x="630" 
d="M478 907h61l-136 -144h-63l-86 144h57l66 -109zM539 506q0 90 -46.5 127.5t-142.5 37.5q-74 0 -128 -36.5t-54 -106.5q0 -51 31 -75.5t89 -42.5l76 -23q46 -13 73.5 -24.5t58.5 -32t45.5 -51.5t14.5 -74q0 -25 -6 -51t-24.5 -57t-47.5 -55t-80.5 -40t-117.5 -16
q-127 0 -201 62.5t-68 186.5h68q-6 -100 49 -146t157 -46q79 0 141 39.5t62 113.5q0 18 -5 34t-11 27t-20 22t-22.5 17t-28.5 13.5t-28.5 10.5t-31.5 9.5t-30 8.5l-70 21q-141 40 -141 166q0 101 74 152.5t179 51.5q119 0 189.5 -53.5t64.5 -169.5h-68z" />
    <glyph glyph-name="scaron" unicode="&#x161;" horiz-adv-x="481" 
d="M393 729h61l-136 -144h-63l-86 144h57l66 -109zM62 168q0 -70 41.5 -100t104.5 -30q49 0 89.5 24.5t40.5 70.5q-1 37 -29.5 61t-69 38.5t-81 31t-68.5 48t-29 78.5q0 69 59 105t132 36q86 0 136 -40t48 -126h-63q4 56 -30.5 84.5t-90.5 28.5q-51 0 -89.5 -20t-38.5 -68
q0 -33 26.5 -52.5t82.5 -42.5q6 -3 27 -11t30 -11.5t27 -12.5t27 -16t22 -18.5t19 -22.5t11 -26.5t5 -33.5q0 -81 -61.5 -119t-146.5 -38q-84 0 -140 45t-53 137h62z" />
    <glyph glyph-name="Tcedilla" unicode="&#x162;" horiz-adv-x="556" 
d="M81 714h558l-12 -58h-245l-143 -656h-68l143 656h-245zM169 -153l-14 -29q45 -22 95 -22q41 0 74 21t33 60q0 34 -21 51.5t-53 17.5q-24 0 -36 -4l-2 2l58 61h-37l-72 -84l16 -18q18 9 38 9q23 0 38.5 -10.5t15.5 -30.5q0 -41 -56 -41q-33 0 -77 17z" />
    <glyph glyph-name="tcedilla" unicode="&#x163;" horiz-adv-x="296" 
d="M43 516h93l33 156h63l-33 -156h103l-10 -53h-105l-71 -331q-7 -34 -7 -49q0 -36 33 -36q36 0 74 6l-11 -54q-28 -4 -64 -4q-95 0 -95 73q0 21 7 53l71 342h-93zM-14 -158l-14 -29q45 -22 95 -22q41 0 74 21t33 60q0 34 -21 51.5t-53 17.5q-24 0 -36 -4l-2 2l58 61h-37
l-72 -84l16 -18q18 9 38 9q23 0 38.5 -10.5t15.5 -30.5q0 -41 -56 -41q-33 0 -77 17z" />
    <glyph glyph-name="Tcaron" unicode="&#x164;" horiz-adv-x="556" 
d="M81 714h558l-12 -58h-245l-143 -656h-68l143 656h-245zM536 908h61l-136 -144h-63l-86 144h57l66 -109z" />
    <glyph glyph-name="tcaron" unicode="&#x165;" 
d="M43 516h93l33 156h63l-33 -156h103l-10 -53h-105l-71 -331q-7 -34 -7 -49q0 -36 33 -36q36 0 74 6l-11 -54q-28 -4 -64 -4q-95 0 -95 73q0 21 7 53l71 342h-93zM414 511q31 9 45 32t24 65h-42l24 106h84l-33 -140q-12 -47 -36 -69t-74 -34z" />
    <glyph glyph-name="Tbar" unicode="&#x166;" horiz-adv-x="556" 
d="M127 453h142l45 203h-245l12 58h558l-12 -58h-245l-45 -203h149l-10 -53h-150l-87 -400h-68l87 400h-143z" />
    <glyph glyph-name="tbar" unicode="&#x167;" horiz-adv-x="296" 
d="M5 354h96l23 109h-93l12 53h93l33 156h63l-33 -156h103l-10 -53h-105l-23 -109h100l-10 -53h-102l-36 -169q-7 -34 -7 -49q0 -36 33 -36q36 0 74 6l-11 -54q-28 -4 -64 -4q-95 0 -95 73q0 21 7 53l37 180h-97z" />
    <glyph glyph-name="Utilde" unicode="&#x168;" horiz-adv-x="704" 
d="M150 714h68l-95 -454q-7 -25 -7 -62q-4 -75 50 -115t145 -40q192 0 231 188l101 483h68l-102 -488q-50 -240 -307 -240q-67 0 -122 19t-93.5 66.5t-38.5 118.5q0 24 6 58zM595 865h40q-9 -42 -29 -67q-26 -34 -60 -34q-26 0 -76 27q-46 29 -64 29q-17 0 -30.5 -18
t-17.5 -38h-40q10 42 33 71.5t59 29.5q24 0 70 -26q46 -30 70 -30q14 0 26.5 18.5t18.5 37.5z" />
    <glyph glyph-name="utilde" unicode="&#x169;" horiz-adv-x="537" 
d="M402 0h-58l18 94h-2q-31 -48 -79.5 -78t-104.5 -30q-156 0 -156 138q0 18 8 61l71 331h63l-72 -333q-7 -28 -7 -52q0 -48 30.5 -70.5t77.5 -22.5q70 0 125 58t77 155l57 265h63zM462 672h40q-9 -42 -29 -67q-25 -34 -60 -34q-26 0 -76 27q-46 29 -64 29q-17 0 -30.5 -18
t-17.5 -38h-40q10 42 33 71.5t59 29.5q24 0 70 -26q46 -30 70 -30q14 0 26.5 18.5t18.5 37.5z" />
    <glyph glyph-name="Umacron" unicode="&#x16a;" horiz-adv-x="704" 
d="M150 714h68l-95 -454q-7 -25 -7 -62q-4 -75 50 -115t145 -40q192 0 231 188l101 483h68l-102 -488q-50 -240 -307 -240q-67 0 -122 19t-93.5 66.5t-38.5 118.5q0 24 6 58zM339 764l8 45h256l-8 -45h-256z" />
    <glyph glyph-name="umacron" unicode="&#x16b;" horiz-adv-x="537" 
d="M402 0h-58l18 94h-2q-31 -48 -79.5 -78t-104.5 -30q-156 0 -156 138q0 18 8 61l71 331h63l-72 -333q-7 -28 -7 -52q0 -48 30.5 -70.5t77.5 -22.5q70 0 125 58t77 155l57 265h63zM206 571l8 45h256l-8 -45h-256z" />
    <glyph glyph-name="Ubreve" unicode="&#x16c;" horiz-adv-x="704" 
d="M150 714h68l-95 -454q-7 -25 -7 -62q-4 -75 50 -115t145 -40q192 0 231 188l101 483h68l-102 -488q-50 -240 -307 -240q-67 0 -122 19t-93.5 66.5t-38.5 118.5q0 24 6 58zM339 894h38q4 -85 90 -85q90 0 118 85h37q-10 -59 -53.5 -94.5t-104.5 -35.5q-59 0 -93 36t-32 94
z" />
    <glyph glyph-name="ubreve" unicode="&#x16d;" horiz-adv-x="537" 
d="M402 0h-58l18 94h-2q-31 -48 -79.5 -78t-104.5 -30q-156 0 -156 138q0 18 8 61l71 331h63l-72 -333q-7 -28 -7 -52q0 -48 30.5 -70.5t77.5 -22.5q70 0 125 58t77 155l57 265h63zM206 701h38q4 -85 90 -85q90 0 118 85h37q-10 -59 -53.5 -94.5t-104.5 -35.5q-59 0 -93 36
t-32 94z" />
    <glyph glyph-name="Uring" unicode="&#x16e;" horiz-adv-x="704" 
d="M150 714h68l-95 -454q-7 -25 -7 -62q-4 -75 50 -115t145 -40q192 0 231 188l101 483h68l-102 -488q-50 -240 -307 -240q-67 0 -122 19t-93.5 66.5t-38.5 118.5q0 24 6 58zM487 764q-40 0 -69.5 30t-29.5 70t29.5 69.5t69.5 29.5t70 -29.5t30 -69.5q0 -42 -29 -71t-71 -29
zM487 798q26 0 46 20t20 46t-20 45.5t-46 19.5t-45.5 -19.5t-19.5 -45.5t19.5 -46t45.5 -20z" />
    <glyph glyph-name="uring" unicode="&#x16f;" horiz-adv-x="537" 
d="M402 0h-58l18 94h-2q-31 -48 -79.5 -78t-104.5 -30q-156 0 -156 138q0 18 8 61l71 331h63l-72 -333q-7 -28 -7 -52q0 -48 30.5 -70.5t77.5 -22.5q70 0 125 58t77 155l57 265h63zM354 571q-40 0 -69.5 30t-29.5 70t29.5 69.5t69.5 29.5t70 -29.5t30 -69.5q0 -42 -29 -71
t-71 -29zM354 605q26 0 46 20t20 46t-20 45.5t-46 19.5t-45.5 -19.5t-19.5 -45.5t19.5 -46t45.5 -20z" />
    <glyph glyph-name="Uhungarumlaut" unicode="&#x170;" horiz-adv-x="704" 
d="M150 714h68l-95 -454q-7 -25 -7 -62q-4 -75 50 -115t145 -40q192 0 231 188l101 483h68l-102 -488q-50 -240 -307 -240q-67 0 -122 19t-93.5 66.5t-38.5 118.5q0 24 6 58zM573 908h81l-144 -144h-53zM425 908h81l-144 -144h-53z" />
    <glyph glyph-name="uhungarumlaut" unicode="&#x171;" horiz-adv-x="537" 
d="M402 0h-58l18 94h-2q-31 -48 -79.5 -78t-104.5 -30q-156 0 -156 138q0 18 8 61l71 331h63l-72 -333q-7 -28 -7 -52q0 -48 30.5 -70.5t77.5 -22.5q70 0 125 58t77 155l57 265h63zM439 715h81l-144 -144h-53zM291 715h81l-144 -144h-53z" />
    <glyph glyph-name="Uogonek" unicode="&#x172;" horiz-adv-x="704" 
d="M150 714h68l-95 -454q-7 -25 -7 -62q-4 -75 50 -115t145 -40q192 0 231 188l101 483h68l-102 -488q-50 -240 -307 -240q-67 0 -122 19t-93.5 66.5t-38.5 118.5q0 24 6 58zM366 -9h-58q-45 -21 -84 -59.5t-39 -87.5q0 -56 79 -56q67 0 114 65l-29 25q-37 -45 -72 -45
q-25 0 -25 27q0 57 114 131z" />
    <glyph glyph-name="uogonek" unicode="&#x173;" horiz-adv-x="537" 
d="M402 0h-58l18 94h-2q-31 -48 -79.5 -78t-104.5 -30q-156 0 -156 138q0 18 8 61l71 331h63l-72 -333q-7 -28 -7 -52q0 -48 30.5 -70.5t77.5 -22.5q70 0 125 58t77 155l57 265h63zM274 -9h-58q-45 -21 -84 -59.5t-39 -87.5q0 -56 79 -56q67 0 114 65l-29 25
q-37 -45 -72 -45q-25 0 -25 27q0 57 114 131z" />
    <glyph glyph-name="Wcircumflex" unicode="&#x174;" horiz-adv-x="907" 
d="M71 714h68l37 -635h2l304 635h82l49 -629h2l292 629h71l-344 -714h-74l-47 649h-2l-312 -649h-75zM544 764h-60l135 144h63l86 -144h-57l-66 106z" />
    <glyph glyph-name="wcircumflex" unicode="&#x175;" horiz-adv-x="741" 
d="M30 516h66l41 -440h2l213 440h74l35 -436h2l219 436h67l-271 -516h-68l-37 433h-2l-212 -433h-69zM388 571h-60l135 144h63l86 -144h-57l-66 106z" />
    <glyph glyph-name="Ycircumflex" unicode="&#x176;" 
d="M598 714h83l-358 -426l-63 -288h-69l65 295l-190 419h72l161 -362zM393 764h-60l135 144h63l86 -144h-57l-66 106z" />
    <glyph glyph-name="ycircumflex" unicode="&#x177;" horiz-adv-x="463" 
d="M-42 -134q27 -3 53 -3q48 0 81 56l47 81l-95 516h66l74 -438h2l238 438h68l-367 -637q-41 -69 -125 -69q-9 0 -27.5 2.5t-26.5 2.5zM237 571h-60l135 144h63l86 -144h-57l-66 106z" />
    <glyph glyph-name="Ydieresis" unicode="&#x178;" 
d="M251 881h64l-20 -102h-63zM410 881h64l-20 -102h-63zM598 714h83l-358 -426l-63 -288h-69l65 295l-190 419h72l161 -362z" />
    <glyph glyph-name="Zacute" unicode="&#x179;" 
d="M111 714h515l-12 -57l-571 -599h476l-13 -58h-555l13 60l568 596h-434zM414 907h81l-144 -144h-53z" />
    <glyph glyph-name="zacute" unicode="&#x17a;" horiz-adv-x="426" 
d="M55 516h388l-11 -50l-401 -413h331l-11 -53h-408l11 51l398 412h-308zM310 729h81l-144 -144h-53z" />
    <glyph glyph-name="Zdotaccent" unicode="&#x17b;" 
d="M111 714h515l-12 -57l-571 -599h476l-13 -58h-555l13 60l568 596h-434zM344 881h64l-20 -102h-63z" />
    <glyph glyph-name="zdotaccent" unicode="&#x17c;" horiz-adv-x="426" 
d="M55 516h388l-11 -50l-401 -413h331l-11 -53h-408l11 51l398 412h-308zM230 703h64l-20 -102h-63z" />
    <glyph glyph-name="Zcaron" unicode="&#x17d;" 
d="M450 907h61l-136 -144h-63l-86 144h57l66 -109zM111 714h515l-12 -57l-571 -599h476l-13 -58h-555l13 60l568 596h-434z" />
    <glyph glyph-name="zcaron" unicode="&#x17e;" horiz-adv-x="426" 
d="M366 729h61l-136 -144h-63l-86 144h57l66 -109zM55 516h388l-11 -50l-401 -413h331l-11 -53h-408l11 51l398 412h-308z" />
    <glyph glyph-name="longs" unicode="&#x17f;" horiz-adv-x="259" 
d="M209 588l-128 -588h-63l102 463h-90l12 53h89l16 75q13 60 45 91.5t93 31.5q44 0 65 -7l-11 -52q-26 6 -39 6q-43 0 -62.5 -16.5t-28.5 -56.5z" />
    <glyph glyph-name="uni018E" unicode="&#x18e;" 
d="M484 0h-479l13 58h410l55 258h-383l13 58h382l60 282h-420l13 58h488z" />
    <glyph glyph-name="uni018F" unicode="&#x18f;" horiz-adv-x="712" 
d="M298 -14q-120 0 -192.5 75.5t-72.5 213.5q0 51 10 104h576q2 22 2 34q0 116 -58 187t-171 71q-184 0 -248 -169h-71q36 110 119 168t202 58q136 0 215.5 -81t79.5 -217q0 -88 -26 -167.5t-74.5 -141.5t-123.5 -98.5t-167 -36.5zM309 43q114 0 195 81t107 197h-506
q-4 -21 -4 -49q0 -95 58 -162t150 -67z" />
    <glyph glyph-name="florin" unicode="&#x192;" horiz-adv-x="556" 
d="M154 439h100l34 125q40 150 160 150q39 0 68 -5l-14 -52q-17 4 -43 4q-46 0 -70 -23t-37 -74l-34 -125h118l-14 -53h-119l-117 -428q-36 -130 -149 -130q-30 0 -55 4l14 53q15 -4 38 -4q40 0 60 25.5t33 70.5l112 409h-99z" />
    <glyph glyph-name="Ohorn" unicode="&#x1a0;" horiz-adv-x="885" 
d="M327 -14q-138 0 -215.5 82.5t-77.5 220.5q0 116 45 215t135 162t208 63q136 0 216 -82q16 -16 28 -34l10 -8q24 -18 58 -18q37 -1 49.5 29t12.5 98h58q0 -99 -22.5 -136.5t-90.5 -37.5q-21 0 -42 8q19 -51 19 -118q0 -88 -26 -167.5t-74.5 -141.5t-123.5 -98.5
t-167 -36.5zM650 413q0 116 -58 187t-171 71q-78 0 -140 -33t-100.5 -88.5t-58.5 -124t-20 -142.5q0 -110 63 -175t173 -65q93 0 166 56t109.5 139.5t36.5 174.5z" />
    <glyph glyph-name="ohorn" unicode="&#x1a1;" horiz-adv-x="712" 
d="M302 531q68 0 117.5 -30t71.5 -87q0 -2 1 -3l5 -4q24 -18 58 -18q37 -1 49.5 29t12.5 98h58q0 -99 -22.5 -136.5t-90.5 -37.5q-24 0 -45 9l-13 6q2 -18 2 -28q0 -90 -30.5 -166t-97.5 -126.5t-158 -50.5q-99 0 -152.5 57t-53.5 157q0 86 33 160.5t100 122.5t155 48z
M232 38q66 0 115.5 45.5t72.5 107.5t23 125q0 74 -39 118t-113 44q-66 0 -116.5 -43.5t-74 -104.5t-23.5 -124q0 -78 39.5 -123t115.5 -45z" />
    <glyph glyph-name="uni01A2" unicode="&#x1a2;" horiz-adv-x="725" 
d="M467 -190l180 846h-68l-139 -654q-48 -16 -113 -16q-138 0 -215.5 82.5t-77.5 220.5q0 116 45 215t135 162t208 63q58 0 103 -15h202l-192 -904h-68zM338 43q32 0 44 3l129 610q-57 15 -90 15q-78 0 -140 -33t-100.5 -88.5t-58.5 -124t-20 -142.5q0 -110 63 -175t173 -65
z" />
    <glyph glyph-name="uni01A3" unicode="&#x1a3;" horiz-adv-x="580" 
d="M343 -190l139 653h-63l-97 -459q-40 -18 -102 -18q-99 0 -152.5 57t-53.5 157q0 86 33 160.5t100 122.5t155 48q47 0 87 -15h167l-150 -706h-63zM232 38q23 0 34 3l91 425q-36 12 -66 12q-66 0 -116.5 -43.5t-74 -104.5t-23.5 -124q0 -78 39.5 -123t115.5 -45z" />
    <glyph glyph-name="uni01A7" unicode="&#x1a7;" horiz-adv-x="630" 
d="M572 235h68q-21 -126 -112 -187.5t-225 -61.5q-72 0 -122 17t-72.5 40t-32.5 54t-9 52t6 40q17 81 74.5 123t150.5 65l183 43q115 25 131 109q15 74 -27.5 108t-121.5 34q-80 0 -144.5 -43t-85.5 -121h-68q23 105 111.5 163.5t199.5 58.5q58 0 100.5 -14t63 -36.5
t33 -49.5t11 -53t-3.5 -48q-9 -40 -28 -70.5t-47.5 -50t-57 -31t-65.5 -20.5l-167 -39q-153 -35 -175 -129q-10 -49 15.5 -83.5t63.5 -48t80 -13.5q238 0 273 192z" />
    <glyph glyph-name="uni01A8" unicode="&#x1a8;" horiz-adv-x="481" 
d="M189 365h-63q21 81 82 123.5t142 42.5q78 0 128.5 -36t35.5 -109q-12 -60 -55.5 -90t-118.5 -48l-85 -18q-56 -13 -90 -33t-43 -61q-9 -49 29 -73.5t92 -24.5q65 0 113 33.5t66 95.5h63q-53 -181 -250 -181q-38 0 -71.5 8.5t-61 26t-39.5 48.5t-3 71q13 62 63.5 98
t114.5 45l88 19q114 28 125 87q9 46 -22.5 67.5t-80.5 21.5q-58 0 -101.5 -28.5t-57.5 -84.5z" />
    <glyph glyph-name="Uhorn" unicode="&#x1af;" horiz-adv-x="942" 
d="M150 714h68l-95 -454q-7 -25 -7 -62q-4 -75 50 -115t145 -40q192 0 231 188l101 483h68l-18 -87q21 -22 37 -31t44 -9q37 -1 49.5 29t12.5 98h58q0 -99 -22.5 -136.5t-90.5 -37.5q-42 0 -83 34l-14 13l-75 -361q-50 -240 -307 -240q-67 0 -122 19t-93.5 66.5t-38.5 118.5
q0 24 6 58z" />
    <glyph glyph-name="uhorn" unicode="&#x1b0;" horiz-adv-x="729" 
d="M402 0h-58l18 94h-2q-31 -48 -79.5 -78t-104.5 -30q-156 0 -156 138q0 18 8 61l71 331h63l-72 -333q-7 -28 -7 -52q0 -48 30.5 -70.5t77.5 -22.5q70 0 125 58t77 155l57 265h63l-17 -79l7 -8q23 -23 38.5 -31.5t43.5 -8.5q37 -1 49.5 29t12.5 98h58q0 -99 -22.5 -136.5
t-90.5 -37.5q-42 0 -83 34l-22 21z" />
    <glyph glyph-name="uni01B5" unicode="&#x1b5;" 
d="M-49 0l13 60l267 280h-164l12 58h207l246 258h-434l13 58h515l-12 -57l-247 -259h170l-12 -58h-214l-268 -282h476l-13 -58h-555z" />
    <glyph glyph-name="uni01B6" unicode="&#x1b6;" horiz-adv-x="426" 
d="M-57 0l11 51l186 193h-99l12 53h138l161 166h-308l11 53h388l-11 -50l-164 -169h102l-12 -53h-142l-185 -191h331l-11 -53h-408z" />
    <glyph glyph-name="clickdental" unicode="&#x1c0;" horiz-adv-x="222" 
d="M85 786h53v-999h-53v999z" />
    <glyph glyph-name="clicklateral" unicode="&#x1c1;" horiz-adv-x="444" 
d="M85 786h53v-999h-53v999zM307 786h53v-999h-53v999z" />
    <glyph glyph-name="clickretroflex" unicode="&#x1c3;" horiz-adv-x="278" 
d="M84 178l53 314l48 222h67l-48 -223l-82 -313h-38zM23 0l23 106h85l-24 -106h-84z" />
    <glyph glyph-name="DZcaron" unicode="&#x1c4;" horiz-adv-x="1259" 
d="M160 714h230q146 0 209 -74t63 -212q0 -115 -43 -210.5t-134 -156.5t-214 -61h-266zM86 58h172q86 -1 152 30.5t105.5 86.5t59 122.5t19.5 143.5q0 215 -215 215h-163zM796 714h515l-12 -57l-571 -599h476l-13 -58h-555l13 60l568 596h-434zM1181 917h61l-136 -144h-63
l-86 144h57l66 -109z" />
    <glyph glyph-name="Dzcaron" unicode="&#x1c5;" horiz-adv-x="1111" 
d="M160 714h230q146 0 209 -74t63 -212q0 -115 -43 -210.5t-134 -156.5t-214 -61h-266zM86 58h172q86 -1 152 30.5t105.5 86.5t59 122.5t19.5 143.5q0 215 -215 215h-163zM740 516h388l-11 -50l-401 -413h331l-11 -53h-408l11 51l398 412h-308zM1049 713h61l-136 -144h-63
l-86 144h57l66 -109z" />
    <glyph glyph-name="dzcaron" unicode="&#x1c6;" horiz-adv-x="1000" 
d="M438 0h-61l23 93h-2q-35 -54 -79 -80.5t-109 -26.5q-97 0 -146.5 56t-49.5 154q0 81 33.5 156.5t99.5 127t149 51.5q136 0 168 -112h2l62 295h63zM216 38q68 0 121 47t78.5 112t25.5 132q0 70 -38 109.5t-106 39.5q-52 0 -95 -27t-69.5 -69.5t-41 -92t-14.5 -97.5
q0 -69 35 -111.5t104 -42.5zM629 516h388l-11 -50l-401 -413h331l-11 -53h-408l11 51l398 412h-308zM938 713h61l-136 -144h-63l-86 144h57l66 -109z" />
    <glyph glyph-name="LJ" unicode="&#x1c7;" horiz-adv-x="1037" 
d="M159 714h68l-141 -656h395l-14 -58h-462zM594 229q-9 -52 -9 -88q0 -51 34.5 -74.5t89.5 -23.5q71 0 103.5 42.5t49.5 119.5l109 509h68l-114 -534q-21 -98 -72 -146t-149 -48q-86 0 -136 39t-50 123q0 42 9 81h67z" />
    <glyph glyph-name="Lj" unicode="&#x1c8;" horiz-adv-x="722" 
d="M159 714h68l-141 -656h395l-14 -58h-462zM679 714h64l-22 -101h-63zM637 516h63l-129 -603q-13 -53 -41 -78t-85 -25q-8 0 -23 2.5t-21 2.5l12 52q4 0 16.5 -2t19.5 -2q46 0 61 52z" />
    <glyph glyph-name="lj" unicode="&#x1c9;" horiz-adv-x="370" 
d="M143 714h63l-154 -714h-62zM327 714h64l-22 -101h-63zM285 516h63l-129 -603q-13 -53 -41 -78t-85 -25q-8 0 -23 2.5t-21 2.5l12 52q4 0 16.5 -2t19.5 -2q46 0 61 52z" />
    <glyph glyph-name="NJ" unicode="&#x1ca;" horiz-adv-x="1204" 
d="M154 714h77l285 -638h2l132 638h66l-156 -714h-75l-285 638h-2l-133 -638h-65zM761 229q-9 -52 -9 -88q0 -51 34.5 -74.5t89.5 -23.5q71 0 103.5 42.5t49.5 119.5l109 509h68l-114 -534q-21 -98 -72 -146t-149 -48q-86 0 -136 39t-50 123q0 42 9 81h67z" />
    <glyph glyph-name="Nj" unicode="&#x1cb;" horiz-adv-x="889" 
d="M154 714h77l285 -638h2l132 638h66l-156 -714h-75l-285 638h-2l-133 -638h-65zM846 714h64l-22 -101h-63zM804 516h63l-129 -603q-13 -53 -41 -78t-85 -25q-8 0 -23 2.5t-21 2.5l12 52q4 0 16.5 -2t19.5 -2q46 0 61 52z" />
    <glyph glyph-name="nj" unicode="&#x1cc;" horiz-adv-x="722" 
d="M100 516h58l-18 -94h2q31 48 80 78.5t104 30.5q72 0 114 -34t42 -105q0 -18 -8 -61l-71 -331h-63l72 333q7 28 7 52q0 48 -30.5 70.5t-77.5 22.5q-69 0 -125.5 -58t-76.5 -155l-57 -265h-62zM679 714h64l-22 -101h-63zM637 516h63l-129 -603q-13 -53 -41 -78t-85 -25
q-8 0 -23 2.5t-21 2.5l12 52q4 0 16.5 -2t19.5 -2q46 0 61 52z" />
    <glyph glyph-name="Acaron" unicode="&#x1cd;" horiz-adv-x="630" 
d="M167 280h282l-61 376h-2zM362 714h74l130 -714h-71l-36 222h-326l-132 -222h-75zM505 911h61l-136 -144h-63l-86 144h57l66 -109z" />
    <glyph glyph-name="acaron" unicode="&#x1ce;" horiz-adv-x="519" 
d="M62 362q11 84 71 126.5t147 42.5q41 0 78.5 -8.5t69 -36t31.5 -70.5q0 -40 -32 -174q-7 -35 -15 -70t-11.5 -49.5t-5.5 -29t-2 -25.5q0 -21 33 -21q7 0 25 2l-9 -49q-28 -5 -52 -5q-54 0 -55 55q0 10 2 28l-2 2q-26 -44 -75 -69t-104 -25q-75 0 -119.5 35t-44.5 107
q0 75 48 110.5t130 49.5q33 5 88 7t76 8q33 9 47.5 30.5t14.5 70.5q0 74 -109 74q-144 0 -162 -116h-63zM374 276l-2 2q-5 -6 -14 -10.5t-17.5 -7.5t-22 -5t-20.5 -2.5t-22 -2t-18 -1.5q-27 -2 -36.5 -2.5t-37 -4t-40 -8t-33.5 -13.5t-31 -20.5t-18 -29.5t-8 -40
q0 -47 33 -70t82 -23q74 0 122 40t63 111zM392 728h61l-136 -144h-63l-86 144h57l66 -109z" />
    <glyph glyph-name="Icaron" unicode="&#x1cf;" horiz-adv-x="222" 
d="M156 714h68l-151 -714h-68zM310 913h61l-136 -144h-63l-86 144h57l66 -109z" />
    <glyph glyph-name="icaron" unicode="&#x1d0;" horiz-adv-x="185" 
d="M-10 0l110 516h63l-111 -516h-62zM250 713h61l-136 -144h-63l-86 144h57l66 -109z" />
    <glyph glyph-name="Ocaron" unicode="&#x1d1;" horiz-adv-x="741" 
d="M327 -14q-138 0 -215.5 82.5t-77.5 220.5q0 116 45 215t135 162t208 63q136 0 216 -81.5t80 -217.5q0 -88 -26 -167.5t-74.5 -141.5t-123.5 -98.5t-167 -36.5zM650 413q0 116 -58 187t-171 71q-78 0 -140 -33t-100.5 -88.5t-58.5 -124t-20 -142.5q0 -110 63 -175t173 -65
q93 0 166 56t109.5 139.5t36.5 174.5zM577 929h61l-136 -144h-63l-86 144h57l66 -109z" />
    <glyph glyph-name="ocaron" unicode="&#x1d2;" horiz-adv-x="556" 
d="M232 38q66 0 115.5 45.5t72.5 107.5t23 125q0 74 -39 118t-113 44q-66 0 -116.5 -43.5t-74 -104.5t-23.5 -124q0 -78 39.5 -123t115.5 -45zM302 531q92 0 148 -54t56 -148q0 -90 -30.5 -166t-97.5 -126.5t-158 -50.5q-99 0 -152.5 57t-53.5 157q0 86 33 160.5t100 122.5
t155 48zM427 728h61l-136 -144h-63l-86 144h57l66 -109z" />
    <glyph glyph-name="Ucaron" unicode="&#x1d3;" horiz-adv-x="704" 
d="M150 714h68l-95 -454q-7 -25 -7 -62q-4 -75 50 -115t145 -40q192 0 231 188l101 483h68l-102 -488q-50 -240 -307 -240q-67 0 -122 19t-93.5 66.5t-38.5 118.5q0 24 6 58zM550 908h61l-136 -144h-63l-86 144h57l66 -109z" />
    <glyph glyph-name="ucaron" unicode="&#x1d4;" horiz-adv-x="537" 
d="M402 0h-58l18 94h-2q-31 -48 -79.5 -78t-104.5 -30q-156 0 -156 138q0 18 8 61l71 331h63l-72 -333q-7 -28 -7 -52q0 -48 30.5 -70.5t77.5 -22.5q70 0 125 58t77 155l57 265h63zM415 716h61l-136 -144h-63l-86 144h57l66 -109z" />
    <glyph glyph-name="Udieresismacron" unicode="&#x1d5;" horiz-adv-x="704" 
d="M150 714h68l-95 -454q-7 -25 -7 -62q-4 -75 50 -115t145 -40q192 0 231 188l101 483h68l-102 -488q-50 -240 -307 -240q-67 0 -122 19t-93.5 66.5t-38.5 118.5q0 24 6 58zM347 863h64l-20 -102h-63zM506 863h64l-20 -102h-63zM336 919l8 45h256l-8 -45h-256z" />
    <glyph glyph-name="udieresismacron" unicode="&#x1d6;" horiz-adv-x="537" 
d="M402 0h-58l18 94h-2q-31 -48 -79.5 -78t-104.5 -30q-156 0 -156 138q0 18 8 61l71 331h63l-72 -333q-7 -28 -7 -52q0 -48 30.5 -70.5t77.5 -22.5q70 0 125 58t77 155l57 265h63zM226 671h64l-20 -102h-63zM385 671h64l-20 -102h-63zM219 718l8 45h256l-8 -45h-256z" />
    <glyph glyph-name="Udieresisacute" unicode="&#x1d7;" horiz-adv-x="704" 
d="M150 714h68l-95 -454q-7 -25 -7 -62q-4 -75 50 -115t145 -40q192 0 231 188l101 483h68l-102 -488q-50 -240 -307 -240q-67 0 -122 19t-93.5 66.5t-38.5 118.5q0 24 6 58zM341 860h64l-20 -102h-63zM500 860h64l-20 -102h-63zM541 1046h81l-144 -144h-53z" />
    <glyph glyph-name="udieresisacute" unicode="&#x1d8;" horiz-adv-x="537" 
d="M402 0h-58l18 94h-2q-31 -48 -79.5 -78t-104.5 -30q-156 0 -156 138q0 18 8 61l71 331h63l-72 -333q-7 -28 -7 -52q0 -48 30.5 -70.5t77.5 -22.5q70 0 125 58t77 155l57 265h63zM215 668h64l-20 -102h-63zM374 668h64l-20 -102h-63zM419 853h81l-144 -144h-53z" />
    <glyph glyph-name="Udieresiscaron" unicode="&#x1d9;" horiz-adv-x="704" 
d="M150 714h68l-95 -454q-7 -25 -7 -62q-4 -75 50 -115t145 -40q192 0 231 188l101 483h68l-102 -488q-50 -240 -307 -240q-67 0 -122 19t-93.5 66.5t-38.5 118.5q0 24 6 58zM330 866h64l-20 -102h-63zM489 866h64l-20 -102h-63zM551 1054h61l-136 -144h-63l-86 144h57
l66 -109z" />
    <glyph glyph-name="udieresiscaron" unicode="&#x1da;" horiz-adv-x="537" 
d="M402 0h-58l18 94h-2q-31 -48 -79.5 -78t-104.5 -30q-156 0 -156 138q0 18 8 61l71 331h63l-72 -333q-7 -28 -7 -52q0 -48 30.5 -70.5t77.5 -22.5q70 0 125 58t77 155l57 265h63zM217 671h64l-20 -102h-63zM376 671h64l-20 -102h-63zM448 865h61l-136 -144h-63l-86 144h57
l66 -109z" />
    <glyph glyph-name="Udieresisgrave" unicode="&#x1db;" horiz-adv-x="704" 
d="M150 714h68l-95 -454q-7 -25 -7 -62q-4 -75 50 -115t145 -40q192 0 231 188l101 483h68l-102 -488q-50 -240 -307 -240q-67 0 -122 19t-93.5 66.5t-38.5 118.5q0 24 6 58zM352 866h64l-20 -102h-63zM511 866h64l-20 -102h-63zM406 1049l82 -144h-50l-106 144h74z" />
    <glyph glyph-name="udieresisgrave" unicode="&#x1dc;" horiz-adv-x="537" 
d="M402 0h-58l18 94h-2q-31 -48 -79.5 -78t-104.5 -30q-156 0 -156 138q0 18 8 61l71 331h63l-72 -333q-7 -28 -7 -52q0 -48 30.5 -70.5t77.5 -22.5q70 0 125 58t77 155l57 265h63zM226 666h64l-20 -102h-63zM385 666h64l-20 -102h-63zM295 862l82 -144h-50l-106 144h74z
" />
    <glyph glyph-name="uni01DD" unicode="&#x1dd;" horiz-adv-x="519" 
d="M415 223h-337q0 -8 -0.5 -21t-0.5 -19q0 -66 37.5 -105t103.5 -39q74 0 127 54t70 130zM19 276h404q3 18 3 40q0 73 -38 118t-112 45q-62 0 -106.5 -35t-62.5 -93h-63q54 180 235 180q102 0 156 -57.5t54 -160.5q0 -84 -32 -157.5t-97 -121.5t-150 -48q-92 0 -144 55
t-52 146q0 50 5 89z" />
    <glyph glyph-name="Adieresismacron" unicode="&#x1de;" horiz-adv-x="630" 
d="M167 280h282l-61 376h-2zM362 714h74l130 -714h-71l-36 222h-326l-132 -222h-75zM321 868h64l-20 -102h-63zM480 868h64l-20 -102h-63zM318 916l8 45h256l-8 -45h-256z" />
    <glyph glyph-name="adieresismacron" unicode="&#x1df;" horiz-adv-x="519" 
d="M62 362q11 84 71 126.5t147 42.5q41 0 78.5 -8.5t69 -36t31.5 -70.5q0 -40 -32 -174q-7 -35 -15 -70t-11.5 -49.5t-5.5 -29t-2 -25.5q0 -21 33 -21q7 0 25 2l-9 -49q-28 -5 -52 -5q-54 0 -55 55q0 10 2 28l-2 2q-26 -44 -75 -69t-104 -25q-75 0 -119.5 35t-44.5 107
q0 75 48 110.5t130 49.5q33 5 88 7t76 8q33 9 47.5 30.5t14.5 70.5q0 74 -109 74q-144 0 -162 -116h-63zM374 276l-2 2q-5 -6 -14 -10.5t-17.5 -7.5t-22 -5t-20.5 -2.5t-22 -2t-18 -1.5q-27 -2 -36.5 -2.5t-37 -4t-40 -8t-33.5 -13.5t-31 -20.5t-18 -29.5t-8 -40
q0 -47 33 -70t82 -23q74 0 122 40t63 111zM222 689h64l-20 -102h-63zM381 689h64l-20 -102h-63zM228 736l8 45h256l-8 -45h-256z" />
    <glyph glyph-name="Adotmacron" unicode="&#x1e0;" horiz-adv-x="630" 
d="M167 280h282l-61 376h-2zM362 714h74l130 -714h-71l-36 222h-326l-132 -222h-75zM395 866h64l-20 -102h-63zM312 919l8 45h256l-8 -45h-256z" />
    <glyph glyph-name="adotmacron" unicode="&#x1e1;" horiz-adv-x="519" 
d="M62 362q11 84 71 126.5t147 42.5q41 0 78.5 -8.5t69 -36t31.5 -70.5q0 -40 -32 -174q-7 -35 -15 -70t-11.5 -49.5t-5.5 -29t-2 -25.5q0 -21 33 -21q7 0 25 2l-9 -49q-28 -5 -52 -5q-54 0 -55 55q0 10 2 28l-2 2q-26 -44 -75 -69t-104 -25q-75 0 -119.5 35t-44.5 107
q0 75 48 110.5t130 49.5q33 5 88 7t76 8q33 9 47.5 30.5t14.5 70.5q0 74 -109 74q-144 0 -162 -116h-63zM374 276l-2 2q-5 -6 -14 -10.5t-17.5 -7.5t-22 -5t-20.5 -2.5t-22 -2t-18 -1.5q-27 -2 -36.5 -2.5t-37 -4t-40 -8t-33.5 -13.5t-31 -20.5t-18 -29.5t-8 -40
q0 -47 33 -70t82 -23q74 0 122 40t63 111zM291 686h64l-20 -102h-63zM217 739l8 45h256l-8 -45h-256z" />
    <glyph glyph-name="AEmacron" unicode="&#x1e2;" horiz-adv-x="889" 
d="M208 284h224l81 372h-30zM453 714h498l-13 -58h-357l-56 -258h335l-13 -58h-334l-61 -282h369l-13 -58h-437l49 226h-255l-165 -226h-80zM541 767l8 45h256l-8 -45h-256z" />
    <glyph glyph-name="aemacron" unicode="&#x1e3;" horiz-adv-x="852" 
d="M374 276l-2 2q-5 -6 -14 -10.5t-17.5 -7.5t-22 -5t-20.5 -2.5t-22 -2t-18 -1.5q-27 -2 -36.5 -2.5t-37 -4t-40 -8t-33.5 -13.5t-31 -20.5t-18 -29.5t-8 -40q0 -47 33 -70t82 -23q74 0 122 40t63 111zM62 362q11 84 71 126.5t147 42.5q37 0 68.5 -8t60.5 -32.5t38 -64.5
q58 105 185 105q91 0 140 -57t49 -153q0 -41 -10 -80h-385q-8 -40 -8 -67q0 -62 39.5 -99t100.5 -37q63 0 109 34t62 94h63q-30 -92 -89.5 -136t-157.5 -44q-70 0 -118 34t-56 102h-2q-48 -136 -213 -136q-75 0 -119.5 35t-44.5 107q0 75 48 110.5t130 49.5q33 5 88 7t76 8
q33 9 47.5 30.5t14.5 70.5q0 74 -109 74q-144 0 -162 -116h-63zM756 294q2 16 2 22v22q0 62 -35 101t-97 39q-77 0 -125.5 -51.5t-65.5 -132.5h321zM372 584l8 45h256l-8 -45h-256z" />
    <glyph glyph-name="Gcaron" unicode="&#x1e6;" horiz-adv-x="741" 
d="M638 494q-4 88 -62 132.5t-159 44.5q-91 0 -164.5 -56t-112 -143t-38.5 -184q0 -113 59.5 -179t171.5 -66q114 0 190 73t95 189h-246l14 58h305l-75 -363h-46l12 120h-2q-84 -134 -259 -134q-137 0 -212 79.5t-75 218.5q0 118 43 217.5t133.5 163.5t212.5 64
q135 0 207 -61t76 -174h-68zM574 923h61l-136 -144h-63l-86 144h57l66 -109z" />
    <glyph glyph-name="gcaron" unicode="&#x1e7;" horiz-adv-x="556" 
d="M438 54q-29 -139 -86 -199t-173 -60q-87 0 -141.5 40t-56.5 127h62q0 -61 41 -87.5t104 -26.5q33 0 60 9t46.5 27.5t33 36.5t24 46.5t16 47t12.5 49t10 40.5l-2 2q-26 -45 -74.5 -70t-101.5 -25q-90 0 -140.5 59t-50.5 151q0 78 31 147.5t92.5 116t140.5 46.5
q62 0 111 -31.5t58 -89.5h2l22 106h58zM84 226q0 -70 35.5 -116t103.5 -46q90 0 148 80.5t58 175.5q0 73 -34 115.5t-107 42.5q-91 0 -147.5 -78.5t-56.5 -173.5zM411 729h61l-136 -144h-63l-86 144h57l66 -109z" />
    <glyph glyph-name="Kcaron" unicode="&#x1e8;" horiz-adv-x="648" 
d="M157 714h68l-82 -381l2 -2l461 383h95l-366 -298l255 -416h-78l-227 374l-159 -127l-53 -247h-68zM521 908h61l-136 -144h-63l-86 144h57l66 -109z" />
    <glyph glyph-name="kcaron" unicode="&#x1e9;" horiz-adv-x="463" 
d="M141 714h63l-96 -448l2 -2l302 252h84l-244 -199l156 -317h-69l-137 279l-110 -92l-40 -187h-62zM450 894h61l-136 -144h-63l-86 144h57l66 -109z" />
    <glyph glyph-name="Oogonek" unicode="&#x1ea;" horiz-adv-x="741" 
d="M327 -14q-138 0 -215.5 82.5t-77.5 220.5q0 116 45 215t135 162t208 63q136 0 216 -81.5t80 -217.5q0 -88 -26 -167.5t-74.5 -141.5t-123.5 -98.5t-167 -36.5zM650 413q0 116 -58 187t-171 71q-78 0 -140 -33t-100.5 -88.5t-58.5 -124t-20 -142.5q0 -110 63 -175t173 -65
q93 0 166 56t109.5 139.5t36.5 174.5zM365 -11q-114 -74 -114 -131q0 -27 25 -27q35 0 72 45l29 -25q-47 -65 -114 -65q-79 0 -79 56q0 49 39 87.5t84 59.5h58z" />
    <glyph glyph-name="oogonek" unicode="&#x1eb;" horiz-adv-x="556" 
d="M232 38q66 0 115.5 45.5t72.5 107.5t23 125q0 74 -39 118t-113 44q-66 0 -116.5 -43.5t-74 -104.5t-23.5 -124q0 -78 39.5 -123t115.5 -45zM302 531q92 0 148 -54t56 -148q0 -90 -30.5 -166t-97.5 -126.5t-158 -50.5q-99 0 -152.5 57t-53.5 157q0 86 33 160.5t100 122.5
t155 48zM270 -11q-114 -74 -114 -131q0 -27 25 -27q35 0 72 45l29 -25q-47 -65 -114 -65q-79 0 -79 56q0 49 39 87.5t84 59.5h58z" />
    <glyph glyph-name="Oogonekmacron" unicode="&#x1ec;" horiz-adv-x="741" 
d="M327 -14q-138 0 -215.5 82.5t-77.5 220.5q0 116 45 215t135 162t208 63q136 0 216 -81.5t80 -217.5q0 -88 -26 -167.5t-74.5 -141.5t-123.5 -98.5t-167 -36.5zM650 413q0 116 -58 187t-171 71q-78 0 -140 -33t-100.5 -88.5t-58.5 -124t-20 -142.5q0 -110 63 -175t173 -65
q93 0 166 56t109.5 139.5t36.5 174.5zM365 -11q-114 -74 -114 -131q0 -27 25 -27q35 0 72 45l29 -25q-47 -65 -114 -65q-79 0 -79 56q0 49 39 87.5t84 59.5h58zM279 779l8 45h256l-8 -45h-256z" />
    <glyph glyph-name="oogonekmacron" unicode="&#x1ed;" horiz-adv-x="556" 
d="M232 38q66 0 115.5 45.5t72.5 107.5t23 125q0 74 -39 118t-113 44q-66 0 -116.5 -43.5t-74 -104.5t-23.5 -124q0 -78 39.5 -123t115.5 -45zM302 531q92 0 148 -54t56 -148q0 -90 -30.5 -166t-97.5 -126.5t-158 -50.5q-99 0 -152.5 57t-53.5 157q0 86 33 160.5t100 122.5
t155 48zM270 -11q-114 -74 -114 -131q0 -27 25 -27q35 0 72 45l29 -25q-47 -65 -114 -65q-79 0 -79 56q0 49 39 87.5t84 59.5h58zM186 581l8 45h256l-8 -45h-256z" />
    <glyph glyph-name="jcaron" unicode="&#x1f0;" horiz-adv-x="185" 
d="M163 516h-63l-127 -601q-15 -52 -61 -52q-7 0 -19.5 2t-16.5 2l-12 -52q6 0 21 -2.5t23 -2.5q57 0 85 25t41 78zM232 713h61l-136 -144h-63l-86 144h57l66 -109z" />
    <glyph glyph-name="DZ" unicode="&#x1f1;" horiz-adv-x="1259" 
d="M160 714h230q146 0 209 -74t63 -212q0 -115 -43 -210.5t-134 -156.5t-214 -61h-266zM86 58h172q86 -1 152 30.5t105.5 86.5t59 122.5t19.5 143.5q0 215 -215 215h-163zM796 714h515l-12 -57l-571 -599h476l-13 -58h-555l13 60l568 596h-434z" />
    <glyph glyph-name="Dz" unicode="&#x1f2;" horiz-adv-x="1111" 
d="M160 714h230q146 0 209 -74t63 -212q0 -115 -43 -210.5t-134 -156.5t-214 -61h-266zM86 58h172q86 -1 152 30.5t105.5 86.5t59 122.5t19.5 143.5q0 215 -215 215h-163zM740 516h388l-11 -50l-401 -413h331l-11 -53h-408l11 51l398 412h-308z" />
    <glyph glyph-name="dz" unicode="&#x1f3;" horiz-adv-x="1000" 
d="M438 0h-61l23 93h-2q-35 -54 -79 -80.5t-109 -26.5q-97 0 -146.5 56t-49.5 154q0 81 33.5 156.5t99.5 127t149 51.5q136 0 168 -112h2l62 295h63zM216 38q68 0 121 47t78.5 112t25.5 132q0 70 -38 109.5t-106 39.5q-52 0 -95 -27t-69.5 -69.5t-41 -92t-14.5 -97.5
q0 -69 35 -111.5t104 -42.5zM629 516h388l-11 -50l-401 -413h331l-11 -53h-408l11 51l398 412h-308z" />
    <glyph glyph-name="Gacute" unicode="&#x1f4;" horiz-adv-x="741" 
d="M638 494q-4 88 -62 132.5t-159 44.5q-91 0 -164.5 -56t-112 -143t-38.5 -184q0 -113 59.5 -179t171.5 -66q114 0 190 73t95 189h-246l14 58h305l-75 -363h-46l12 120h-2q-84 -134 -259 -134q-137 0 -212 79.5t-75 218.5q0 118 43 217.5t133.5 163.5t212.5 64
q135 0 207 -61t76 -174h-68zM544 926h81l-144 -144h-53z" />
    <glyph glyph-name="gacute" unicode="&#x1f5;" horiz-adv-x="556" 
d="M438 54q-29 -139 -86 -199t-173 -60q-87 0 -141.5 40t-56.5 127h62q0 -61 41 -87.5t104 -26.5q33 0 60 9t46.5 27.5t33 36.5t24 46.5t16 47t12.5 49t10 40.5l-2 2q-26 -45 -74.5 -70t-101.5 -25q-90 0 -140.5 59t-50.5 151q0 78 31 147.5t92.5 116t140.5 46.5
q62 0 111 -31.5t58 -89.5h2l22 106h58zM84 226q0 -70 35.5 -116t103.5 -46q90 0 148 80.5t58 175.5q0 73 -34 115.5t-107 42.5q-91 0 -147.5 -78.5t-56.5 -173.5zM382 728h81l-144 -144h-53z" />
    <glyph glyph-name="Ngrave" unicode="&#x1f8;" horiz-adv-x="704" 
d="M154 714h77l285 -638h2l132 638h66l-156 -714h-75l-285 638h-2l-133 -638h-65zM427 908l82 -144h-50l-106 144h74z" />
    <glyph glyph-name="ngrave" unicode="&#x1f9;" horiz-adv-x="537" 
d="M100 516h58l-18 -94h2q31 48 80 78.5t104 30.5q72 0 114 -34t42 -105q0 -18 -8 -61l-71 -331h-63l72 333q7 28 7 52q0 48 -30.5 70.5t-77.5 22.5q-69 0 -125.5 -58t-76.5 -155l-57 -265h-62zM291 728l82 -144h-50l-106 144h74z" />
    <glyph glyph-name="Aringacute" unicode="&#x1fa;" horiz-adv-x="630" 
d="M167 280h282l-61 376h-2zM362 714h74l130 -714h-71l-36 222h-326l-132 -222h-75zM420 764q-40 0 -69.5 30t-29.5 70t29.5 69.5t69.5 29.5t70 -29.5t30 -69.5q0 -42 -29 -71t-71 -29zM420 798q26 0 46 20t20 46t-20 45.5t-46 19.5t-45.5 -19.5t-19.5 -45.5t19.5 -46
t45.5 -20zM512 1143h81l-144 -144h-53z" />
    <glyph glyph-name="aringacute" unicode="&#x1fb;" horiz-adv-x="519" 
d="M62 362q11 84 71 126.5t147 42.5q41 0 78.5 -8.5t69 -36t31.5 -70.5q0 -40 -32 -174q-7 -35 -15 -70t-11.5 -49.5t-5.5 -29t-2 -25.5q0 -21 33 -21q7 0 25 2l-9 -49q-28 -5 -52 -5q-54 0 -55 55q0 10 2 28l-2 2q-26 -44 -75 -69t-104 -25q-75 0 -119.5 35t-44.5 107
q0 75 48 110.5t130 49.5q33 5 88 7t76 8q33 9 47.5 30.5t14.5 70.5q0 74 -109 74q-144 0 -162 -116h-63zM374 276l-2 2q-5 -6 -14 -10.5t-17.5 -7.5t-22 -5t-20.5 -2.5t-22 -2t-18 -1.5q-27 -2 -36.5 -2.5t-37 -4t-40 -8t-33.5 -13.5t-31 -20.5t-18 -29.5t-8 -40
q0 -47 33 -70t82 -23q74 0 122 40t63 111zM310 581q-40 0 -69.5 30t-29.5 70t29.5 69.5t69.5 29.5t70 -29.5t30 -69.5q0 -42 -29 -71t-71 -29zM310 615q26 0 46 20t20 46t-20 45.5t-46 19.5t-45.5 -19.5t-19.5 -45.5t19.5 -46t45.5 -20zM435 974h81l-144 -144h-53z" />
    <glyph glyph-name="AEacute" unicode="&#x1fc;" horiz-adv-x="889" 
d="M208 284h224l81 372h-30zM453 714h498l-13 -58h-357l-56 -258h335l-13 -58h-334l-61 -282h369l-13 -58h-437l49 226h-255l-165 -226h-80zM795 911h81l-144 -144h-53z" />
    <glyph glyph-name="aeacute" unicode="&#x1fd;" horiz-adv-x="852" 
d="M374 276l-2 2q-5 -6 -14 -10.5t-17.5 -7.5t-22 -5t-20.5 -2.5t-22 -2t-18 -1.5q-27 -2 -36.5 -2.5t-37 -4t-40 -8t-33.5 -13.5t-31 -20.5t-18 -29.5t-8 -40q0 -47 33 -70t82 -23q74 0 122 40t63 111zM62 362q11 84 71 126.5t147 42.5q37 0 68.5 -8t60.5 -32.5t38 -64.5
q58 105 185 105q91 0 140 -57t49 -153q0 -41 -10 -80h-385q-8 -40 -8 -67q0 -62 39.5 -99t100.5 -37q63 0 109 34t62 94h63q-30 -92 -89.5 -136t-157.5 -44q-70 0 -118 34t-56 102h-2q-48 -136 -213 -136q-75 0 -119.5 35t-44.5 107q0 75 48 110.5t130 49.5q33 5 88 7t76 8
q33 9 47.5 30.5t14.5 70.5q0 74 -109 74q-144 0 -162 -116h-63zM756 294q2 16 2 22v22q0 62 -35 101t-97 39q-77 0 -125.5 -51.5t-65.5 -132.5h321zM561 728h81l-144 -144h-53z" />
    <glyph glyph-name="Oslashacute" unicode="&#x1fe;" horiz-adv-x="741" 
d="M163 112q64 -69 175 -69q93 0 166 56t109.5 139.5t36.5 174.5q0 99 -41 163zM740 712l-83 -86q61 -80 61 -196q0 -88 -26 -167.5t-74.5 -141.5t-123.5 -98.5t-167 -36.5q-132 0 -210 78l-88 -90l-24 26l88 91q-59 77 -59 198q0 116 45 215t135 162t208 63q128 0 209 -76
l84 88zM586 606q-60 65 -165 65q-78 0 -140 -33t-100.5 -88.5t-58.5 -124t-20 -142.5q0 -87 38 -143zM541 935h81l-144 -144h-53z" />
    <glyph glyph-name="oslashacute" unicode="&#x1ff;" horiz-adv-x="556" 
d="M409 427q-40 51 -118 51q-66 0 -116.5 -43.5t-74 -104.5t-23.5 -124q0 -58 20 -94zM512 530l22 -21l-60 -61q32 -50 32 -119q0 -90 -30.5 -166t-97.5 -126.5t-158 -50.5q-96 0 -150 56l-64 -63l-19 21l64 65q-37 55 -37 135q0 86 33 160.5t100 122.5t155 48q98 0 152 -59
zM114 87q40 -49 118 -49q66 0 115.5 45.5t72.5 107.5t23 125q0 44 -17 84zM365 728h81l-144 -144h-53z" />
    <glyph glyph-name="Adblgrave" unicode="&#x200;" horiz-adv-x="630" 
d="M167 280h282l-61 376h-2zM362 714h74l130 -714h-71l-36 222h-326l-132 -222h-75zM433 908l82 -144h-50l-106 144h74zM253 908l82 -144h-50l-106 144h74z" />
    <glyph glyph-name="adblgrave" unicode="&#x201;" horiz-adv-x="519" 
d="M62 362q11 84 71 126.5t147 42.5q41 0 78.5 -8.5t69 -36t31.5 -70.5q0 -40 -32 -174q-7 -35 -15 -70t-11.5 -49.5t-5.5 -29t-2 -25.5q0 -21 33 -21q7 0 25 2l-9 -49q-28 -5 -52 -5q-54 0 -55 55q0 10 2 28l-2 2q-26 -44 -75 -69t-104 -25q-75 0 -119.5 35t-44.5 107
q0 75 48 110.5t130 49.5q33 5 88 7t76 8q33 9 47.5 30.5t14.5 70.5q0 74 -109 74q-144 0 -162 -116h-63zM374 276l-2 2q-5 -6 -14 -10.5t-17.5 -7.5t-22 -5t-20.5 -2.5t-22 -2t-18 -1.5q-27 -2 -36.5 -2.5t-37 -4t-40 -8t-33.5 -13.5t-31 -20.5t-18 -29.5t-8 -40
q0 -47 33 -70t82 -23q74 0 122 40t63 111zM356 728l82 -144h-50l-106 144h74zM176 728l82 -144h-50l-106 144h74z" />
    <glyph glyph-name="Ainvertedbreve" unicode="&#x202;" horiz-adv-x="630" 
d="M167 280h282l-61 376h-2zM362 714h74l130 -714h-71l-36 222h-326l-132 -222h-75zM562 764h-38q-4 85 -90 85q-90 0 -118 -85h-37q10 59 53.5 94.5t104.5 35.5q59 0 93 -36t32 -94z" />
    <glyph glyph-name="ainvertedbreve" unicode="&#x203;" horiz-adv-x="519" 
d="M62 362q11 84 71 126.5t147 42.5q41 0 78.5 -8.5t69 -36t31.5 -70.5q0 -40 -32 -174q-7 -35 -15 -70t-11.5 -49.5t-5.5 -29t-2 -25.5q0 -21 33 -21q7 0 25 2l-9 -49q-28 -5 -52 -5q-54 0 -55 55q0 10 2 28l-2 2q-26 -44 -75 -69t-104 -25q-75 0 -119.5 35t-44.5 107
q0 75 48 110.5t130 49.5q33 5 88 7t76 8q33 9 47.5 30.5t14.5 70.5q0 74 -109 74q-144 0 -162 -116h-63zM374 276l-2 2q-5 -6 -14 -10.5t-17.5 -7.5t-22 -5t-20.5 -2.5t-22 -2t-18 -1.5q-27 -2 -36.5 -2.5t-37 -4t-40 -8t-33.5 -13.5t-31 -20.5t-18 -29.5t-8 -40
q0 -47 33 -70t82 -23q74 0 122 40t63 111zM447 584h-38q-4 85 -90 85q-90 0 -118 -85h-37q10 59 53.5 94.5t104.5 35.5q59 0 93 -36t32 -94z" />
    <glyph glyph-name="Edblgrave" unicode="&#x204;" 
d="M157 714h479l-13 -58h-410l-55 -258h383l-13 -58h-382l-60 -282h420l-13 -58h-488zM468 908l82 -144h-50l-106 144h74zM288 908l82 -144h-50l-106 144h74z" />
    <glyph glyph-name="edblgrave" unicode="&#x205;" horiz-adv-x="519" 
d="M425 294q0 8 0.5 21t0.5 19q0 66 -37.5 105t-103.5 39q-74 0 -127 -54t-70 -130h337zM80 241q-3 -18 -3 -40q0 -73 38 -118t112 -45q62 0 106.5 35t62.5 93h63q-54 -180 -235 -180q-102 0 -156 57.5t-54 160.5q0 84 32 157.5t97 121.5t150 48q92 0 144 -55t52 -146
q0 -50 -5 -89h-404zM341 728l82 -144h-50l-106 144h74zM161 728l82 -144h-50l-106 144h74z" />
    <glyph glyph-name="Einvertedbreve" unicode="&#x206;" 
d="M157 714h479l-13 -58h-410l-55 -258h383l-13 -58h-382l-60 -282h420l-13 -58h-488zM560 764h-38q-4 85 -90 85q-90 0 -118 -85h-37q10 59 53.5 94.5t104.5 35.5q59 0 93 -36t32 -94z" />
    <glyph glyph-name="einvertedbreve" unicode="&#x207;" horiz-adv-x="519" 
d="M425 294q0 8 0.5 21t0.5 19q0 66 -37.5 105t-103.5 39q-74 0 -127 -54t-70 -130h337zM80 241q-3 -18 -3 -40q0 -73 38 -118t112 -45q62 0 106.5 35t62.5 93h63q-54 -180 -235 -180q-102 0 -156 57.5t-54 160.5q0 84 32 157.5t97 121.5t150 48q92 0 144 -55t52 -146
q0 -50 -5 -89h-404zM473 584h-38q-4 85 -90 85q-90 0 -118 -85h-37q10 59 53.5 94.5t104.5 35.5q59 0 93 -36t32 -94z" />
    <glyph glyph-name="Idblgrave" unicode="&#x208;" horiz-adv-x="222" 
d="M156 714h68l-151 -714h-68zM232 908l82 -144h-50l-106 144h74zM52 908l82 -144h-50l-106 144h74z" />
    <glyph glyph-name="idblgrave" unicode="&#x209;" horiz-adv-x="185" 
d="M-10 0l110 516h63l-111 -516h-62zM183 713l82 -144h-50l-106 144h74zM3 713l82 -144h-50l-106 144h74z" />
    <glyph glyph-name="Iinvertedbreve" unicode="&#x20a;" horiz-adv-x="222" 
d="M156 714h68l-151 -714h-68zM354 764h-38q-4 85 -90 85q-90 0 -118 -85h-37q10 59 53.5 94.5t104.5 35.5q59 0 93 -36t32 -94z" />
    <glyph glyph-name="iinvertedbreve" unicode="&#x20b;" horiz-adv-x="185" 
d="M-10 0l110 516h63l-111 -516h-62zM296 569h-38q-4 85 -90 85q-90 0 -118 -85h-37q10 59 53.5 94.5t104.5 35.5q59 0 93 -36t32 -94z" />
    <glyph glyph-name="Odblgrave" unicode="&#x20c;" horiz-adv-x="741" 
d="M327 -14q-138 0 -215.5 82.5t-77.5 220.5q0 116 45 215t135 162t208 63q136 0 216 -81.5t80 -217.5q0 -88 -26 -167.5t-74.5 -141.5t-123.5 -98.5t-167 -36.5zM650 413q0 116 -58 187t-171 71q-78 0 -140 -33t-100.5 -88.5t-58.5 -124t-20 -142.5q0 -110 63 -175t173 -65
q93 0 166 56t109.5 139.5t36.5 174.5zM486 923l82 -144h-50l-106 144h74zM306 923l82 -144h-50l-106 144h74z" />
    <glyph glyph-name="odblgrave" unicode="&#x20d;" horiz-adv-x="556" 
d="M232 38q66 0 115.5 45.5t72.5 107.5t23 125q0 74 -39 118t-113 44q-66 0 -116.5 -43.5t-74 -104.5t-23.5 -124q0 -78 39.5 -123t115.5 -45zM302 531q92 0 148 -54t56 -148q0 -90 -30.5 -166t-97.5 -126.5t-158 -50.5q-99 0 -152.5 57t-53.5 157q0 86 33 160.5t100 122.5
t155 48zM367 728l82 -144h-50l-106 144h74zM187 728l82 -144h-50l-106 144h74z" />
    <glyph glyph-name="Oinvertedbreve" unicode="&#x20e;" horiz-adv-x="741" 
d="M327 -14q-138 0 -215.5 82.5t-77.5 220.5q0 116 45 215t135 162t208 63q136 0 216 -81.5t80 -217.5q0 -88 -26 -167.5t-74.5 -141.5t-123.5 -98.5t-167 -36.5zM650 413q0 116 -58 187t-171 71q-78 0 -140 -33t-100.5 -88.5t-58.5 -124t-20 -142.5q0 -110 63 -175t173 -65
q93 0 166 56t109.5 139.5t36.5 174.5zM618 779h-38q-4 85 -90 85q-90 0 -118 -85h-37q10 59 53.5 94.5t104.5 35.5q59 0 93 -36t32 -94z" />
    <glyph glyph-name="oinvertedbreve" unicode="&#x20f;" horiz-adv-x="556" 
d="M232 38q66 0 115.5 45.5t72.5 107.5t23 125q0 74 -39 118t-113 44q-66 0 -116.5 -43.5t-74 -104.5t-23.5 -124q0 -78 39.5 -123t115.5 -45zM302 531q92 0 148 -54t56 -148q0 -90 -30.5 -166t-97.5 -126.5t-158 -50.5q-99 0 -152.5 57t-53.5 157q0 86 33 160.5t100 122.5
t155 48zM482 584h-38q-4 85 -90 85q-90 0 -118 -85h-37q10 59 53.5 94.5t104.5 35.5q59 0 93 -36t32 -94z" />
    <glyph glyph-name="Rdblgrave" unicode="&#x210;" horiz-adv-x="648" 
d="M153 375h241q82 0 134 40t52 116q0 64 -28.5 94.5t-93.5 30.5h-245zM157 714h304q91 0 139 -45.5t48 -132.5q0 -79 -51 -134t-130 -61v-2q91 -20 91 -128q0 -26 -5 -75.5t-5 -73.5q0 -46 12 -62h-70q-10 6 -10 73q0 21 5 64t5 64q0 116 -98 116h-252l-67 -317h-68z
M444 908l82 -144h-50l-106 144h74zM264 908l82 -144h-50l-106 144h74z" />
    <glyph glyph-name="rdblgrave" unicode="&#x211;" horiz-adv-x="315" 
d="M100 516h57l-26 -119h2q67 126 187 126h17h9q5 0 8 -1l-14 -63q-6 0 -18 0.5t-18 0.5q-78 -2 -127 -55.5t-67 -134.5l-58 -270h-62zM279 720l82 -144h-50l-106 144h74zM99 720l82 -144h-50l-106 144h74z" />
    <glyph glyph-name="Rinvertedbreve" unicode="&#x212;" horiz-adv-x="648" 
d="M153 375h241q82 0 134 40t52 116q0 64 -28.5 94.5t-93.5 30.5h-245zM157 714h304q91 0 139 -45.5t48 -132.5q0 -79 -51 -134t-130 -61v-2q91 -20 91 -128q0 -26 -5 -75.5t-5 -73.5q0 -46 12 -62h-70q-10 6 -10 73q0 21 5 64t5 64q0 116 -98 116h-252l-67 -317h-68z
M546 764h-38q-4 85 -90 85q-90 0 -118 -85h-37q10 59 53.5 94.5t104.5 35.5q59 0 93 -36t32 -94z" />
    <glyph glyph-name="rinvertedbreve" unicode="&#x213;" horiz-adv-x="315" 
d="M100 516h57l-26 -119h2q67 126 187 126h17h9q5 0 8 -1l-14 -63q-6 0 -18 0.5t-18 0.5q-78 -2 -127 -55.5t-67 -134.5l-58 -270h-62zM392 576h-38q-4 85 -90 85q-90 0 -118 -85h-37q10 59 53.5 94.5t104.5 35.5q59 0 93 -36t32 -94z" />
    <glyph glyph-name="Udblgrave" unicode="&#x214;" horiz-adv-x="704" 
d="M150 714h68l-95 -454q-7 -25 -7 -62q-4 -75 50 -115t145 -40q192 0 231 188l101 483h68l-102 -488q-50 -240 -307 -240q-67 0 -122 19t-93.5 66.5t-38.5 118.5q0 24 6 58zM498 908l82 -144h-50l-106 144h74zM318 908l82 -144h-50l-106 144h74z" />
    <glyph glyph-name="udblgrave" unicode="&#x215;" horiz-adv-x="537" 
d="M402 0h-58l18 94h-2q-31 -48 -79.5 -78t-104.5 -30q-156 0 -156 138q0 18 8 61l71 331h63l-72 -333q-7 -28 -7 -52q0 -48 30.5 -70.5t77.5 -22.5q70 0 125 58t77 155l57 265h63zM354 713l82 -144h-50l-106 144h74zM174 713l82 -144h-50l-106 144h74z" />
    <glyph glyph-name="Uinvertedbreve" unicode="&#x216;" horiz-adv-x="704" 
d="M150 714h68l-95 -454q-7 -25 -7 -62q-4 -75 50 -115t145 -40q192 0 231 188l101 483h68l-102 -488q-50 -240 -307 -240q-67 0 -122 19t-93.5 66.5t-38.5 118.5q0 24 6 58zM590 764h-38q-4 85 -90 85q-90 0 -118 -85h-37q10 59 53.5 94.5t104.5 35.5q59 0 93 -36t32 -94z
" />
    <glyph glyph-name="uinvertedbreve" unicode="&#x217;" horiz-adv-x="537" 
d="M402 0h-58l18 94h-2q-31 -48 -79.5 -78t-104.5 -30q-156 0 -156 138q0 18 8 61l71 331h63l-72 -333q-7 -28 -7 -52q0 -48 30.5 -70.5t77.5 -22.5q70 0 125 58t77 155l57 265h63zM467 569h-38q-4 85 -90 85q-90 0 -118 -85h-37q10 59 53.5 94.5t104.5 35.5q59 0 93 -36
t32 -94z" />
    <glyph glyph-name="Scommaaccent" unicode="&#x218;" horiz-adv-x="630" 
d="M539 506q0 90 -46.5 127.5t-142.5 37.5q-74 0 -128 -36.5t-54 -106.5q0 -51 31 -75.5t89 -42.5l76 -23q46 -13 73.5 -24.5t58.5 -32t45.5 -51.5t14.5 -74q0 -25 -6 -51t-24.5 -57t-47.5 -55t-80.5 -40t-117.5 -16q-127 0 -201 62.5t-68 186.5h68q-6 -100 49 -146t157 -46
q79 0 141 39.5t62 113.5q0 18 -5 34t-11 27t-20 22t-22.5 17t-28.5 13.5t-28.5 10.5t-31.5 9.5t-30 8.5l-70 21q-141 40 -141 166q0 101 74 152.5t179 51.5q119 0 189.5 -53.5t64.5 -169.5h-68zM131 -264l-8 -40q50 12 74 34t36 69l33 140h-84l-24 -106h42q-10 -42 -24 -65
t-45 -32z" />
    <glyph glyph-name="scommaaccent" unicode="&#x219;" horiz-adv-x="481" 
d="M62 168q0 -70 41.5 -100t104.5 -30q49 0 89.5 24.5t40.5 70.5q-1 37 -29.5 61t-69 38.5t-81 31t-68.5 48t-29 78.5q0 69 59 105t132 36q86 0 136 -40t48 -126h-63q4 56 -30.5 84.5t-90.5 28.5q-51 0 -89.5 -20t-38.5 -68q0 -33 26.5 -52.5t82.5 -42.5q6 -3 27 -11
t30 -11.5t27 -12.5t27 -16t22 -18.5t19 -22.5t11 -26.5t5 -33.5q0 -81 -61.5 -119t-146.5 -38q-84 0 -140 45t-53 137h62zM60 -264l-8 -40q50 12 74 34t36 69l33 140h-84l-24 -106h42q-10 -42 -24 -65t-45 -32z" />
    <glyph glyph-name="Tcommaaccent" unicode="&#x21a;" horiz-adv-x="556" 
d="M81 714h558l-12 -58h-245l-143 -656h-68l143 656h-245zM108 -250l-8 -40q50 12 74 34t36 69l33 140h-84l-24 -106h42q-10 -42 -24 -65t-45 -32z" />
    <glyph glyph-name="tcommaaccent" unicode="&#x21b;" horiz-adv-x="296" 
d="M43 516h93l33 156h63l-33 -156h103l-10 -53h-105l-71 -331q-7 -34 -7 -49q0 -36 33 -36q36 0 74 6l-11 -54q-28 -4 -64 -4q-95 0 -95 73q0 21 7 53l71 342h-93zM-4 -255l-8 -40q50 12 74 34t36 69l33 140h-84l-24 -106h42q-10 -42 -24 -65t-45 -32z" />
    <glyph glyph-name="Hcaron" unicode="&#x21e;" horiz-adv-x="704" 
d="M157 714h68l-66 -310h413l66 310h68l-152 -714h-68l74 346h-413l-74 -346h-68zM574 903h61l-136 -144h-63l-86 144h57l66 -109z" />
    <glyph glyph-name="hcaron" unicode="&#x21f;" horiz-adv-x="537" 
d="M143 714h63l-63 -292h2q28 48 76.5 78.5t104.5 30.5q72 0 114 -34t42 -105q0 -18 -8 -61l-71 -331h-63l72 333q7 28 7 52q0 48 -30.5 70.5t-77.5 22.5q-69 0 -125.5 -58t-76.5 -155l-57 -265h-62zM449 894h61l-136 -144h-63l-86 144h57l66 -109z" />
    <glyph glyph-name="Adotaccent" unicode="&#x226;" horiz-adv-x="630" 
d="M167 280h282l-61 376h-2zM362 714h74l130 -714h-71l-36 222h-326l-132 -222h-75zM407 866h64l-20 -102h-63z" />
    <glyph glyph-name="adotaccent" unicode="&#x227;" horiz-adv-x="519" 
d="M62 362q11 84 71 126.5t147 42.5q41 0 78.5 -8.5t69 -36t31.5 -70.5q0 -40 -32 -174q-7 -35 -15 -70t-11.5 -49.5t-5.5 -29t-2 -25.5q0 -21 33 -21q7 0 25 2l-9 -49q-28 -5 -52 -5q-54 0 -55 55q0 10 2 28l-2 2q-26 -44 -75 -69t-104 -25q-75 0 -119.5 35t-44.5 107
q0 75 48 110.5t130 49.5q33 5 88 7t76 8q33 9 47.5 30.5t14.5 70.5q0 74 -109 74q-144 0 -162 -116h-63zM374 276l-2 2q-5 -6 -14 -10.5t-17.5 -7.5t-22 -5t-20.5 -2.5t-22 -2t-18 -1.5q-27 -2 -36.5 -2.5t-37 -4t-40 -8t-33.5 -13.5t-31 -20.5t-18 -29.5t-8 -40
q0 -47 33 -70t82 -23q74 0 122 40t63 111zM291 686h64l-20 -102h-63z" />
    <glyph glyph-name="Ecedilla" unicode="&#x228;" 
d="M157 714h479l-13 -58h-410l-55 -258h383l-13 -58h-382l-60 -282h420l-13 -58h-488zM138 -155q44 -17 77 -17q56 0 56 41q0 20 -15.5 30.5t-38.5 10.5q-20 0 -38 -9l-16 18l72 84h37l-58 -61l2 -2q12 4 36 4q32 0 53 -17.5t21 -51.5q0 -39 -33 -60t-74 -21q-50 0 -95 22z
" />
    <glyph glyph-name="ecedilla" unicode="&#x229;" horiz-adv-x="519" 
d="M425 294q0 8 0.5 21t0.5 19q0 66 -37.5 105t-103.5 39q-74 0 -127 -54t-70 -130h337zM80 241q-3 -18 -3 -40q0 -73 38 -118t112 -45q62 0 106.5 35t62.5 93h63q-54 -180 -235 -180q-102 0 -156 57.5t-54 160.5q0 84 32 157.5t97 121.5t150 48q92 0 144 -55t52 -146
q0 -50 -5 -89h-404zM92 -169q44 -17 77 -17q56 0 56 41q0 20 -15.5 30.5t-38.5 10.5q-20 0 -38 -9l-16 18l72 84h37l-58 -61l2 -2q12 4 36 4q32 0 53 -17.5t21 -51.5q0 -39 -33 -60t-74 -21q-50 0 -95 22z" />
    <glyph glyph-name="Odieresismacron" unicode="&#x22a;" horiz-adv-x="741" 
d="M327 -14q-138 0 -215.5 82.5t-77.5 220.5q0 116 45 215t135 162t208 63q136 0 216 -81.5t80 -217.5q0 -88 -26 -167.5t-74.5 -141.5t-123.5 -98.5t-167 -36.5zM650 413q0 116 -58 187t-171 71q-78 0 -140 -33t-100.5 -88.5t-58.5 -124t-20 -142.5q0 -110 63 -175t173 -65
q93 0 166 56t109.5 139.5t36.5 174.5zM387 884h64l-20 -102h-63zM546 884h64l-20 -102h-63zM382 931l8 45h256l-8 -45h-256z" />
    <glyph glyph-name="odieresismacron" unicode="&#x22b;" horiz-adv-x="556" 
d="M232 38q66 0 115.5 45.5t72.5 107.5t23 125q0 74 -39 118t-113 44q-66 0 -116.5 -43.5t-74 -104.5t-23.5 -124q0 -78 39.5 -123t115.5 -45zM302 531q92 0 148 -54t56 -148q0 -90 -30.5 -166t-97.5 -126.5t-158 -50.5q-99 0 -152.5 57t-53.5 157q0 86 33 160.5t100 122.5
t155 48zM263 686h64l-20 -102h-63zM422 686h64l-20 -102h-63zM261 739l8 45h256l-8 -45h-256z" />
    <glyph glyph-name="Otildemacron" unicode="&#x22c;" horiz-adv-x="741" 
d="M327 -14q-138 0 -215.5 82.5t-77.5 220.5q0 116 45 215t135 162t208 63q136 0 216 -81.5t80 -217.5q0 -88 -26 -167.5t-74.5 -141.5t-123.5 -98.5t-167 -36.5zM650 413q0 116 -58 187t-171 71q-78 0 -140 -33t-100.5 -88.5t-58.5 -124t-20 -142.5q0 -110 63 -175t173 -65
q93 0 166 56t109.5 139.5t36.5 174.5zM594 874q-9 -42 -29 -67q-25 -34 -60 -34q-26 0 -76 27q-46 29 -64 29q-17 0 -30.5 -18t-17.5 -38h-40q10 42 33 71.5t59 29.5q24 0 70 -26q46 -30 70 -30q14 0 26.5 18.5t18.5 37.5h40zM334 930l8 45h256l-8 -45h-256z" />
    <glyph glyph-name="otildemacron" unicode="&#x22d;" horiz-adv-x="556" 
d="M232 38q66 0 115.5 45.5t72.5 107.5t23 125q0 74 -39 118t-113 44q-66 0 -116.5 -43.5t-74 -104.5t-23.5 -124q0 -78 39.5 -123t115.5 -45zM302 531q92 0 148 -54t56 -148q0 -90 -30.5 -166t-97.5 -126.5t-158 -50.5q-99 0 -152.5 57t-53.5 157q0 86 33 160.5t100 122.5
t155 48zM501 685q-9 -42 -29 -67q-25 -34 -60 -34q-26 0 -76 27q-46 29 -64 29q-17 0 -30.5 -18t-17.5 -38h-40q10 42 33 71.5t59 29.5q24 0 70 -26q46 -30 70 -30q14 0 26.5 18.5t18.5 37.5h40zM259 737l8 45h256l-8 -45h-256z" />
    <glyph glyph-name="Odotaccent" unicode="&#x22e;" horiz-adv-x="741" 
d="M327 -14q-138 0 -215.5 82.5t-77.5 220.5q0 116 45 215t135 162t208 63q136 0 216 -81.5t80 -217.5q0 -88 -26 -167.5t-74.5 -141.5t-123.5 -98.5t-167 -36.5zM650 413q0 116 -58 187t-171 71q-78 0 -140 -33t-100.5 -88.5t-58.5 -124t-20 -142.5q0 -110 63 -175t173 -65
q93 0 166 56t109.5 139.5t36.5 174.5zM433 881h64l-20 -102h-63z" />
    <glyph glyph-name="odotaccent" unicode="&#x22f;" horiz-adv-x="556" 
d="M232 38q66 0 115.5 45.5t72.5 107.5t23 125q0 74 -39 118t-113 44q-66 0 -116.5 -43.5t-74 -104.5t-23.5 -124q0 -78 39.5 -123t115.5 -45zM302 531q92 0 148 -54t56 -148q0 -90 -30.5 -166t-97.5 -126.5t-158 -50.5q-99 0 -152.5 57t-53.5 157q0 86 33 160.5t100 122.5
t155 48zM326 686h64l-20 -102h-63z" />
    <glyph glyph-name="Odotaccentmacron" unicode="&#x230;" horiz-adv-x="741" 
d="M327 -14q-138 0 -215.5 82.5t-77.5 220.5q0 116 45 215t135 162t208 63q136 0 216 -81.5t80 -217.5q0 -88 -26 -167.5t-74.5 -141.5t-123.5 -98.5t-167 -36.5zM650 413q0 116 -58 187t-171 71q-78 0 -140 -33t-100.5 -88.5t-58.5 -124t-20 -142.5q0 -110 63 -175t173 -65
q93 0 166 56t109.5 139.5t36.5 174.5zM427 875h64l-20 -102h-63zM334 934l8 45h256l-8 -45h-256z" />
    <glyph glyph-name="odotaccentmacron" unicode="&#x231;" horiz-adv-x="556" 
d="M232 38q66 0 115.5 45.5t72.5 107.5t23 125q0 74 -39 118t-113 44q-66 0 -116.5 -43.5t-74 -104.5t-23.5 -124q0 -78 39.5 -123t115.5 -45zM302 531q92 0 148 -54t56 -148q0 -90 -30.5 -166t-97.5 -126.5t-158 -50.5q-99 0 -152.5 57t-53.5 157q0 86 33 160.5t100 122.5
t155 48zM326 686h64l-20 -102h-63zM252 738l8 45h256l-8 -45h-256z" />
    <glyph glyph-name="Ymacron" unicode="&#x232;" 
d="M598 714h83l-358 -426l-63 -288h-69l65 295l-190 419h72l161 -362zM243 761l8 45h256l-8 -45h-256z" />
    <glyph glyph-name="ymacron" unicode="&#x233;" horiz-adv-x="463" 
d="M-42 -134q27 -3 53 -3q48 0 81 56l47 81l-95 516h66l74 -438h2l238 438h68l-367 -637q-41 -69 -125 -69q-9 0 -27.5 2.5t-26.5 2.5zM155 566l8 45h256l-8 -45h-256z" />
    <glyph glyph-name="uni0237" unicode="&#x237;" horiz-adv-x="185" 
d="M100 516h63l-129 -603q-13 -53 -41 -78t-85 -25q-8 0 -23 2.5t-21 2.5l12 52q4 0 16.5 -2t19.5 -2q46 0 61 52z" />
    <glyph glyph-name="uni0259" unicode="&#x259;" horiz-adv-x="539" 
d="M210 -14q-92 0 -144 55t-52 146q0 50 5 89h404q3 18 3 40q0 73 -38 118t-112 45q-62 0 -106.5 -35t-62.5 -93h-63q54 180 235 180q102 0 156 -57t54 -161q0 -84 -32 -157.5t-97 -121.5t-150 -48zM218 39q74 0 127 54t70 130h-337q0 -8 -0.5 -21t-0.5 -19q0 -66 37.5 -105
t103.5 -39z" />
    <glyph glyph-name="commaturnedmod" unicode="&#x2bb;" horiz-adv-x="278" 
d="M263 674q-22 -6 -37 -22.5t-20 -31t-12 -43.5h42l-24 -105h-84l33 139q12 46 36 68.5t74 34.5z" />
    <glyph glyph-name="afii57929" unicode="&#x2bc;" horiz-adv-x="278" 
d="M118 511q31 9 45 32t24 65h-42l24 106h84l-33 -140q-12 -47 -36 -69t-74 -34z" />
    <glyph glyph-name="circumflex" unicode="&#x2c6;" horiz-adv-x="185" 
d="M58 585h-60l135 144h63l86 -144h-57l-66 106z" />
    <glyph glyph-name="caron" unicode="&#x2c7;" horiz-adv-x="185" 
d="M255 729h61l-136 -144h-63l-86 144h57l66 -109z" />
    <glyph glyph-name="uni02C9.macronCopy" unicode="&#x2c9;" horiz-adv-x="185" 
d="M28 627l8 45h256l-8 -45h-256z" />
    <glyph glyph-name="breve" unicode="&#x2d8;" horiz-adv-x="185" 
d="M64 726q4 -85 90 -85q90 0 118 85h37q-10 -59 -53.5 -94.5t-104.5 -35.5q-59 0 -93 36t-32 94h38z" />
    <glyph glyph-name="dotaccent" unicode="&#x2d9;" horiz-adv-x="185" 
d="M136 703h64l-20 -102h-63z" />
    <glyph glyph-name="ring" unicode="&#x2da;" horiz-adv-x="185" 
d="M159 574q-40 0 -69.5 30t-29.5 70t29.5 69.5t69.5 29.5t70 -29.5t30 -69.5q0 -42 -29 -71t-71 -29zM159 608q26 0 46 20t20 46t-20 45.5t-46 19.5t-45.5 -19.5t-19.5 -45.5t19.5 -46t45.5 -20z" />
    <glyph glyph-name="ogonek" unicode="&#x2db;" horiz-adv-x="185" 
d="M175 0q-114 -74 -114 -131q0 -27 25 -27q35 0 72 45l29 -25q-47 -65 -114 -65q-79 0 -79 56q0 49 39 87.5t84 59.5h58z" />
    <glyph glyph-name="tilde" unicode="&#x2dc;" horiz-adv-x="185" 
d="M314 701q-9 -42 -29 -67q-25 -34 -60 -34q-26 0 -76 27q-46 29 -64 29q-17 0 -30.5 -18t-17.5 -38h-40q10 42 33 71.5t59 29.5q24 0 70 -26q46 -30 70 -30q14 0 26.5 18.5t18.5 37.5h40z" />
    <glyph glyph-name="hungarumlaut" unicode="&#x2dd;" horiz-adv-x="185" 
d="M276 729h81l-144 -144h-53zM128 729h81l-144 -144h-53z" />
    <glyph glyph-name="uni02EE" unicode="&#x2ee;" horiz-adv-x="370" 
d="M228 511q31 9 45 32t24 65h-42l24 106h84l-33 -140q-12 -47 -36 -69t-74 -34zM75 511q31 9 45 32t24 65h-42l24 106h84l-33 -140q-12 -47 -36 -69t-74 -34z" />
    <glyph glyph-name="gravecmb" unicode="&#x300;" horiz-adv-x="0" 
d="M-43 729l82 -144h-50l-106 144h74z" />
    <glyph glyph-name="acutecmb" unicode="&#x301;" horiz-adv-x="0" 
d="M16 729h81l-144 -144h-53z" />
    <glyph glyph-name="circumflexcmb" unicode="&#x302;" horiz-adv-x="0" 
d="M-126 585h-60l135 144h63l86 -144h-57l-66 106z" />
    <glyph glyph-name="tildecmb" unicode="&#x303;" horiz-adv-x="0" 
d="M90 701h40q-9 -42 -29 -67q-25 -34 -60 -34q-26 0 -76 27q-46 29 -64 29q-17 0 -30.5 -18t-17.5 -38h-40q10 42 33 71.5t59 29.5q24 0 70 -26q46 -30 70 -30q14 0 26.5 18.5t18.5 37.5z" />
    <glyph glyph-name="macroncmb" unicode="&#x304;" horiz-adv-x="0" 
d="M-156 627l8 45h256l-8 -45h-256z" />
    <glyph glyph-name="brevecmb" unicode="&#x306;" horiz-adv-x="0" 
d="M-158 726h38q4 -85 90 -85q90 0 118 85h37q-10 -59 -53.5 -94.5t-104.5 -35.5q-59 0 -93 36t-32 94z" />
    <glyph glyph-name="dotaccentcmb" unicode="&#x307;" horiz-adv-x="0" 
d="M-48 703h64l-20 -102h-63z" />
    <glyph glyph-name="dieresiscmb" unicode="&#x308;" horiz-adv-x="0" 
d="M-128 703h64l-20 -102h-63zM31 703h64l-20 -102h-63z" />
    <glyph glyph-name="hookabovecomb" unicode="&#x309;" horiz-adv-x="0" 
d="M32 559l-14 -37h-34l2 58l18 15q18 -8 49 -8q18 0 33 10.5t18 27.5q5 22 -8 32.5t-36 10.5q-42 0 -80 -14l-7 32q45 21 97 21q43 0 71.5 -22t19.5 -64q-7 -42 -47 -56t-82 -6z" />
    <glyph glyph-name="ringcmb" unicode="&#x30a;" horiz-adv-x="0" 
d="M-25 574q-40 0 -69.5 30t-29.5 70t29.5 69.5t69.5 29.5t70 -29.5t30 -69.5q0 -42 -29 -71t-71 -29zM-25 608q26 0 46 20t20 46t-20 45.5t-46 19.5t-45.5 -19.5t-19.5 -45.5t19.5 -46t45.5 -20z" />
    <glyph glyph-name="hungarumlautcmb" unicode="&#x30b;" horiz-adv-x="0" 
d="M92 729h81l-144 -144h-53zM-56 729h81l-144 -144h-53z" />
    <glyph glyph-name="caroncmb" unicode="&#x30c;" horiz-adv-x="0" 
d="M71 729h61l-136 -144h-63l-86 144h57l66 -109z" />
    <glyph glyph-name="uni030F" unicode="&#x30f;" horiz-adv-x="0" 
d="M77 729l82 -144h-50l-106 144h74zM-103 729l82 -144h-50l-106 144h74z" />
    <glyph glyph-name="uni0311" unicode="&#x311;" horiz-adv-x="0" 
d="M123 596h-38q-4 85 -90 85q-90 0 -118 -85h-37q10 59 53.5 94.5t104.5 35.5q59 0 93 -36t32 -94z" />
    <glyph glyph-name="uni0312" unicode="&#x312;" horiz-adv-x="0" 
d="M72 714l-8 -40q-22 -6 -37 -22.5t-20 -31t-12 -43.5h42l-24 -105h-84l33 139q12 46 36 68.5t74 34.5z" />
    <glyph glyph-name="uni0313" unicode="&#x313;" horiz-adv-x="0" 
d="M-71 471l8 40q31 9 45 32t24 65h-42l24 106h84l-33 -140q-12 -47 -36 -69t-74 -34z" />
    <glyph glyph-name="uni0314" unicode="&#x314;" horiz-adv-x="0" 
d="M29 511l-8 -40q-45 13 -61 35t-4 68l25 140h83l-20 -106h-42q-9 -31 -4 -59.5t31 -37.5z" />
    <glyph glyph-name="uni0316" unicode="&#x316;" horiz-adv-x="0" 
d="M-43 15l82 -144h-50l-106 144h74z" />
    <glyph glyph-name="uni0317" unicode="&#x317;" horiz-adv-x="0" 
d="M16 15h81l-144 -144h-53z" />
    <glyph glyph-name="uni031B" unicode="&#x31b;" horiz-adv-x="0" 
d="M-30 649l21 9q13 -12 31 -29.5t25.5 -24t22 -12t34.5 -5.5q37 -1 49.5 29t12.5 98h58q0 -99 -22.5 -136.5t-90.5 -37.5q-78 0 -141 109z" />
    <glyph glyph-name="dotbelowcomb" unicode="&#x323;" horiz-adv-x="0" 
d="M-48 -11h64l-20 -102h-63z" />
    <glyph glyph-name="uni0324" unicode="&#x324;" horiz-adv-x="0" 
d="M-128 -11h64l-20 -102h-63zM31 -11h64l-20 -102h-63z" />
    <glyph glyph-name="uni0325" unicode="&#x325;" horiz-adv-x="0" 
d="M-25 -140q-40 0 -69.5 30t-29.5 70t29.5 69.5t69.5 29.5t70 -29.5t30 -69.5q0 -42 -29 -71t-71 -29zM-25 -106q26 0 46 20t20 46t-20 45.5t-46 19.5t-45.5 -19.5t-19.5 -45.5t19.5 -46t45.5 -20z" />
    <glyph glyph-name="uni0326" unicode="&#x326;" horiz-adv-x="0" 
d="M-71 -243l8 40q31 9 45 32t24 65h-42l24 106h84l-33 -140q-12 -47 -36 -69t-74 -34z" />
    <glyph glyph-name="cedillacmb" unicode="&#x327;" horiz-adv-x="0" 
d="M-268 -181l14 29q44 -17 77 -17q56 0 56 41q0 20 -15.5 30.5t-38.5 10.5q-20 0 -38 -9l-16 18l72 84h37l-58 -61l2 -2q12 4 36 4q32 0 53 -17.5t21 -51.5q0 -39 -33 -60t-74 -21q-50 0 -95 22z" />
    <glyph glyph-name="ogonekcmb" unicode="&#x328;" horiz-adv-x="0" 
d="M-67 0h58q-114 -74 -114 -131q0 -27 25 -27q35 0 72 45l29 -25q-47 -65 -114 -65q-79 0 -79 56q0 49 39 87.5t84 59.5z" />
    <glyph glyph-name="uni032D.circumflexBelowComb" unicode="&#x32d;" horiz-adv-x="0" 
d="M-463 -222h-60l135 144h63l86 -144h-57l-66 106z" />
    <glyph glyph-name="uni032E.breveBelowComb" unicode="&#x32e;" horiz-adv-x="0" 
d="M-477 -81h38q4 -85 90 -85q90 0 118 85h37q-10 -59 -53.5 -94.5t-104.5 -35.5q-59 0 -93 36t-32 94z" />
    <glyph glyph-name="uni0330.tildeBelowComb" unicode="&#x330;" horiz-adv-x="0" 
d="M-245 -106h40q-9 -42 -29 -67q-26 -34 -60 -34q-26 0 -76 27q-46 29 -64 29q-17 0 -30.5 -18t-17.5 -38h-40q10 42 33 71.5t59 29.5q24 0 70 -26q46 -30 70 -30q14 0 26.5 18.5t18.5 37.5z" />
    <glyph glyph-name="uni0331.macronBelowComb" unicode="&#x331;" horiz-adv-x="0" 
d="M-494 -180l8 45h256l-8 -45h-256z" />
    <glyph glyph-name="soliduslongoverlaycmb" unicode="&#x338;" horiz-adv-x="0" 
d="M-351 -14h-59l410 743h59z" />
    <glyph glyph-name="uni0340.graveToneComb" unicode="&#x340;" horiz-adv-x="0" 
d="M-264 729l82 -144h-50l-106 144h74z" />
    <glyph glyph-name="uni0341.acuteToneComb" unicode="&#x341;" horiz-adv-x="0" 
d="M-170 729h81l-144 -144h-53z" />
    <glyph glyph-name="uni0344.diaeresisTonosComb" unicode="&#x344;" horiz-adv-x="0" 
d="M-351 595l19 102h64l-20 -102h-63zM-112 714l-109 -141h-49l83 141h75zM-127 595l19 102h64l-20 -102h-63z" />
    <glyph glyph-name="uni037E.semicolonGreek" unicode="&#x37e;" horiz-adv-x="278" 
d="M113 394l23 106h85l-24 -106h-84zM-11 -136l8 40q21 6 35.5 23t20 31.5t12.5 41.5h-42l24 106h84l-33 -139q-12 -46 -36 -68.5t-73 -34.5z" />
    <glyph glyph-name="uni0384.tonos" unicode="&#x384;" horiz-adv-x="178" 
d="M246 714l-109 -141h-49l83 141h75z" />
    <glyph glyph-name="uni0385.diaeresisTonos" unicode="&#x385;" horiz-adv-x="332" 
d="M12 595l19 102h64l-20 -102h-63zM251 714l-109 -141h-49l83 141h75zM236 595l19 102h64l-20 -102h-63z" />
    <glyph glyph-name="uni0386.AlphaTonos" unicode="&#x386;" horiz-adv-x="648" 
d="M255 714l-109 -141h-49l83 141h75zM185 280h282l-61 376h-2zM380 714h74l130 -714h-71l-36 222h-326l-132 -222h-75z" />
    <glyph glyph-name="uni0387.anoteleia" unicode="&#x387;" horiz-adv-x="272" 
d="M178 311h-82l22 106h82z" />
    <glyph glyph-name="uni0388.EpsilonTonos" unicode="&#x388;" horiz-adv-x="657" 
d="M191 714l-109 -141h-49l83 141h75zM240 714h479l-13 -58h-410l-55 -258h383l-13 -58h-382l-60 -282h420l-13 -58h-488z" />
    <glyph glyph-name="uni0389.EtaTonos" unicode="&#x389;" horiz-adv-x="787" 
d="M191 714l-109 -141h-49l83 141h75zM240 714h68l-66 -310h413l66 310h68l-152 -714h-68l74 346h-413l-74 -346h-68z" />
    <glyph glyph-name="uni038A.IotaTonos" unicode="&#x38a;" horiz-adv-x="305" 
d="M191 714l-109 -141h-49l83 141h75zM239 714h68l-151 -714h-68z" />
    <glyph glyph-name="uni038C.OmicronTonos" unicode="&#x38c;" horiz-adv-x="824" 
d="M201 714l-109 -141h-49l83 141h75zM410 -14q-138 0 -215.5 82.5t-77.5 220.5q0 116 45 215t135 162t208 63q136 0 216 -81.5t80 -217.5q0 -88 -26 -167.5t-74.5 -141.5t-123.5 -98.5t-167 -36.5zM733 413q0 116 -58 187t-171 71q-78 0 -140 -33t-100.5 -88.5t-58.5 -124
t-20 -142.5q0 -110 63 -175t173 -65q93 0 166 56t109.5 139.5t36.5 174.5z" />
    <glyph glyph-name="uni038E.UpsilonTonos" unicode="&#x38e;" horiz-adv-x="717" 
d="M192 714l-109 -141h-49l83 141h75zM741 714h83l-358 -426l-63 -288h-69l65 295l-190 419h72l161 -362z" />
    <glyph glyph-name="uni038F.OmegaTonos" unicode="&#x38f;" horiz-adv-x="770" 
d="M201 714l-109 -141h-49l83 141h75zM684 58l-12 -58h-246l10 48q120 72 195.5 201.5t75.5 245.5q0 176 -205 176q-151 0 -242 -98.5t-91 -249.5q0 -82 30 -155t86 -120l-10 -48h-246l12 58h157l1 4q-96 94 -96 250q0 194 116 305.5t295 111.5q117 0 186.5 -61.5
t69.5 -171.5q0 -122 -64 -238t-170 -196l-1 -4h149z" />
    <glyph glyph-name="uni0390.iotaDiaeresisTonos" unicode="&#x390;" horiz-adv-x="246" 
d="M177 516l-80 -379q-11 -50 -11 -64q0 -16 8 -21t25 -5q7 0 25 2l-9 -50q-28 -5 -52 -5q-27 0 -44.5 14t-17.5 38q0 22 6 52l89 418h61zM49 595l19 102h64l-20 -102h-63zM288 714l-109 -141h-49l83 141h75zM273 595l19 102h64l-20 -102h-63z" />
    <glyph glyph-name="uni0391.Alpha" unicode="&#x391;" horiz-adv-x="630" 
d="M167 280h282l-61 376h-2zM362 714h74l130 -714h-71l-36 222h-326l-132 -222h-75z" />
    <glyph glyph-name="uni0392.Beta" unicode="&#x392;" horiz-adv-x="667" 
d="M161 401h225q76 2 127.5 38t51.5 105q0 58 -35.5 85t-93.5 27h-220zM160 714h277q88 0 142 -39t54 -124q0 -71 -42 -118.5t-113 -59.5v-2q56 -7 89 -48t33 -99q0 -61 -23.5 -105.5t-64.5 -69.5t-90.5 -37t-108.5 -12h-308zM86 58h242q83 0 143.5 40t60.5 118
q0 127 -169 127h-215z" />
    <glyph glyph-name="uni0393.Gamma" unicode="&#x393;" horiz-adv-x="537" 
d="M5 0l153 714h457l-12 -58h-389l-141 -656h-68z" />
    <glyph glyph-name="uni0394.Delta" unicode="&#x394;" horiz-adv-x="633" 
d="M-66 0l438 714h76l129 -714h-643zM44 58h453l-100 588z" />
    <glyph glyph-name="uni0395.Epsilon" unicode="&#x395;" 
d="M157 714h479l-13 -58h-410l-55 -258h383l-13 -58h-382l-60 -282h420l-13 -58h-488z" />
    <glyph glyph-name="uni0396.Zeta" unicode="&#x396;" 
d="M111 714h515l-12 -57l-571 -599h476l-13 -58h-555l13 60l568 596h-434z" />
    <glyph glyph-name="uni0397.Eta" unicode="&#x397;" horiz-adv-x="704" 
d="M157 714h68l-66 -310h413l66 310h68l-152 -714h-68l74 346h-413l-74 -346h-68z" />
    <glyph glyph-name="uni0398.Theta" unicode="&#x398;" horiz-adv-x="741" 
d="M327 -15q-138 0 -215.5 83t-77.5 221q0 116 45 215t135 162t208 63q136 0 216 -81.5t80 -217.5q0 -88 -26 -167.5t-74.5 -141.5t-123.5 -99t-167 -37zM650 413q0 116 -58 187t-171 71q-78 0 -140 -33t-100.5 -88.5t-58.5 -124t-20 -142.5q0 -110 63 -175t173 -65
q93 0 166 56t109.5 139.5t36.5 174.5zM206 329l12 58h331l-12 -58h-331z" />
    <glyph glyph-name="uni0399.Iota" unicode="&#x399;" horiz-adv-x="222" 
d="M156 714h68l-151 -714h-68z" />
    <glyph glyph-name="uni039A.Kappa" unicode="&#x39a;" horiz-adv-x="648" 
d="M157 714h68l-82 -381l2 -2l461 383h95l-366 -298l255 -416h-78l-227 374l-159 -127l-53 -247h-68z" />
    <glyph glyph-name="uni039B.Lambda" unicode="&#x39b;" horiz-adv-x="630" 
d="M-75 0l437 714h74l130 -714h-71l-107 656h-2l-385 -656h-76z" />
    <glyph glyph-name="uni039C.Mu" unicode="&#x39c;" horiz-adv-x="852" 
d="M157 714h99l111 -641l392 641h99l-153 -714h-67l147 646h-2l-395 -646h-68l-115 656h-2l-135 -656h-66z" />
    <glyph glyph-name="uni039D.Nu" unicode="&#x39d;" horiz-adv-x="704" 
d="M154 714h77l285 -638h2l132 638h66l-156 -714h-75l-285 638h-2l-133 -638h-65z" />
    <glyph glyph-name="uni039E.Xi" unicode="&#x39e;" horiz-adv-x="575" 
d="M483 0h-520l12 58h520zM617 656h-511l12 58h511zM524 340h-458l12 58h458z" />
    <glyph glyph-name="uni039F.Omicron" unicode="&#x39f;" horiz-adv-x="741" 
d="M327 -14q-138 0 -215.5 82.5t-77.5 220.5q0 116 45 215t135 162t208 63q136 0 216 -81.5t80 -217.5q0 -88 -26 -167.5t-74.5 -141.5t-123.5 -98.5t-167 -36.5zM650 413q0 116 -58 187t-171 71q-78 0 -140 -33t-100.5 -88.5t-58.5 -124t-20 -142.5q0 -110 63 -175t173 -65
q93 0 166 56t109.5 139.5t36.5 174.5z" />
    <glyph glyph-name="uni03A0.Pi" unicode="&#x3a0;" horiz-adv-x="704" 
d="M5 0l152 714h549l-152 -714h-68l140 656h-413l-140 -656h-68z" />
    <glyph glyph-name="uni03A1.Rho" unicode="&#x3a1;" horiz-adv-x="630" 
d="M152 364h241q77 0 126.5 44t49.5 120q0 128 -145 128h-209zM159 714h288q83 0 136.5 -47.5t53.5 -128.5q0 -109 -68 -170.5t-178 -61.5h-252l-66 -306h-68z" />
    <glyph glyph-name="uni03A3.Sigma" unicode="&#x3a3;" horiz-adv-x="542" 
d="M175 656l239 -279l-356 -319h409l-12 -58h-488l13 63l360 317l-236 269l14 65h483l-12 -58h-414z" />
    <glyph glyph-name="uni03A4.Tau" unicode="&#x3a4;" horiz-adv-x="556" 
d="M81 714h558l-12 -58h-245l-143 -656h-68l143 656h-245z" />
    <glyph glyph-name="uni03A5.Upsilon" unicode="&#x3a5;" 
d="M598 714h83l-358 -426l-63 -288h-69l65 295l-190 419h72l161 -362z" />
    <glyph glyph-name="uni03A6.Phi" unicode="&#x3a6;" horiz-adv-x="733" 
d="M264 0l16 76q-123 6 -187 71.5t-64 174.5q0 63 19.5 115.5t53.5 90t81.5 65t102 42.5t115.5 20l21 89h67l-21 -89q124 -6 188.5 -69.5t64.5 -171.5q0 -76 -30.5 -138.5t-83.5 -103.5t-119 -65.5t-141 -30.5l-16 -76h-67zM456 596l-97 -462q123 6 210 80t87 199
q0 173 -200 183zM291 134l97 462q-127 -6 -211 -76t-84 -198q0 -86 49.5 -134.5t148.5 -53.5z" />
    <glyph glyph-name="uni03A7.Chi" unicode="&#x3a7;" 
d="M260 372l-176 342h75l148 -300l259 300h81l-310 -353l186 -361h-72l-159 318l-280 -318h-79z" />
    <glyph glyph-name="uni03A8.Psi" unicode="&#x3a8;" horiz-adv-x="769" 
d="M286 0l33 156q-238 15 -238 201q0 33 7 65l62 292h66l-62 -291q-8 -40 -8 -65q0 -70 45 -105t140 -40l106 501h66l-106 -500q103 6 174.5 62t94.5 161l59 277h67l-59 -279q-25 -121 -112 -196.5t-236 -83.5l-33 -155h-66z" />
    <glyph glyph-name="Omegagreek" unicode="&#x3a9;" horiz-adv-x="756" 
d="M-9 0l12 54h186l20 89q-70 21 -107 80t-37 136q0 147 108.5 254.5t255.5 107.5q122 0 202 -73t80 -194q0 -123 -68.5 -209t-189.5 -106l-18 -85h197l-12 -54h-250l39 182q110 9 172.5 86.5t62.5 183.5q0 97 -59.5 154t-156.5 57q-124 0 -210 -91.5t-86 -216.5
q0 -69 37.5 -118t103.5 -55l-39 -182h-243z" />
    <glyph glyph-name="uni03AA.IotaDiaeresis" unicode="&#x3aa;" horiz-adv-x="222" 
d="M156 714h68l-151 -714h-68zM9 901h64l-20 -102h-63zM168 901h64l-20 -102h-63z" />
    <glyph glyph-name="uni03AB.UpsilonDiaeresis" unicode="&#x3ab;" 
d="M598 714h83l-358 -426l-63 -288h-69l65 295l-190 419h72l161 -362zM185 901h64l-20 -102h-63zM344 901h64l-20 -102h-63z" />
    <glyph glyph-name="uni03AC.alphaTonos" unicode="&#x3ac;" horiz-adv-x="589" 
d="M555 516l-81 -379q-11 -48 -11 -69t33 -21q7 0 25 2l-9 -50q-28 -5 -52 -5q-26 0 -41.5 14t-15.5 38t7 52h-2q-28 -49 -91 -81t-120 -32q-91 0 -137 56t-46 150q0 84 33.5 160.5t101.5 128t156 51.5q60 0 109 -30t57 -83h2l21 98h61zM302 478q-44 0 -82 -17.5t-63.5 -47
t-44 -67t-27 -77.5t-8.5 -79q0 -65 33 -108.5t99 -43.5q74 0 130 47t81.5 110t25.5 127q0 69 -35 112.5t-109 43.5zM433 714l-109 -141h-49l83 141h75z" />
    <glyph glyph-name="uni03AD.epsilonTonos" unicode="&#x3ad;" horiz-adv-x="511" 
d="M470 376h-60q2 14 2 15q0 87 -113 87q-72 0 -119 -34t-47 -88q0 -32 21.5 -45t74.5 -13h80l-12 -58h-78q-72 0 -109 -31.5t-37 -80.5q0 -91 122 -91q68 0 119.5 36t70.5 92h64q-64 -180 -263 -180q-81 0 -132 32t-51 98q0 59 39.5 100.5t88.5 52.5l1 2q-25 9 -42 32
t-17 55q0 83 71 128.5t164 45.5q164 0 164 -136q0 -5 -2 -19zM418 714l-109 -141h-49l83 141h75z" />
    <glyph glyph-name="uni03AE.etaTonos" unicode="&#x3ae;" horiz-adv-x="537" 
d="M-11 0l111 516h58l-18 -94h2q31 48 80 78.5t104 30.5q72 0 114 -34t42 -105q0 -18 -8 -61l-112 -522h-63l113 524q7 28 7 52q0 48 -30.5 70.5t-77.5 22.5q-68 0 -125 -58.5t-77 -154.5l-57 -265h-63zM425 714l-109 -141h-49l83 141h75z" />
    <glyph glyph-name="uni03AF.iotaTonos" unicode="&#x3af;" horiz-adv-x="195" 
d="M161 516l-80 -379q-11 -50 -11 -64q0 -16 8 -21t25 -5q7 0 25 2l-9 -50q-28 -5 -52 -5q-27 0 -44.5 14t-17.5 38q0 22 6 52l89 418h61zM246 714l-109 -141h-49l83 141h75z" />
    <glyph glyph-name="uni03B0.upsilonDiaeresisTonos" unicode="&#x3b0;" horiz-adv-x="527" 
d="M195 38q71 0 122.5 50t74.5 126.5t23 169.5q0 83 -21 132h67q16 -48 16 -126q0 -181 -78.5 -293t-217.5 -112q-161 0 -161 136q0 27 8 67l70 328h62l-71 -336q-6 -27 -6 -49q0 -93 112 -93zM403 714l-109 -141h-49l83 141h75z" />
    <glyph glyph-name="uni03B1.alpha" unicode="&#x3b1;" horiz-adv-x="589" 
d="M555 516l-81 -379q-11 -48 -11 -69t33 -21q7 0 25 2l-9 -50q-28 -5 -52 -5q-26 0 -41.5 14t-15.5 38t7 52h-2q-28 -49 -91 -81t-120 -32q-91 0 -137 56t-46 150q0 84 33.5 160.5t101.5 128t156 51.5q60 0 109 -30t57 -83h2l21 98h61zM302 478q-44 0 -82 -17.5t-63.5 -47
t-44 -67t-27 -77.5t-8.5 -79q0 -65 33 -108.5t99 -43.5q74 0 130 47t81.5 110t25.5 127q0 69 -35 112.5t-109 43.5z" />
    <glyph glyph-name="uni03B2.beta" unicode="&#x3b2;" horiz-adv-x="539" 
d="M-55 -191l155 729q40 191 245 191q77 0 121.5 -38.5t44.5 -112.5q0 -61 -38.5 -111.5t-106.5 -63.5v-2q111 -32 111 -148q0 -109 -71 -185t-190 -76q-106 0 -156 67l-53 -250h-62zM159 525l-84 -395q37 -85 153 -85q72 0 129 52.5t57 154.5q0 69 -48 92.5t-146 23.5
l11 53q98 0 159.5 37.5t61.5 119.5q0 98 -111 98q-151 0 -182 -151z" />
    <glyph glyph-name="uni03B3.gamma" unicode="&#x3b3;" horiz-adv-x="458" 
d="M396 516h69q-107 -280 -321 -528l-38 -179h-62l29 139q18 89 18 210q0 163 -71 358h66q28 -62 46.5 -164.5t18.5 -194.5q0 -45 -4 -76h5q140 170 244 435z" />
    <glyph glyph-name="uni03B4.delta" unicode="&#x3b4;" horiz-adv-x="545" 
d="M505 704l-12 -57q-33 31 -131 31q-118 0 -118 -79q0 -34 66 -78q11 -8 37.5 -24.5t41.5 -27t37 -31.5t34.5 -42t21.5 -53.5t9 -70.5q0 -52 -20 -102.5t-57 -92t-96.5 -67t-132.5 -25.5q-90 0 -138.5 52t-48.5 136q0 113 74.5 198t185.5 119l1 4q-76 40 -76 112
q0 125 199 125q92 0 123 -27zM195 38q105 0 169.5 71.5t64.5 162.5q0 72 -31.5 112.5t-96.5 74.5q-106 -28 -173.5 -101.5t-67.5 -182.5q0 -62 34.5 -99.5t100.5 -37.5z" />
    <glyph glyph-name="uni03B5.epsilon" unicode="&#x3b5;" horiz-adv-x="511" 
d="M470 376h-60q2 14 2 15q0 87 -113 87q-72 0 -119 -34t-47 -88q0 -32 21.5 -45t74.5 -13h80l-12 -58h-78q-72 0 -109 -31.5t-37 -80.5q0 -91 122 -91q68 0 119.5 36t70.5 92h64q-64 -180 -263 -180q-81 0 -132 32t-51 98q0 59 39.5 100.5t88.5 52.5l1 2q-25 9 -42 32
t-17 55q0 83 71 128.5t164 45.5q164 0 164 -136q0 -5 -2 -19z" />
    <glyph glyph-name="uni03B6.zeta" unicode="&#x3b6;" horiz-adv-x="429" 
d="M224 53h29q80 0 80 -72q0 -63 -38 -135h-61q40 80 40 127q0 15 -9.5 21t-31.5 6h-41q-87 0 -132.5 49.5t-45.5 138.5q0 299 372 472h-234l11 54h345l-10 -48q-196 -73 -309 -202t-113 -271q0 -140 148 -140z" />
    <glyph glyph-name="uni03B7.eta" unicode="&#x3b7;" horiz-adv-x="537" 
d="M-11 0l111 516h58l-18 -94h2q31 48 80 78.5t104 30.5q72 0 114 -34t42 -105q0 -18 -8 -61l-112 -522h-63l113 524q7 28 7 52q0 48 -30.5 70.5t-77.5 22.5q-68 0 -125 -58.5t-77 -154.5l-57 -265h-63z" />
    <glyph glyph-name="uni03B8.theta" unicode="&#x3b8;" horiz-adv-x="562" 
d="M359 729q178 0 178 -224q0 -65 -19 -160q-76 -360 -317 -360q-179 0 -179 215q0 63 19 156q37 177 118 275t200 98zM348 676q-85 0 -145.5 -80t-94.5 -216h355q13 76 13 125q0 171 -128 171zM213 38q84 0 144 75.5t93 208.5h-354q-13 -68 -13 -122q0 -162 130 -162z" />
    <glyph glyph-name="uni03B9.iota" unicode="&#x3b9;" horiz-adv-x="195" 
d="M161 516l-80 -379q-11 -50 -11 -64q0 -16 8 -21t25 -5q7 0 25 2l-9 -50q-28 -5 -52 -5q-27 0 -44.5 14t-17.5 38q0 22 6 52l89 418h61z" />
    <glyph glyph-name="uni03BA.kappa" unicode="&#x3ba;" horiz-adv-x="463" 
d="M99 516h63l-54 -250l2 -2l302 252h84l-244 -199l156 -317h-69l-137 279l-110 -92l-40 -187h-62z" />
    <glyph glyph-name="uni03BB.lambda" unicode="&#x3bb;" horiz-adv-x="470" 
d="M359 0q-51 0 -56 41l-51 371l-244 -412h-67l296 486l-16 102q-4 23 -7 34.5t-10 24.5t-19.5 18.5t-32.5 5.5q-25 0 -43 -7l11 53q18 7 48 7q57 0 79 -23.5t32 -90.5l84 -536q2 -13 8 -17t20 -4q12 0 21 4l-12 -53q-20 -4 -41 -4z" />
    <glyph glyph-name="uni03BC.mu" unicode="&#x3bc;" horiz-adv-x="537" 
d="M402 0h-58l18 94h-2q-31 -48 -79.5 -78t-104.5 -30q-82 0 -121 40l-45 -216h-60l149 706h63l-72 -333q-7 -28 -7 -52q0 -48 30.5 -70.5t77.5 -22.5q70 0 125 58t77 155l57 265h63z" />
    <glyph glyph-name="uni03BD.nu" unicode="&#x3bd;" horiz-adv-x="473" 
d="M120 0l-81 516h66l61 -445h2q171 221 245 445h66q-93 -260 -295 -516h-64z" />
    <glyph glyph-name="uni03BE.xi" unicode="&#x3be;" horiz-adv-x="436" 
d="M244 0h-62q-84 0 -126 45t-42 114q0 87 45.5 142t124.5 78v2q-33 12 -53 45.5t-20 75.5q0 96 72.5 162.5t174.5 66.5q77 0 124 -26l-12 -57q-46 30 -122 30q-79 0 -129 -50.5t-50 -125.5q0 -48 30 -70.5t105 -22.5h91l-12 -58h-95q-89 0 -150 -50t-61 -139
q0 -51 35.5 -80t100.5 -29h56q39 0 58 -15.5t19 -50.5q0 -53 -38 -141h-61q39 84 39 124q0 18 -8 24t-34 6z" />
    <glyph glyph-name="uni03BF.omicron" unicode="&#x3bf;" horiz-adv-x="556" 
d="M232 38q66 0 115.5 45.5t72.5 107.5t23 125q0 74 -39 118t-113 44q-66 0 -116.5 -43.5t-74 -104.5t-23.5 -124q0 -78 39.5 -123t115.5 -45zM302 531q92 0 148 -54t56 -148q0 -90 -30.5 -166t-97.5 -126.5t-158 -50.5q-99 0 -152.5 57t-53.5 157q0 86 33 160.5t100 122.5
t155 48z" />
    <glyph glyph-name="pi" unicode="&#x3c0;" horiz-adv-x="598" 
d="M423 -6q-36 0 -49.5 14t-13.5 41q0 21 9 62l75 352h-262l-98 -463h-63l98 463h-70l11 53h534l-11 -53h-76l-76 -359q-4 -15 -4 -28q0 -26 30 -26q23 0 44 10l-10 -49q-37 -17 -68 -17z" />
    <glyph glyph-name="uni03C1.rho" unicode="&#x3c1;" 
d="M-46 -191l90 420q15 66 34.5 114.5t53.5 94t88 69.5t126 24q87 0 135 -57.5t48 -153.5q0 -81 -33.5 -156.5t-99.5 -127t-149 -51.5q-65 0 -110.5 29t-54.5 89h-2l-63 -294h-63zM327 478q-68 0 -121 -47t-78.5 -112t-25.5 -132q0 -70 38 -109.5t106 -39.5q52 0 95 27
t69.5 69.5t41 92t14.5 97.5q0 69 -35 111.5t-104 42.5z" />
    <glyph glyph-name="uni03C2.sigma1" unicode="&#x3c2;" horiz-adv-x="519" 
d="M487 355h-63q0 58 -33 90.5t-91 32.5q-72 0 -124 -43t-75.5 -105t-23.5 -132q0 -145 147 -145h29q80 0 80 -72q0 -63 -38 -135h-61q40 80 40 127q0 15 -9.5 21t-31.5 6h-41q-88 0 -133 53t-45 145q0 83 32.5 158t98 125t149.5 50q89 0 141 -44.5t52 -131.5z" />
    <glyph glyph-name="uni03C3.sigma" unicode="&#x3c3;" horiz-adv-x="575" 
d="M316 516h273l-11 -53h-128q56 -56 56 -143q0 -83 -33 -158t-101 -126t-157 -51q-94 0 -147.5 58.5t-53.5 155.5q0 128 87.5 222.5t214.5 94.5zM305 463q-98 0 -163 -80.5t-65 -180.5q0 -75 39.5 -119.5t110.5 -44.5q66 0 117 43.5t75.5 105t24.5 125.5q0 69 -35 110
t-104 41z" />
    <glyph glyph-name="uni03C4.tau" unicode="&#x3c4;" horiz-adv-x="432" 
d="M450 516l-11 -53h-182l-69 -326q-11 -50 -11 -64q0 -16 8 -21t25 -5q7 0 25 2l-9 -50q-28 -5 -52 -5q-27 0 -44.5 14t-17.5 38q0 22 6 52l77 365h-175l11 53h419z" />
    <glyph glyph-name="uni03C5.upsilon" unicode="&#x3c5;" horiz-adv-x="527" 
d="M195 38q71 0 122.5 50t74.5 126.5t23 169.5q0 83 -21 132h67q16 -48 16 -126q0 -181 -78.5 -293t-217.5 -112q-161 0 -161 136q0 27 8 67l70 328h62l-71 -336q-6 -27 -6 -49q0 -93 112 -93z" />
    <glyph glyph-name="uni03C6.phi" unicode="&#x3c6;" horiz-adv-x="659" 
d="M339 531l29 135h62l-29 -135q91 0 149.5 -54.5t58.5 -147.5q0 -151 -84.5 -247.5t-239.5 -96.5l-37 -176h-62l37 176q-100 0 -154.5 58t-54.5 157q0 87 35.5 161t111 122t178.5 48zM390 478l-94 -441q65 0 115 25.5t78.5 67.5t42.5 89.5t14 96.5q0 73 -41 117t-115 45z
M77 206q0 -78 39.5 -123t117.5 -45l94 440q-61 0 -110.5 -25t-79 -65.5t-45.5 -87.5t-16 -94z" />
    <glyph glyph-name="uni03C7.chi" unicode="&#x3c7;" horiz-adv-x="454" 
d="M476 516l-260 -332l124 -375h-66l-105 327l-241 -327h-71l285 381l-116 326h66l96 -279l216 279h72z" />
    <glyph glyph-name="uni03C8.psi" unicode="&#x3c8;" horiz-adv-x="637" 
d="M419 666l-134 -628q72 0 127.5 49.5t84 127.5t28.5 169q0 83 -21 132h67q16 -48 16 -126q0 -178 -86.5 -290.5t-226.5 -114.5l-37 -176h-62l37 176q-83 0 -137.5 33.5t-54.5 102.5q0 27 8 67l70 328h62l-71 -336q-6 -27 -6 -49q0 -44 39.5 -68.5t100.5 -24.5l134 628h62z
" />
    <glyph glyph-name="uni03C9.omega" unicode="&#x3c9;" horiz-adv-x="730" 
d="M137 516h69q-55 -66 -91.5 -163t-36.5 -183q0 -63 22 -97.5t63 -34.5q47 0 84 37t52 105l47 224h62l-47 -224q-5 -25 -5 -44q0 -43 20 -70.5t64 -27.5q68 0 123 101t55 242q0 88 -20 135h67q15 -45 15 -123q0 -176 -73.5 -292t-180.5 -116q-102 0 -120 85
q-55 -85 -153 -85q-68 0 -103.5 45.5t-35.5 127.5q0 97 41.5 202t81.5 156z" />
    <glyph glyph-name="uni03CA.iotaDiaeresis" unicode="&#x3ca;" horiz-adv-x="228" 
d="M178 516l-80 -379q-11 -50 -11 -64q0 -16 8 -21t25 -5q7 0 25 2l-9 -50q-28 -5 -52 -5q-27 0 -44.5 14t-17.5 38q0 22 6 52l89 418h61zM73 703h64l-20 -102h-63zM232 703h64l-20 -102h-63z" />
    <glyph glyph-name="uni03CB.upsilonDiaeresis" unicode="&#x3cb;" horiz-adv-x="527" 
d="M195 38q71 0 122.5 50t74.5 126.5t23 169.5q0 83 -21 132h67q16 -48 16 -126q0 -181 -78.5 -293t-217.5 -112q-161 0 -161 136q0 27 8 67l70 328h62l-71 -336q-6 -27 -6 -49q0 -93 112 -93zM201 703h64l-20 -102h-63zM360 703h64l-20 -102h-63z" />
    <glyph glyph-name="uni03CC.omicronTonos" unicode="&#x3cc;" horiz-adv-x="556" 
d="M232 38q66 0 115.5 45.5t72.5 107.5t23 125q0 74 -39 118t-113 44q-66 0 -116.5 -43.5t-74 -104.5t-23.5 -124q0 -78 39.5 -123t115.5 -45zM302 531q92 0 148 -54t56 -148q0 -90 -30.5 -166t-97.5 -126.5t-158 -50.5q-99 0 -152.5 57t-53.5 157q0 86 33 160.5t100 122.5
t155 48zM423 714l-109 -141h-49l83 141h75z" />
    <glyph glyph-name="uni03CD.upsilonTonos" unicode="&#x3cd;" horiz-adv-x="527" 
d="M195 38q71 0 122.5 50t74.5 126.5t23 169.5q0 83 -21 132h67q16 -48 16 -126q0 -181 -78.5 -293t-217.5 -112q-161 0 -161 136q0 27 8 67l70 328h62l-71 -336q-6 -27 -6 -49q0 -93 112 -93zM401 714l-109 -141h-49l83 141h75z" />
    <glyph glyph-name="uni03CE.omegaTonos" unicode="&#x3ce;" horiz-adv-x="730" 
d="M137 516h69q-55 -66 -91.5 -163t-36.5 -183q0 -63 22 -97.5t63 -34.5q47 0 84 37t52 105l47 224h62l-47 -224q-5 -25 -5 -44q0 -43 20 -70.5t64 -27.5q68 0 123 101t55 242q0 88 -20 135h67q15 -45 15 -123q0 -176 -73.5 -292t-180.5 -116q-102 0 -120 85
q-55 -85 -153 -85q-68 0 -103.5 45.5t-35.5 127.5q0 97 41.5 202t81.5 156zM513 714l-109 -141h-49l83 141h75z" />
    <glyph glyph-name="uni0400" unicode="&#x400;" 
d="M5 0l152 714h479l-13 -58h-410l-55 -258h383l-13 -58h-382l-60 -282h420l-13 -58h-488zM373 907l82 -144h-50l-106 144h74z" />
    <glyph glyph-name="afii10023" unicode="&#x401;" 
d="M5 0l152 714h479l-13 -58h-410l-55 -258h383l-13 -58h-382l-60 -282h420l-13 -58h-488zM305 881h64l-20 -102h-63zM464 881h64l-20 -102h-63z" />
    <glyph glyph-name="afii10051" unicode="&#x402;" horiz-adv-x="766" 
d="M392 -10q-30 0 -57 4l13 59q30 -2 42 -2q108 0 174 57.5t66 157.5q0 62 -41.5 97.5t-111.5 35.5q-87 0 -143 -53.5t-78 -156.5l-40 -189h-68l139 656h-229l12 58h566l-12 -58h-269l-63 -298h3q67 98 213 98q88 0 140.5 -50.5t52.5 -132.5q0 -133 -88.5 -208t-220.5 -75z
" />
    <glyph glyph-name="afii10052" unicode="&#x403;" horiz-adv-x="514" 
d="M10 0l151 714h436l-12 -58h-368l-139 -656h-68zM444 907h81l-144 -144h-53z" />
    <glyph glyph-name="afii10053" unicode="&#x404;" horiz-adv-x="704" 
d="M320 -14q-133 0 -209.5 79.5t-76.5 219.5q0 85 26.5 164.5t74.5 142t122.5 100t163.5 37.5q116 0 189.5 -64t75.5 -164h-67q-8 82 -59 126t-140 44q-118 0 -199 -76.5t-106 -197.5h389l-13 -57h-386q-3 -26 -3 -51q0 -116 58.5 -180.5t160.5 -64.5q96 0 164 52.5
t94 148.5h69q-32 -125 -117 -192t-211 -67z" />
    <glyph glyph-name="afii10054" unicode="&#x405;" horiz-adv-x="630" 
d="M280 -14q-127 0 -201 62.5t-68 186.5h68q-6 -100 49 -146t157 -46q79 0 141 39.5t62 113.5q0 18 -5 34t-11 27t-20 22t-22.5 17t-28.5 13.5t-28.5 10.5t-31.5 9.5t-30 8.5l-70 21q-141 40 -141 166q0 101 74 152.5t179 51.5q119 0 189.5 -53.5t64.5 -169.5h-68
q0 90 -46.5 127.5t-142.5 37.5q-74 0 -128 -36.5t-54 -106.5q0 -51 31 -75.5t89 -42.5l76 -23q46 -13 73.5 -24.5t58.5 -32t45.5 -51.5t14.5 -74q0 -25 -6 -51t-24.5 -57t-47.5 -55t-80.5 -40t-117.5 -16z" />
    <glyph glyph-name="afii10055" unicode="&#x406;" horiz-adv-x="222" 
d="M5 0l151 714h68l-151 -714h-68z" />
    <glyph glyph-name="afii10056" unicode="&#x407;" horiz-adv-x="222" 
d="M5 0l151 714h68l-151 -714h-68zM105 881h64l-20 -102h-63zM264 881h64l-20 -102h-63z" />
    <glyph glyph-name="afii10057" unicode="&#x408;" horiz-adv-x="500" 
d="M167 -14q-86 0 -136 39t-50 123q0 42 9 81h67q-9 -52 -9 -88q0 -51 34.5 -74.5t89.5 -23.5q71 0 103.5 42.5t49.5 119.5l109 509h68l-114 -534q-21 -98 -72 -146t-149 -48z" />
    <glyph glyph-name="afii10058" unicode="&#x409;" horiz-adv-x="1120" 
d="M-16 -6q-42 0 -55 8l11 58q15 -7 48 -7q14 0 23 1.5t28.5 12t35 30t39 61t44.5 99t46.5 149t50.5 207.5l21 101h439l-64 -304h182q41 0 62.5 -1.5t50 -7t49 -19t38.5 -35.5q40 -50 40 -120q0 -101 -68 -166q-61 -61 -199 -61h-310l139 656h-305l-8 -39
q-27 -129 -56 -230.5t-53 -166t-52.5 -110t-48 -67.5t-47.5 -34t-42 -13.5t-39 -1.5zM576 58h247q31 0 61 8t58.5 25.5t46 51.5t17.5 80q0 67 -37 98t-122 31h-209z" />
    <glyph glyph-name="afii10059" unicode="&#x40a;" horiz-adv-x="1111" 
d="M5 0l152 714h68l-65 -304h413l65 304h68l-64 -304h182q41 0 62.5 -1.5t50 -7t49 -19t38.5 -35.5q40 -50 40 -120q0 -101 -68 -166q-61 -61 -199 -61h-311l75 352h-413l-75 -352h-68zM567 58h247q31 0 61 8t58.5 25.5t46 51.5t17.5 80q0 67 -37 98t-122 31h-209z" />
    <glyph glyph-name="afii10060" unicode="&#x40b;" horiz-adv-x="766" 
d="M148 0l139 656h-229l12 58h566l-12 -58h-269l-52 -243q34 15 97.5 29t103.5 14q186 0 186 -139q0 -31 -9 -74l-51 -243h-68l52 247q6 30 6 50q0 100 -129 100q-41 0 -104.5 -14.5t-96.5 -31.5l-74 -351h-68z" />
    <glyph glyph-name="afii10061" unicode="&#x40c;" horiz-adv-x="648" 
d="M5 0l152 714h68l-82 -381l2 -2l461 383h95l-366 -298l255 -416h-78l-227 374l-159 -127l-53 -247h-68zM451 907h81l-144 -144h-53z" />
    <glyph glyph-name="uni040D" unicode="&#x40d;" horiz-adv-x="710" 
d="M5 0l152 714h68l-137 -641l531 641h93l-151 -714h-68l136 641l-531 -641h-93zM401 907l82 -144h-50l-106 144h74z" />
    <glyph glyph-name="afii10062" unicode="&#x40e;" horiz-adv-x="588" 
d="M60 -8q-46 0 -72 10l13 60q26 -12 70 -12q37 0 67 23t67 76l13 19l-149 546h70l133 -477l325 477h75l-404 -582q-59 -86 -104.5 -113t-103.5 -27zM373 774q-58 0 -91 29.5t-33 83.5q0 10 1 17h39q0 -2 -0.5 -5t-0.5 -5q0 -34 22 -53t64 -19q81 0 114 82h39
q-39 -130 -154 -130z" />
    <glyph glyph-name="afii10145" unicode="&#x40f;" horiz-adv-x="694" 
d="M200 -190l41 190h-236l151 714h68l-139 -656h404l139 656h68l-151 -714h-236l-41 -190h-68z" />
    <glyph glyph-name="afii10017" unicode="&#x410;" horiz-adv-x="630" 
d="M-74 0l436 714h74l130 -714h-71l-36 222h-326l-132 -222h-75zM167 280h282l-61 376h-2z" />
    <glyph glyph-name="afii10018" unicode="&#x411;" horiz-adv-x="667" 
d="M5 0l151 712h481l-12 -58h-413l-51 -244h202q41 0 62.5 -1.5t50 -7t49 -19t38.5 -35.5q40 -50 40 -120q0 -101 -68 -166q-61 -61 -199 -61h-331zM86 58h267q31 0 61 8t58.5 25.5t46 51.5t17.5 80q0 67 -37 98t-122 31h-229z" />
    <glyph glyph-name="afii10019" unicode="&#x412;" horiz-adv-x="667" 
d="M5 0l155 714h277q88 0 142 -39t54 -124q0 -71 -42 -118.5t-113 -59.5v-2q56 -7 89 -48t33 -99q0 -61 -23.5 -105.5t-64.5 -69.5t-90.5 -37t-108.5 -12h-308zM86 58h242q83 0 143.5 40t60.5 118q0 127 -169 127h-215zM161 401h225q76 2 127.5 38t51.5 105q0 58 -35.5 85
t-93.5 27h-220z" />
    <glyph glyph-name="afii10020" unicode="&#x413;" horiz-adv-x="514" 
d="M10 0l151 714h436l-12 -58h-368l-139 -656h-68z" />
    <glyph glyph-name="afii10021" unicode="&#x414;" horiz-adv-x="716" 
d="M-117 -190l52 248h69q95 125 145.5 263t85.5 299l20 94h442l-139 -656h85l-53 -248h-68l41 190h-572l-41 -190h-67zM82 58h408l127 598h-306l-5 -24q-19 -88 -31 -136t-39 -134.5t-65.5 -161.5t-88.5 -142z" />
    <glyph glyph-name="afii10022" unicode="&#x415;" 
d="M5 0l152 714h479l-13 -58h-410l-55 -258h383l-13 -58h-382l-60 -282h420l-13 -58h-488z" />
    <glyph glyph-name="afii10024" unicode="&#x416;" horiz-adv-x="990" 
d="M-73 0l411 408l-218 306h86l262 -379l79 379h68l-78 -372l408 372h97l-350 -309l234 -405h-81l-206 358l-121 -106l-54 -252h-68l54 252l-76 105l-353 -357h-94z" />
    <glyph glyph-name="afii10025" unicode="&#x417;" horiz-adv-x="627" 
d="M270 -13q-133 0 -200 59t-67 169q0 10 1 21h65v-16q0 -177 203 -177q84 0 151 51t67 133q0 53 -40 84t-104 31h-114l12 55h110q69 0 119.5 44.5t50.5 111.5q0 58 -44 89.5t-118 31.5t-130.5 -46t-71.5 -104h-67q21 99 98 152t175 53q109 0 168 -44.5t59 -128.5
q0 -63 -39 -110.5t-100 -71.5v-2q104 -30 104 -140q0 -114 -84.5 -179.5t-203.5 -65.5z" />
    <glyph glyph-name="afii10026" unicode="&#x418;" horiz-adv-x="710" 
d="M5 0l152 714h68l-137 -641l531 641h93l-151 -714h-68l136 641l-531 -641h-93z" />
    <glyph glyph-name="afii10027" unicode="&#x419;" horiz-adv-x="710" 
d="M5 0l152 714h68l-137 -641l531 641h93l-151 -714h-68l136 641l-531 -641h-93zM438 774q-58 0 -91 29.5t-33 83.5q0 10 1 17h39q0 -2 -0.5 -5t-0.5 -5q0 -34 22 -53t64 -19q81 0 114 82h39q-39 -130 -154 -130z" />
    <glyph glyph-name="afii10028" unicode="&#x41a;" horiz-adv-x="648" 
d="M5 0l152 714h68l-82 -381l2 -2l461 383h95l-366 -298l255 -416h-78l-227 374l-159 -127l-53 -247h-68z" />
    <glyph glyph-name="afii10029" unicode="&#x41b;" horiz-adv-x="714" 
d="M-16 -6q-42 0 -55 8l11 58q15 -7 48 -7q14 0 23 1.5t28.5 12t35 30t39 61t44.5 99t46.5 149t50.5 207.5l21 101h439l-151 -714h-68l139 656h-305l-8 -39q-27 -129 -56 -230.5t-53 -166t-52.5 -110t-48 -67.5t-47.5 -34t-42 -13.5t-39 -1.5z" />
    <glyph glyph-name="afii10030" unicode="&#x41c;" horiz-adv-x="852" 
d="M2 0l155 714h99l111 -641l392 641h99l-153 -714h-67l147 646h-2l-395 -646h-68l-115 656h-2l-135 -656h-66z" />
    <glyph glyph-name="afii10031" unicode="&#x41d;" horiz-adv-x="704" 
d="M5 0l152 714h68l-66 -310h413l66 310h68l-152 -714h-68l74 346h-413l-74 -346h-68z" />
    <glyph glyph-name="afii10032" unicode="&#x41e;" horiz-adv-x="741" 
d="M327 -14q-138 0 -215.5 82.5t-77.5 220.5q0 116 45 215t135 162t208 63q136 0 216 -81.5t80 -217.5q0 -88 -26 -167.5t-74.5 -141.5t-123.5 -98.5t-167 -36.5zM338 43q93 0 166 56t109.5 139.5t36.5 174.5q0 116 -58 187t-171 71q-78 0 -140 -33t-100.5 -88.5t-58.5 -124
t-20 -142.5q0 -110 63 -175t173 -65z" />
    <glyph glyph-name="afii10033" unicode="&#x41f;" horiz-adv-x="694" 
d="M5 0l151 714h540l-151 -714h-68l139 656h-404l-139 -656h-68z" />
    <glyph glyph-name="afii10034" unicode="&#x420;" horiz-adv-x="630" 
d="M5 0l154 714h288q83 0 136.5 -47.5t53.5 -128.5q0 -109 -68 -170.5t-178 -61.5h-252l-66 -306h-68zM152 364h241q77 0 126.5 44t49.5 120q0 128 -145 128h-209z" />
    <glyph glyph-name="afii10035" unicode="&#x421;" horiz-adv-x="704" 
d="M327 -14q-138 0 -215.5 82.5t-77.5 220.5q0 116 45 215t135 162t208 63q117 0 190.5 -62.5t75.5 -178.5h-68q-2 89 -54.5 136t-144.5 47q-78 0 -140 -33t-100.5 -88.5t-58.5 -124t-20 -142.5q0 -110 63 -175t173 -65q85 0 150.5 54t91.5 147h68q-25 -117 -107 -187.5
t-214 -70.5z" />
    <glyph glyph-name="afii10036" unicode="&#x422;" horiz-adv-x="556" 
d="M171 0l143 656h-245l12 58h558l-12 -58h-245l-143 -656h-68z" />
    <glyph glyph-name="afii10037" unicode="&#x423;" horiz-adv-x="588" 
d="M60 -8q-46 0 -72 10l13 60q26 -12 70 -12q37 0 67 23t67 76l13 19l-149 546h70l133 -477l325 477h75l-404 -582q-59 -86 -104.5 -113t-103.5 -27z" />
    <glyph glyph-name="afii10038" unicode="&#x424;" horiz-adv-x="787" 
d="M283 -24l19 86q-128 4 -201 75t-73 183q0 145 112 241t271 96h17l17 78h68l-17 -78q128 -4 201 -74t73 -183q0 -147 -110 -242.5t-273 -95.5h-17l-19 -86h-68zM314 120l102 480q-144 -2 -232.5 -79t-88.5 -201q0 -88 54.5 -140t164.5 -60zM484 599l-102 -480
q138 2 229.5 80t91.5 201q0 88 -55 139.5t-164 59.5z" />
    <glyph glyph-name="afii10039" unicode="&#x425;" 
d="M-67 0l327 372l-176 342h75l148 -300l259 300h81l-310 -353l186 -361h-72l-159 318l-280 -318h-79z" />
    <glyph glyph-name="afii10040" unicode="&#x426;" horiz-adv-x="715" 
d="M521 -190l41 190h-557l151 714h68l-139 -656h404l139 656h68l-139 -656h85l-53 -248h-68z" />
    <glyph glyph-name="afii10041" unicode="&#x427;" horiz-adv-x="630" 
d="M413 0l69 325q-35 -10 -103 -20t-112 -10q-192 0 -192 150q0 32 9 73l41 196h68l-44 -210q-6 -30 -6 -50q0 -100 129 -100q84 0 222 29l70 331h68l-151 -714h-68z" />
    <glyph glyph-name="afii10042" unicode="&#x428;" horiz-adv-x="1024" 
d="M5 0l151 714h68l-139 -656h333l139 656h68l-139 -656h333l139 656h68l-151 -714h-870z" />
    <glyph glyph-name="afii10043" unicode="&#x429;" horiz-adv-x="1045" 
d="M851 -190l41 190h-887l151 714h68l-139 -656h333l139 656h68l-139 -656h333l139 656h68l-139 -656h85l-53 -248h-68z" />
    <glyph glyph-name="afii10044" unicode="&#x42a;" horiz-adv-x="770" 
d="M145 0l140 656h-216l12 58h284l-64 -304h182q41 0 62.5 -1.5t50 -7t49 -19t38.5 -35.5q40 -50 40 -120q0 -101 -68 -166q-61 -61 -199 -61h-311zM226 58h247q31 0 61 8t58.5 25.5t46 51.5t17.5 80q0 67 -37 98t-122 31h-209z" />
    <glyph glyph-name="afii10045" unicode="&#x42b;" horiz-adv-x="841" 
d="M5 0l152 714h68l-64 -304h167q41 0 62.5 -1.5t50 -7t49 -19t38.5 -35.5q40 -50 40 -120q0 -101 -68 -166q-61 -61 -199 -61h-296zM86 58h232q31 0 61 8t58.5 25.5t46 51.5t17.5 80q0 67 -37 98t-122 31h-194zM624 0l151 714h68l-151 -714h-68z" />
    <glyph glyph-name="afii10046" unicode="&#x42c;" horiz-adv-x="630" 
d="M5 0l152 714h68l-64 -304h182q41 0 62.5 -1.5t50 -7t49 -19t38.5 -35.5q40 -50 40 -120q0 -101 -68 -166q-61 -61 -199 -61h-311zM86 58h247q31 0 61 8t58.5 25.5t46 51.5t17.5 80q0 67 -37 98t-122 31h-209z" />
    <glyph glyph-name="afii10047" unicode="&#x42d;" horiz-adv-x="699" 
d="M289 -14q-117 0 -191 64.5t-74 167.5v7h66q5 -88 56 -134t144 -46q123 0 204 85.5t107 212.5h-374l13 57h368q1 8 1 24q0 116 -59 182t-161 66q-184 0 -248 -169h-71q36 110 119 168t201 58q132 0 209 -80.5t77 -220.5q0 -85 -27 -164t-75.5 -141t-122.5 -99.5
t-162 -37.5z" />
    <glyph glyph-name="afii10048" unicode="&#x42e;" horiz-adv-x="986" 
d="M582 -14q-134 0 -211 80t-77 223q0 27 3 54h-151l-73 -343h-68l151 714h68l-66 -314h147q29 143 128 236t243 93q131 0 209 -83t78 -217q0 -87 -25.5 -166t-72 -141t-120 -99t-163.5 -37zM587 43q97 0 169 59t105 145t33 181q0 110 -58.5 176.5t-164.5 66.5
q-98 0 -170.5 -57.5t-106 -142.5t-33.5 -182q0 -114 62.5 -180t163.5 -66z" />
    <glyph glyph-name="afii10049" unicode="&#x42f;" horiz-adv-x="630" 
d="M-64 0l308 306q-78 9 -124.5 55t-46.5 128q0 63 29 115t80 79q63 31 185 31h267l-151 -714h-68l66 304h-151l-306 -304h-88zM326 362h166l62 294h-188q-37 0 -57.5 -1t-51 -8.5t-52.5 -21.5q-30 -20 -47.5 -55.5t-17.5 -76.5q0 -42 18.5 -76t54.5 -44q39 -11 113 -11z
" />
    <glyph glyph-name="afii10065" unicode="&#x430;" horiz-adv-x="519" 
d="M156 -14q-75 0 -119.5 35t-44.5 107q0 75 48 110.5t130 49.5q33 5 88 7t76 8q33 9 47.5 30.5t14.5 70.5q0 74 -109 74q-144 0 -162 -116h-63q11 84 71 126.5t147 42.5q41 0 78.5 -8.5t69 -36t31.5 -70.5q0 -40 -32 -174q-7 -36 -15 -70.5t-11.5 -49t-5.5 -29t-2 -25.5
q0 -21 33 -21q7 0 25 2l-9 -49q-28 -5 -52 -5q-54 0 -55 55q0 10 2 28l-2 2q-26 -44 -75 -69t-104 -25zM169 38q74 0 122 40t63 111l20 87l-2 2q-5 -6 -14 -10.5t-17.5 -7.5t-22 -5t-20.5 -2.5t-22 -2t-18 -1.5q-27 -2 -36.5 -2.5t-37 -4t-40 -8t-33.5 -13.5t-31 -20.5
t-18 -29.5t-8 -40q0 -47 33 -70t82 -23z" />
    <glyph glyph-name="afii10066" unicode="&#x431;" horiz-adv-x="556" 
d="M231 -14q-99 0 -152 56.5t-53 163.5q0 100 32.5 211t86.5 177q42 52 95 76.5t128 28.5l49 3q38 2 53.5 8t24.5 19h70q-14 -46 -49.5 -64t-102.5 -22l-77 -5q-88 -6 -146 -67t-93 -185h3q30 55 85 93t118 38q95 0 148 -52.5t53 -148.5q0 -84 -30 -157.5t-94 -123
t-149 -49.5zM234 38q65 0 114 44t71 105.5t22 126.5q0 70 -37 110t-106 40q-88 0 -149 -76.5t-61 -190.5q0 -77 38.5 -118t107.5 -41z" />
    <glyph glyph-name="afii10067" unicode="&#x432;" horiz-adv-x="517" 
d="M-6 0l108 516h192q39 0 64.5 -3t54.5 -14t44 -36t15 -65q0 -51 -30 -86.5t-81 -43.5q87 -19 87 -107q0 -52 -30.5 -95t-80.5 -57q-33 -9 -111 -9h-232zM68 52h149q68 0 92 7q35 8 57 36.5t22 66.5q0 28 -11 46t-33 25.5t-40 9.5t-47 2h-148zM119 294h155q68 0 97 19
q41 24 41 80q0 24 -9.5 39.5t-29 22t-35.5 8t-41 1.5h-142z" />
    <glyph glyph-name="afii10068" unicode="&#x433;" horiz-adv-x="400" 
d="M-6 0l109 516h333l-11 -53h-270l-98 -463h-63z" />
    <glyph glyph-name="afii10069" unicode="&#x434;" horiz-adv-x="570" 
d="M-100 -164l45 217h61q99 133 155 395l14 68h347l-98 -463h77l-46 -217h-63l35 164h-430l-35 -164h-62zM71 53h290l87 410h-223l-8 -36q-51 -245 -146 -374z" />
    <glyph glyph-name="afii10070" unicode="&#x435;" horiz-adv-x="519" 
d="M224 -14q-102 0 -156 57t-54 161q0 84 32 157.5t97 121.5t150 48q92 0 144 -55t52 -146q0 -50 -5 -89h-404q-3 -18 -3 -40q0 -73 38 -118t112 -45q62 0 106.5 35t62.5 93h63q-54 -180 -235 -180zM88 294h337q0 8 0.5 21t0.5 19q0 66 -37.5 105t-103.5 39q-74 0 -127 -54
t-70 -130z" />
    <glyph glyph-name="afii10072" unicode="&#x436;" horiz-adv-x="741" 
d="M-84 0l290 307l-156 209h74l197 -264l56 264h68l-60 -258l297 258h82l-251 -219l175 -297h-75l-151 254l-95 -81l-36 -173h-63l36 175l-63 84l-241 -259h-84z" />
    <glyph glyph-name="afii10073" unicode="&#x437;" horiz-adv-x="487" 
d="M198 -14q-90 0 -146 44t-56 120q0 9 1 18h60v-14q0 -57 36.5 -86.5t105.5 -29.5q68 0 113 32.5t45 97.5q0 76 -99 76h-88l11 50h69q51 0 91.5 30t40.5 78q0 32 -27.5 54t-92.5 22q-129 0 -155 -112h-62q39 165 225 165q82 0 127 -32t45 -95q0 -48 -33 -84t-76 -45v-2
q35 -7 60 -33t25 -70q0 -90 -63 -137t-157 -47z" />
    <glyph glyph-name="afii10074" unicode="&#x438;" horiz-adv-x="544" 
d="M-10 0l109 516h63l-94 -442l370 442h83l-109 -516h-63l93 442l-369 -442h-83z" />
    <glyph glyph-name="afii10075" unicode="&#x439;" horiz-adv-x="544" 
d="M-10 0l109 516h63l-94 -442l370 442h83l-109 -516h-63l93 442l-369 -442h-83zM318 586q-58 0 -91 29.5t-33 83.5q0 10 1 17h39q0 -2 -0.5 -5t-0.5 -5q0 -34 22 -53t64 -19q81 0 114 82h39q-39 -130 -154 -130z" />
    <glyph glyph-name="afii10076" unicode="&#x43a;" horiz-adv-x="477" 
d="M-10 0l110 516h61l-56 -261l311 261h84l-255 -211l161 -305h-72l-138 264l-107 -88l-37 -176h-62z" />
    <glyph glyph-name="afii10077" unicode="&#x43b;" horiz-adv-x="565" 
d="M-22 -5q-27 0 -48 8l12 55q19 -7 49 -7q12 0 20 1.5t22 11.5t26 27t29 51.5t33 82.5t35.5 122.5t39.5 168.5h345l-109 -516h-63l98 463h-221q-28 -130 -56.5 -220t-51.5 -138.5t-53 -73.5t-51.5 -30.5t-55.5 -5.5z" />
    <glyph glyph-name="afii10078" unicode="&#x43c;" horiz-adv-x="668" 
d="M-10 0l109 516h82l96 -445l282 445h86l-109 -516h-63l90 425h-3l-269 -425h-56l-89 425h-3l-91 -425h-62z" />
    <glyph glyph-name="afii10079" unicode="&#x43d;" horiz-adv-x="537" 
d="M-10 0l109 516h62l-46 -219h290l46 219h62l-109 -516h-62l51 244h-290l-51 -244h-62z" />
    <glyph glyph-name="afii10080" unicode="&#x43e;" horiz-adv-x="556" 
d="M220 -14q-99 0 -152.5 57t-53.5 157q0 86 33 160.5t100 122.5t155 48q92 0 148 -54t56 -148q0 -90 -30.5 -166t-97.5 -126.5t-158 -50.5zM232 38q66 0 115.5 45.5t72.5 107.5t23 125q0 74 -39 118t-113 44q-66 0 -116.5 -43.5t-74 -104.5t-23.5 -124q0 -78 39.5 -123
t115.5 -45z" />
    <glyph glyph-name="afii10081" unicode="&#x43f;" horiz-adv-x="530" 
d="M-10 0l109 516h407l-109 -516h-62l98 463h-283l-98 -463h-62z" />
    <glyph glyph-name="afii10082" unicode="&#x440;" 
d="M-45 -190l151 706h57l-20 -93h2q35 54 79 81t109 27q96 0 146 -57t50 -154q0 -81 -33.5 -156.5t-99.5 -126.5t-149 -51q-66 0 -111 28.5t-54 88.5h-2l-63 -293h-62zM246 38q52 0 95 27t69.5 69.5t41 92t14.5 97.5q0 69 -35 111.5t-104 42.5q-68 0 -121 -47t-78.5 -112
t-25.5 -132q0 -70 38 -109.5t106 -39.5z" />
    <glyph glyph-name="afii10083" unicode="&#x441;" horiz-adv-x="519" 
d="M213 -14q-95 0 -147 57t-52 155q0 83 32.5 158t98 125t149.5 50q89 0 142 -44.5t51 -131.5h-63q4 56 -31.5 89.5t-92.5 33.5q-72 0 -124 -43t-75.5 -105t-23.5 -132q0 -72 36.5 -116t107.5 -44q61 0 105 35t65 94h63q-58 -181 -241 -181z" />
    <glyph glyph-name="afii10084" unicode="&#x442;" horiz-adv-x="443" 
d="M113 0l98 463h-191l11 53h445l-11 -53h-191l-98 -463h-63z" />
    <glyph glyph-name="afii10085" unicode="&#x443;" horiz-adv-x="463" 
d="M0 -190q-9 0 -27.5 2.5t-26.5 2.5l12 51q27 -3 53 -3q48 0 81 56l47 81l-95 516h66l74 -438h2l238 438h68l-367 -637q-41 -69 -125 -69z" />
    <glyph glyph-name="afii10086" unicode="&#x444;" horiz-adv-x="807" 
d="M258 -190l52 249q-60 -69 -142 -69q-68 0 -111 48t-43 135q0 82 28 161t91 137t148 58q86 0 115 -68l54 253h63l-54 -253q59 68 141 68q74 0 115.5 -49.5t41.5 -136.5q0 -59 -17.5 -120t-49.5 -113.5t-85 -86t-116 -33.5q-41 0 -72.5 19t-43.5 50l-52 -249h-63zM191 43
q49 0 89 31.5t50 80.5l47 213q2 16 2 24q0 38 -25.5 62t-67.5 24q-52 0 -94 -30t-66.5 -77.5t-37.5 -99t-13 -100.5q0 -128 116 -128zM484 43q53 0 95 28.5t66 74t36.5 95.5t12.5 99q0 70 -31.5 104t-85.5 34q-48 0 -87.5 -31t-49.5 -79l-47 -213q-3 -13 -3 -26
q0 -39 26 -62.5t68 -23.5z" />
    <glyph glyph-name="afii10087" unicode="&#x445;" horiz-adv-x="463" 
d="M-57 0l245 272l-121 244h72l94 -203l178 203h76l-227 -250l137 -266h-72l-110 225l-198 -225h-74z" />
    <glyph glyph-name="afii10088" unicode="&#x446;" horiz-adv-x="552" 
d="M373 -164l35 164h-418l109 516h63l-98 -463h279l98 463h63l-98 -463h76l-46 -217h-63z" />
    <glyph glyph-name="afii10089" unicode="&#x447;" horiz-adv-x="498" 
d="M302 0l48 228q-100 -34 -183 -34q-128 0 -128 115q0 26 6 56l31 151h63l-34 -163q-4 -17 -4 -36q0 -23 7.5 -38t22 -21t28 -8t33.5 -2q85 0 170 34l49 234h63l-109 -516h-63z" />
    <glyph glyph-name="afii10090" unicode="&#x448;" horiz-adv-x="783" 
d="M-11 0l109 516h63l-98 -463h236l98 463h63l-98 -463h236l98 463h63l-109 -516h-661z" />
    <glyph glyph-name="afii10091" unicode="&#x449;" horiz-adv-x="808" 
d="M629 -164l35 164h-674l109 516h63l-98 -463h236l98 463h63l-98 -463h236l98 463h63l-98 -463h76l-46 -217h-63z" />
    <glyph glyph-name="afii10092" unicode="&#x44a;" horiz-adv-x="586" 
d="M81 0l98 463h-159l11 53h222l-45 -207h159q83 0 123 -38t40 -103q0 -46 -23 -85.5t-61 -60.5q-45 -22 -140 -22h-225zM154 53h177q138 0 138 112q0 47 -28.5 69t-90.5 22h-152z" />
    <glyph glyph-name="afii10093" unicode="&#x44b;" horiz-adv-x="676" 
d="M-10 0l110 516h62l-45 -207h139q83 0 123 -38t40 -103q0 -46 -23 -85.5t-61 -60.5q-45 -22 -140 -22h-205zM63 53h157q138 0 138 112q0 47 -28.5 69t-90.5 22h-132zM480 0l109 516h63l-109 -516h-63z" />
    <glyph glyph-name="afii10094" unicode="&#x44c;" horiz-adv-x="495" 
d="M-10 0l110 516h62l-45 -207h159q83 0 123 -38t40 -103q0 -46 -23 -85.5t-61 -60.5q-45 -22 -140 -22h-225zM63 53h177q138 0 138 112q0 47 -28.5 69t-90.5 22h-152z" />
    <glyph glyph-name="afii10095" unicode="&#x44d;" horiz-adv-x="519" 
d="M185 -14q-85 0 -136.5 46t-51.5 122v6h62q0 -57 35 -89t95 -32q83 0 137.5 57.5t72.5 143.5h-236l11 52h232q1 7 1 20q0 80 -37.5 123.5t-106.5 43.5q-55 0 -98.5 -30t-67.5 -85h-63q63 167 233 167q97 0 149.5 -56.5t52.5 -159.5q0 -84 -32.5 -158t-99 -122.5
t-152.5 -48.5z" />
    <glyph glyph-name="afii10096" unicode="&#x44e;" horiz-adv-x="748" 
d="M417 -14q-96 0 -148.5 57t-52.5 157q0 34 2 44h-115l-51 -244h-62l109 516h62l-46 -219h112q25 102 97 168t175 66q91 0 145 -53.5t54 -148.5q0 -90 -30.5 -166.5t-95.5 -126.5t-155 -50zM429 38q63 0 111.5 45t71.5 107.5t23 125.5q0 75 -37 118.5t-110 43.5
q-93 0 -151 -86t-58 -186q0 -77 38.5 -122.5t111.5 -45.5z" />
    <glyph glyph-name="afii10097" unicode="&#x44f;" horiz-adv-x="508" 
d="M-45 0l210 209q-56 5 -90.5 41.5t-34.5 96.5q0 80 53.5 124.5t144.5 44.5h246l-109 -516h-63l45 208h-115l-208 -208h-79zM223 260h145l42 204h-159q-62 0 -106 -26t-44 -87q0 -46 27.5 -68.5t94.5 -22.5z" />
    <glyph glyph-name="uni0450" unicode="&#x450;" horiz-adv-x="519" 
d="M224 -14q-102 0 -156 57t-54 161q0 84 32 157.5t97 121.5t150 48q92 0 144 -55t52 -146q0 -50 -5 -89h-404q-3 -18 -3 -40q0 -73 38 -118t112 -45q62 0 106.5 35t62.5 93h63q-54 -180 -235 -180zM88 294h337q0 8 0.5 21t0.5 19q0 66 -37.5 105t-103.5 39q-74 0 -127 -54
t-70 -130zM275 729l82 -144h-50l-106 144h74z" />
    <glyph glyph-name="afii10071" unicode="&#x451;" horiz-adv-x="519" 
d="M224 -14q-102 0 -156 57t-54 161q0 84 32 157.5t97 121.5t150 48q92 0 144 -55t52 -146q0 -50 -5 -89h-404q-3 -18 -3 -40q0 -73 38 -118t112 -45q62 0 106.5 35t62.5 93h63q-54 -180 -235 -180zM88 294h337q0 8 0.5 21t0.5 19q0 66 -37.5 105t-103.5 39q-74 0 -127 -54
t-70 -130zM223 703h64l-20 -102h-63zM382 703h64l-20 -102h-63z" />
    <glyph glyph-name="afii10099" unicode="&#x452;" horiz-adv-x="547" 
d="M156 -190q-21 0 -42 3l12 59q21 -3 41 -3q82 0 128 44.5t65 132.5l59 272q7 37 7 52q0 48 -30.5 70.5t-77.5 22.5q-70 0 -125 -58t-77 -155l-54 -250h-62l124 581h-84l11 53h85l17 80h63l-17 -80h230l-11 -53h-231l-37 -174h2q28 48 76.5 78.5t104.5 30.5q72 0 114 -34
t42 -105q0 -30 -8 -61l-60 -279q-25 -116 -89.5 -171.5t-175.5 -55.5z" />
    <glyph glyph-name="afii10100" unicode="&#x453;" horiz-adv-x="400" 
d="M-6 0l109 516h333l-11 -53h-270l-98 -463h-63zM327 729h81l-144 -144h-53z" />
    <glyph glyph-name="afii10101" unicode="&#x454;" horiz-adv-x="519" 
d="M222 -14q-98 0 -153 56t-55 158q0 131 80.5 231t209.5 100q84 0 132 -45.5t49 -121.5h-62q-2 54 -34 84.5t-89 30.5q-80 0 -136.5 -54t-75.5 -133h243l-11 -53h-242q-2 -24 -2 -36q0 -79 40 -121.5t110 -42.5q118 0 165 127h64q-59 -180 -233 -180z" />
    <glyph glyph-name="afii10102" unicode="&#x455;" horiz-adv-x="481" 
d="M193 -14q-84 0 -140 45t-53 137h62q0 -70 41.5 -100t104.5 -30q49 0 89.5 24.5t40.5 70.5q-1 36 -29.5 60.5t-68.5 39t-80.5 31t-69 48t-29.5 78.5q0 69 59 105t132 36q86 0 136 -40t48 -126h-63q4 56 -30.5 84.5t-90.5 28.5q-51 0 -89.5 -20t-38.5 -68q0 -33 26.5 -52.5
t82.5 -42.5q6 -3 27 -11t30 -11.5t27 -12.5t27 -16t22 -18.5t19 -22.5t11 -26.5t5 -33.5q0 -81 -61.5 -119t-146.5 -38z" />
    <glyph glyph-name="afii10103" unicode="&#x456;" horiz-adv-x="185" 
d="M-10 0l110 516h63l-111 -516h-62zM121 613l22 101h63l-22 -101h-63z" />
    <glyph glyph-name="afii10104" unicode="&#x457;" horiz-adv-x="185" 
d="M56 703h64l-20 -102h-63zM215 703h64l-20 -102h-63zM-10 0l110 516h63l-111 -516h-62z" />
    <glyph glyph-name="afii10105" unicode="&#x458;" horiz-adv-x="185" 
d="M-92 -190q-8 0 -23 2.5t-21 2.5l12 52q4 0 16.5 -2t19.5 -2q46 0 61 52l127 601h63l-129 -603q-13 -53 -41 -78t-85 -25zM121 613l21 101h64l-22 -101h-63z" />
    <glyph glyph-name="afii10106" unicode="&#x459;" horiz-adv-x="874" 
d="M-22 -5q-27 0 -48 8l12 55q19 -7 49 -7q12 0 20 1.5t22 11.5t26 27t29 51.5t33 82.5t35.5 122.5t39.5 168.5h345l-45 -207h159q83 0 123 -38t40 -103q0 -46 -23 -85.5t-61 -60.5q-45 -22 -140 -22h-225l98 463h-221q-28 -130 -56.5 -220t-51.5 -138.5t-53 -73.5
t-51.5 -30.5t-55.5 -5.5zM442 53h177q138 0 138 112q0 47 -28.5 69t-90.5 22h-152z" />
    <glyph glyph-name="afii10107" unicode="&#x45a;" horiz-adv-x="845" 
d="M-10 0l109 516h62l-45 -212h290l45 212h62l-44 -212h147q88 0 130.5 -31t42.5 -106q0 -46 -22 -86t-60 -60q-43 -21 -138 -21h-226l52 251h-290l-53 -251h-62zM414 52h158q70 0 113 23.5t43 88.5q0 46 -26.5 66.5t-98.5 20.5h-146z" />
    <glyph glyph-name="afii10108" unicode="&#x45b;" horiz-adv-x="547" 
d="M0 0l124 581h-84l11 53h85l17 80h63l-17 -80h230l-11 -53h-231l-37 -174h2q28 48 76.5 78.5t104.5 30.5q72 0 114 -34t42 -105q0 -30 -8 -61l-68 -316h-63l69 318q7 28 7 52q0 48 -30.5 70.5t-77.5 22.5q-70 0 -125 -58t-77 -155l-54 -250h-62z" />
    <glyph glyph-name="afii10109" unicode="&#x45c;" horiz-adv-x="477" 
d="M-10 0l110 516h61l-56 -261l311 261h84l-255 -211l161 -305h-72l-138 264l-107 -88l-37 -176h-62zM356 729h81l-144 -144h-53z" />
    <glyph glyph-name="uni045D" unicode="&#x45d;" horiz-adv-x="544" 
d="M-10 0l109 516h63l-94 -442l370 442h83l-109 -516h-63l93 442l-369 -442h-83zM298 729l82 -144h-50l-106 144h74z" />
    <glyph glyph-name="afii10110" unicode="&#x45e;" horiz-adv-x="463" 
d="M0 -190q-9 0 -27.5 2.5t-26.5 2.5l12 51q27 -3 53 -3q48 0 81 56l47 81l-95 516h66l74 -438h2l238 438h68l-367 -637q-41 -69 -125 -69zM277 586q-58 0 -91 29.5t-33 83.5q0 10 1 17h39q0 -2 -0.5 -5t-0.5 -5q0 -34 22 -53t64 -19q81 0 114 82h39q-39 -130 -154 -130z
" />
    <glyph glyph-name="afii10193" unicode="&#x45f;" horiz-adv-x="530" 
d="M128 -164l35 164h-173l109 516h63l-98 -463h281l98 463h63l-109 -516h-171l-35 -164h-63z" />
    <glyph glyph-name="afii10146" unicode="&#x462;" horiz-adv-x="706" 
d="M81 0l117 552h-178l12 58h179l22 104h68l-22 -104h248l-12 -58h-248l-30 -142h182q41 0 62.5 -1.5t50 -7t49 -19t38.5 -35.5q40 -50 40 -120q0 -101 -68 -166q-61 -61 -199 -61h-311zM162 58h247q31 0 61 8t58.5 25.5t46 51.5t17.5 80q0 67 -37 98t-122 31h-209z" />
    <glyph glyph-name="afii10194" unicode="&#x463;" horiz-adv-x="543" 
d="M38 0l98 463h-129l12 53h128l43 198h62l-43 -198h193l-12 -53h-192l-33 -154h159q83 0 123 -38t40 -103q0 -46 -23 -85.5t-61 -60.5q-45 -22 -140 -22h-225zM111 53h177q138 0 138 112q0 47 -28.5 69t-90.5 22h-152z" />
    <glyph glyph-name="uni046A" unicode="&#x46a;" horiz-adv-x="924" 
d="M-14 0l45 213q6 29 12 48t18 44t29.5 40.5t43 30.5t63.5 22t87 7h128l-159 309h567l-288 -309h112q194 0 194 -147q0 -29 -8 -66l-40 -192h-68l41 196q6 30 6 50q0 100 -129 100h-145l-73 -346h-68l73 346h-145q-51 0 -87 -12t-55 -34.5t-27.5 -42t-14.5 -47.5l-44 -210
h-68zM474 421l214 235h-330z" />
    <glyph glyph-name="uni046B" unicode="&#x46b;" horiz-adv-x="709" 
d="M-11 0l28 135q17 87 61 121t125 34h95l-121 226h449l-218 -226h78q143 0 143 -117q0 -23 -6 -51l-25 -122h-63l28 133q4 17 4 36q0 23 -8 38t-24 21t-29 7.5t-34 1.5h-97l-50 -237h-63l50 237h-97q-19 0 -32 -1t-31 -7t-30.5 -16.5t-24 -30.5t-17.5 -49l-28 -133h-63z
M357 308l141 155h-222z" />
    <glyph glyph-name="afii10147" unicode="&#x472;" horiz-adv-x="741" 
d="M327 -14q-138 0 -215.5 82.5t-77.5 220.5q0 116 45 215t135 162t208 63q136 0 216 -81.5t80 -217.5q0 -88 -26 -167.5t-74.5 -141.5t-123.5 -98.5t-167 -36.5zM338 43q124 0 207.5 93.5t100.5 222.5q-91 -67 -156 -67q-39 0 -127 42.5t-115 42.5q-65 0 -146 -69v-25
q0 -110 63 -175t173 -65zM501 351q67 0 149 69q-2 113 -60 182t-169 69q-130 0 -209 -84.5t-103 -214.5q90 64 154 64q35 0 125 -42.5t113 -42.5z" />
    <glyph glyph-name="afii10195" unicode="&#x473;" horiz-adv-x="556" 
d="M220 -14q-99 0 -152.5 57t-53.5 157q0 86 33 160.5t100 122.5t155 48q92 0 148 -54t56 -148q0 -90 -30.5 -166t-97.5 -126.5t-158 -50.5zM232 38q83 0 136 64.5t69 154.5q-56 -41 -102 -41q-31 0 -92 29t-81 29q-36 0 -84 -38q-1 -11 -1 -30q0 -78 39.5 -123t115.5 -45z
M344 265q43 0 99 45v6q0 74 -39 118t-113 44q-75 0 -127.5 -53t-74.5 -132q46 31 87 31q26 0 90 -29.5t78 -29.5z" />
    <glyph glyph-name="afii10148" unicode="&#x474;" horiz-adv-x="642" 
d="M176 0l-112 714h70l91 -656h2l299 565q19 35 40.5 57t44.5 31t38 11t36 2q36 0 57 -8l-13 -58q-15 7 -47 7q-61 0 -97 -65l-330 -600h-79z" />
    <glyph glyph-name="afii10196" unicode="&#x475;" horiz-adv-x="503" 
d="M116 0l-81 516h66l61 -445h2l201 369q28 51 61 68t73 17q35 0 48 -8l-11 -55q-19 7 -50 7q-37 0 -70 -58l-232 -411h-68z" />
    <glyph glyph-name="Izhitsadblgravecyrillic" unicode="&#x476;" horiz-adv-x="642" 
d="M176 0l-112 714h70l91 -656h2l299 565q19 35 40.5 57t44.5 31t38 11t36 2q36 0 57 -8l-13 -58q-15 7 -47 7q-61 0 -97 -65l-330 -600h-79zM420 918l82 -144h-50l-106 144h74zM240 918l82 -144h-50l-106 144h74z" />
    <glyph glyph-name="izhitsadblgravecyrillic" unicode="&#x477;" horiz-adv-x="503" 
d="M116 0l-81 516h66l61 -445h2l201 369q28 51 61 68t73 17q35 0 48 -8l-11 -55q-19 7 -50 7q-37 0 -70 -58l-232 -411h-68zM317 722l82 -144h-50l-106 144h74zM137 722l82 -144h-50l-106 144h74z" />
    <glyph glyph-name="uni048C" unicode="&#x48c;" horiz-adv-x="686" 
d="M61 0l138 656h-158l12 58h159l22 104h68l-22 -104h169l-12 -58h-169l-51 -246h182q41 0 62.5 -1.5t50 -7t49 -19t38.5 -35.5q40 -50 40 -120q0 -101 -68 -166q-61 -61 -199 -61h-311zM142 58h247q31 0 61 8t58.5 25.5t46 51.5t17.5 80q0 67 -37 98t-122 31h-209z" />
    <glyph glyph-name="uni048D" unicode="&#x48d;" horiz-adv-x="523" 
d="M18 0l99 463h-109l12 53h108l26 120h62l-26 -120h118l-12 -53h-117l-34 -154h159q83 0 123 -38t40 -103q0 -46 -23 -85.5t-61 -60.5q-45 -22 -140 -22h-225zM91 53h177q138 0 138 112q0 47 -28.5 69t-90.5 22h-152z" />
    <glyph glyph-name="afii10050" unicode="&#x490;" horiz-adv-x="514" 
d="M10 0l151 714h373l34 161h68l-46 -219h-373l-139 -656h-68z" />
    <glyph glyph-name="afii10098" unicode="&#x491;" horiz-adv-x="400" 
d="M-7 0l109 516h263l33 155h63l-44 -208h-263l-98 -463h-63z" />
    <glyph glyph-name="uni0492" unicode="&#x492;" horiz-adv-x="578" 
d="M74 0l72 340h-122l12 58h122l67 316h436l-12 -58h-368l-55 -258h205l-12 -58h-205l-72 -340h-68z" />
    <glyph glyph-name="uni0493" unicode="&#x493;" horiz-adv-x="453" 
d="M47 0l49 233h-98l11 53h98l49 230h333l-11 -53h-270l-38 -177h172l-11 -53h-172l-49 -233h-63z" />
    <glyph glyph-name="uni0496" unicode="&#x496;" horiz-adv-x="1010" 
d="M856 -190l41 190h-52l-206 358l-121 -106l-54 -252h-68l54 252l-76 105l-353 -357h-94l411 408l-218 306h86l262 -379l79 379h68l-78 -372l408 372h97l-350 -309l200 -347h85l-53 -248h-68z" />
    <glyph glyph-name="uni0497" unicode="&#x497;" horiz-adv-x="761" 
d="M624 -164l35 164h-46l-151 254l-95 -81l-36 -173h-63l36 175l-63 84l-241 -259h-84l290 307l-156 209h74l197 -264l56 264h68l-60 -258l297 258h82l-251 -219l144 -244h76l-46 -217h-63z" />
    <glyph glyph-name="uni0498" unicode="&#x498;" horiz-adv-x="627" 
d="M146 -181l14 29q44 -17 77 -17q56 0 56 41q0 20 -15.5 30.5t-38.5 10.5q-20 0 -38 -9l-16 18l56 66q-114 6 -172 58q-66 60 -66 169v9q0 7 1 12h65v-16q0 -177 203 -177q84 0 151 51t67 133q0 53 -40 84t-104 31h-114l12 55h110q69 0 119.5 44.5t50.5 111.5
q0 60 -43.5 89.5t-118.5 29.5q-74 0 -130.5 -45t-71.5 -103h-67q21 99 98 152t175 53q97 0 162 -46t65 -127q0 -63 -39 -111t-100 -71v-2q104 -30 104 -140q0 -86 -50 -145.5t-130 -83.5q-48 -14 -102 -16l-40 -42l2 -2q12 4 36 4q32 0 53 -17.5t21 -51.5q0 -39 -33 -60
t-74 -21q-50 0 -95 22z" />
    <glyph glyph-name="uni0499" unicode="&#x499;" horiz-adv-x="487" 
d="M86 -181l14 29q44 -17 77 -17q56 0 56 41q0 20 -15.5 30.5t-38.5 10.5q-20 0 -38 -9l-16 18l55 65q-30 1 -63 10q-56 17 -88.5 56.5t-32.5 96.5v8q0 5 1 10h60v-14q0 -57 36.5 -86.5t105.5 -29.5q68 0 113 32.5t45 97.5q0 76 -99 76h-88l11 50h69q51 0 91.5 30t40.5 78
q0 32 -27.5 54t-92.5 22q-129 0 -155 -112h-62q39 165 225 165q82 0 127 -32t45 -95q0 -48 -33 -84t-76 -45v-2q35 -7 60 -33t25 -70q0 -68 -37 -112t-99 -61q-29 -8 -67 -10l-39 -42l2 -2q12 4 36 4q32 0 53 -17.5t21 -51.5q0 -39 -33 -60t-74 -21q-50 0 -95 22z" />
    <glyph glyph-name="uni049A" unicode="&#x49a;" horiz-adv-x="668" 
d="M518 -190l41 190h-47l-227 374l-159 -127l-53 -247h-68l152 714h68l-82 -381l2 -2l461 383h95l-366 -298l219 -358h85l-53 -248h-68z" />
    <glyph glyph-name="uni049B" unicode="&#x49b;" horiz-adv-x="497" 
d="M345 -164l35 164h-46l-138 264l-107 -88l-37 -176h-62l110 516h61l-56 -261l311 261h84l-255 -211l133 -252h76l-46 -217h-63z" />
    <glyph glyph-name="uni049C" unicode="&#x49c;" horiz-adv-x="648" 
d="M5 0l151 714h68l-66 -310h73l34 157h45l-34 -157h18l345 310h92l-379 -338l243 -376h-83l-225 346h-23l-36 -170h-45l36 170h-73l-73 -346h-68z" />
    <glyph glyph-name="uni049D" unicode="&#x49d;" horiz-adv-x="498" 
d="M-10 0l109 516h63l-46 -219h41l25 118h45l-25 -118h15l232 219h83l-262 -243l166 -273h-74l-147 244h-25l-26 -124h-45l26 124h-41l-51 -244h-63z" />
    <glyph glyph-name="uni04A0" unicode="&#x4a0;" horiz-adv-x="788" 
d="M145 0l140 656h-216l12 58h284l-82 -381l2 -2l461 383h95l-366 -298l255 -416h-78l-227 374l-159 -127l-53 -247h-68z" />
    <glyph glyph-name="uni04A1" unicode="&#x4a1;" horiz-adv-x="569" 
d="M82 0l97 463h-159l11 53h222l-56 -261l311 261h84l-255 -211l161 -305h-72l-138 264l-107 -88l-37 -176h-62z" />
    <glyph glyph-name="uni04A2" unicode="&#x4a2;" horiz-adv-x="725" 
d="M531 -190l41 190h-86l74 346h-413l-74 -346h-68l152 714h68l-66 -310h413l66 310h68l-139 -656h85l-53 -248h-68z" />
    <glyph glyph-name="uni04A3" unicode="&#x4a3;" horiz-adv-x="557" 
d="M382 -164l35 164h-75l51 244h-290l-51 -244h-62l109 516h62l-46 -219h290l46 219h62l-98 -463h76l-46 -217h-63z" />
    <glyph glyph-name="uni04A4" unicode="&#x4a4;" horiz-adv-x="991" 
d="M5 0l152 714h68l-66 -310h413l66 310h436l-12 -58h-368l-139 -656h-69l74 346h-413l-74 -346h-68z" />
    <glyph glyph-name="uni04A5" unicode="&#x4a5;" horiz-adv-x="748" 
d="M-10 0l109 516h62l-46 -219h290l46 219h333l-11 -53h-270l-98 -463h-63l51 244h-290l-51 -244h-62z" />
    <glyph glyph-name="uni04AA" unicode="&#x4aa;" horiz-adv-x="704" 
d="M196 -181l14 29q44 -17 77 -17q56 0 56 41q0 20 -15.5 30.5t-38.5 10.5q-20 0 -38 -9l-16 18l56 66q-51 5 -89 20q-81 33 -124.5 105.5t-43.5 175.5q0 116 45 215t135 162t208 63q117 0 190.5 -62.5t75.5 -178.5h-68q-2 89 -54.5 136t-144.5 47q-78 0 -140 -33
t-100.5 -88.5t-58.5 -124t-20 -142.5q0 -110 63 -175t173 -65q85 0 150.5 54t91.5 147h68q-25 -117 -107 -187.5t-214 -70.5h-2l-39 -41l2 -2q12 4 36 4q32 0 53 -17.5t21 -51.5q0 -39 -33 -60t-74 -21q-50 0 -95 22z" />
    <glyph glyph-name="uni04AB" unicode="&#x4ab;" horiz-adv-x="519" 
d="M86 -181l14 29q44 -17 77 -17q56 0 56 41q0 20 -15.5 30.5t-38.5 10.5q-20 0 -38 -9l-16 18l56 66q-72 7 -116 56q-51 58 -51 154q0 83 32.5 158t98 125t149.5 50q89 0 142 -44.5t51 -131.5h-63q4 56 -31.5 89.5t-92.5 33.5q-72 0 -124 -43t-75.5 -105t-23.5 -132
q0 -72 36.5 -116t107.5 -44q61 0 105 35t65 94h63q-58 -180 -239 -181l-39 -41l2 -2q12 4 36 4q32 0 53 -17.5t21 -51.5q0 -39 -33 -60t-74 -21q-50 0 -95 22z" />
    <glyph glyph-name="uni04AE" unicode="&#x4ae;" 
d="M191 0l65 295l-190 419h72l161 -362l299 362h83l-358 -426l-63 -288h-69z" />
    <glyph glyph-name="uni04AF" unicode="&#x4af;" horiz-adv-x="463" 
d="M88 -190l42 197l-96 509h63l77 -440l252 440h67l-300 -511l-42 -195h-63z" />
    <glyph glyph-name="uni04B0" unicode="&#x4b0;" 
d="M191 0l37 169h-159l13 58h159l15 68l-190 419h72l161 -362l299 362h83l-358 -426l-14 -61h168l-13 -58h-167l-37 -169h-69z" />
    <glyph glyph-name="uni04B1" unicode="&#x4b1;" horiz-adv-x="463" 
d="M88 -190l21 99h-124l11 53h124l10 45l-96 509h63l77 -440l252 440h67l-300 -511l-9 -43h131l-11 -53h-132l-21 -99h-63z" />
    <glyph glyph-name="uni04B2" unicode="&#x4b2;" horiz-adv-x="594" 
d="M457 -190l41 190h-47l-159 318l-280 -318h-79l327 372l-176 342h75l148 -300l259 300h81l-310 -353l156 -303h85l-53 -248h-68z" />
    <glyph glyph-name="uni04B3" unicode="&#x4b3;" horiz-adv-x="483" 
d="M336 -164l35 164h-46l-110 225l-198 -225h-74l245 272l-121 244h72l94 -203l178 203h76l-227 -250l109 -213h76l-46 -217h-63z" />
    <glyph glyph-name="uni04B6" unicode="&#x4b6;" horiz-adv-x="651" 
d="M458 -190l41 190h-86l69 325q-35 -10 -103 -20t-112 -10q-192 0 -192 150q0 32 9 73l41 196h68l-44 -210q-6 -30 -6 -50q0 -100 129 -100q84 0 222 29l70 331h68l-138 -656h85l-53 -248h-68z" />
    <glyph glyph-name="uni04B7" unicode="&#x4b7;" horiz-adv-x="518" 
d="M343 -164l35 164h-76l48 228q-100 -34 -183 -34q-128 0 -128 115q0 26 6 56l31 151h63l-34 -163q-4 -17 -4 -36q0 -23 7.5 -38t22 -21t28 -8t33.5 -2q85 0 170 34l49 234h63l-98 -463h76l-46 -217h-63z" />
    <glyph glyph-name="uni04B8" unicode="&#x4b8;" horiz-adv-x="630" 
d="M413 0l69 325q-95 -22 -175 -28l-34 -161h-45l34 159q-187 0 -187 150q0 32 9 73l41 196h68l-44 -210q-6 -30 -6 -50q0 -100 129 -100h2l34 157h45l-33 -156q86 6 174 28l70 331h68l-151 -714h-68z" />
    <glyph glyph-name="uni04B9" unicode="&#x4b9;" horiz-adv-x="498" 
d="M302 0l48 228q-50 -19 -125 -30l-26 -123h-45l25 119h-12q-128 0 -128 115q0 26 6 56l31 151h63l-34 -163q-4 -17 -4 -36q0 -23 7.5 -38t22 -21t27.5 -8t33 -2l26 122h45l-26 -119q67 10 126 31l49 234h63l-109 -516h-63z" />
    <glyph glyph-name="uni04BA" unicode="&#x4ba;" horiz-adv-x="630" 
d="M5 0l151 714h68l-66 -312q35 10 103 20t112 10q192 0 192 -150q0 -32 -9 -73l-44 -209h-68l47 223q6 30 6 50q0 100 -129 100q-84 0 -222 -29l-73 -344h-68z" />
    <glyph glyph-name="uni04BB" unicode="&#x4bb;" horiz-adv-x="537" 
d="M-10 0l153 714h63l-63 -292h2q28 48 76.5 78.5t104.5 30.5q72 0 114 -34t42 -105q0 -18 -8 -61l-71 -331h-63l72 333q7 28 7 52q0 48 -30.5 70.5t-77.5 22.5q-69 0 -125.5 -58t-76.5 -155l-57 -265h-62z" />
    <glyph glyph-name="uni04C0" unicode="&#x4c0;" horiz-adv-x="222" 
d="M5 0l151 714h68l-151 -714h-68z" />
    </font>
</defs>
</svg>
